  0
SECTION
  2
HEADER
  9
$ACADVER
  1
AC1014
  9
$HANDSEED
  5
FFFF
  9
$MEASUREMENT
 70
     1
  0
ENDSEC
  0
SECTION
  2
TABLES
  0
TABLE
  2
VPORT
  5
8
330
0
100
AcDbSymbolTable
 70
     4
  0
VPORT
  5
2E
330
8
100
AcDbSymbolTableRecord
100
AcDbViewportTableRecord
  2
*ACTIVE
 70
     0
 10
0.0
 20
0.0
 11
1.0
 21
1.0
 12
210.0
 22
148.5
 13
0.0
 23
0.0
 14
10.0
 24
10.0
 15
10.0
 25
10.0
 16
0.0
 26
0.0
 36
1.0
 17
0.0
 27
0.0
 37
0.0
 40
341.0
 41
1.24
 42
50.0
 43
0.0
 44
0.0
 50
0.0
 51
0.0
 71
     0
 72
   100
 73
     1
 74
     3
 75
     0
 76
     0
 77
     0
 78
     0
  0
ENDTAB
  0
TABLE
  2
LTYPE
  5
5
330
0
100
AcDbSymbolTable
 70
     1
  0
LTYPE
  5
14
330
5
100
AcDbSymbolTableRecord
100
AcDbLinetypeTableRecord
  2
BYBLOCK
 70
     0
  3

 72
    65
 73
     0
 40
0.0
  0
LTYPE
  5
15
330
5
100
AcDbSymbolTableRecord
100
AcDbLinetypeTableRecord
  2
BYLAYER
 70
     0
  3

 72
    65
 73
     0
 40
0.0
  0
LTYPE
  5
16
330
5
100
AcDbSymbolTableRecord
100
AcDbLinetypeTableRecord
  2
CONTINUOUS
 70
     0
  3
Solid line
 72
    65
 73
     0
 40
0.0
  0
ENDTAB
  0
TABLE
  2
LAYER
  5
2
100
AcDbSymbolTable
 70
1
  0
LAYER
  5
50
100
AcDbSymbolTableRecord
100
AcDbLayerTableRecord
  2
0
 70
0
  6
CONTINUOUS
  0
ENDTAB
  0
TABLE
  2
STYLE
  5
3
330
0
100
AcDbSymbolTable
 70
     1
  0
STYLE
  5
11
330
3
100
AcDbSymbolTableRecord
100
AcDbTextStyleTableRecord
  2
STANDARD
 70
     0
 40
0.0
 41
1.0
 50
0.0
 71
     0
 42
2.5
  3
txt
  4

  0
ENDTAB
  0
TABLE
  2
VIEW
  5
6
330
0
100
AcDbSymbolTable
 70
     0
  0
ENDTAB
  0
TABLE
  2
UCS
  5
7
330
0
100
AcDbSymbolTable
 70
     0
  0
ENDTAB
  0
TABLE
  2
APPID
  5
9
330
0
100
AcDbSymbolTable
 70
     2
  0
APPID
  5
12
330
9
100
AcDbSymbolTableRecord
100
AcDbRegAppTableRecord
  2
ACAD
 70
     0
  0
ENDTAB
  0
TABLE
  2
DIMSTYLE
  5
A
330
0
100
AcDbSymbolTable
 70
     1
  0
DIMSTYLE
105
27
330
A
100
AcDbSymbolTableRecord
100
AcDbDimStyleTableRecord
  2
ISO-25
 70
     0
  3

  4

  5

  6

  7

 40
1.0
 41
2.5
 42
0.625
 43
3.75
 44
1.25
 45
0.0
 46
0.0
 47
0.0
 48
0.0
140
2.5
141
2.5
142
0.0
143
0.03937007874016
144
1.0
145
0.0
146
1.0
147
0.625
 71
     0
 72
     0
 73
     0
 74
     0
 75
     0
 76
     0
 77
     1
 78
     8
170
     0
171
     3
172
     1
173
     0
174
     0
175
     0
176
     0
177
     0
178
     0
270
     2
271
     2
272
     2
273
     2
274
     3
340
11
275
     0
280
     0
281
     0
282
     0
283
     0
284
     8
285
     0
286
     0
287
     3
288
     0
  0
ENDTAB
  0
TABLE
  2
BLOCK_RECORD
  5
1
330
0
100
AcDbSymbolTable
 70
     1
  0
BLOCK_RECORD
  5
1F
330
1
100
AcDbSymbolTableRecord
100
AcDbBlockTableRecord
  2
*MODEL_SPACE
  0
BLOCK_RECORD
  5
1B
330
1
100
AcDbSymbolTableRecord
100
AcDbBlockTableRecord
  2
*PAPER_SPACE
  0
ENDTAB
  0
ENDSEC
  0
SECTION
  2
BLOCKS
  0
BLOCK
  5
20
330
1F
100
AcDbEntity
  8
0
100
AcDbBlockBegin
  2
*MODEL_SPACE
 70
     0
 10
0.0
 20
0.0
 30
0.0
  3
*MODEL_SPACE
  1

  0
ENDBLK
  5
21
330
1F
100
AcDbEntity
  8
0
100
AcDbBlockEnd
  0
BLOCK
  5
1C
330
1B
100
AcDbEntity
 67
     1
  8
0
100
AcDbBlockBegin
  2
*PAPER_SPACE
  1

  0
ENDBLK
  5
1D
330
1B
100
AcDbEntity
 67
     1
  8
0
100
AcDbBlockEnd
  0
ENDSEC
  0
SECTION
  2
ENTITIES
  0
SPLINE
  5
100
100
AcDbEntity
  8
0
 62
7
100
AcDbSpline
 70
8
 71
3
 72
8
 73
4
 74
0
 40
0
 40
0
 40
0
 40
0
 40
1
 40
1
 40
1
 40
1
 10
153.173850
 20
128.622131
 30
0.0
 10
63.388713
 20
176.307379
 30
0.0
 10
8.708027
 20
208.785144
 30
0.0
 10
0.318685
 20
268.394808
 30
0.0
  0
SPLINE
  5
101
100
AcDbEntity
  8
0
 62
7
100
AcDbSpline
 70
8
 71
3
 72
8
 73
4
 74
0
 40
0
 40
0
 40
0
 40
0
 40
1
 40
1
 40
1
 40
1
 10
0.318685
 20
268.394808
 30
0.0
 10
-3.390916
 20
293.855540
 30
0.0
 10
26.422174
 20
327.588674
 30
0.0
 10
30.736990
 20
345.516354
 30
0.0
  0
SPLINE
  5
102
100
AcDbEntity
  8
0
 62
7
100
AcDbSpline
 70
8
 71
3
 72
8
 73
4
 74
0
 40
0
 40
0
 40
0
 40
0
 40
1
 40
1
 40
1
 40
1
 10
30.736990
 20
345.516354
 30
0.0
 10
37.394039
 20
374.067609
 30
0.0
 10
20.564382
 20
421.581721
 30
0.0
 10
47.221114
 20
452.474767
 30
0.0
  0
SPLINE
  5
103
100
AcDbEntity
  8
0
 62
7
100
AcDbSpline
 70
8
 71
3
 72
8
 73
4
 74
0
 40
0
 40
0
 40
0
 40
0
 40
1
 40
1
 40
1
 40
1
 10
47.221114
 20
452.474767
 30
0.0
 10
74.392052
 20
482.978710
 30
0.0
 10
88.825826
 20
466.727972
 30
0.0
 10
115.132174
 20
483.132293
 30
0.0
  0
SPLINE
  5
104
100
AcDbEntity
  8
0
 62
7
100
AcDbSpline
 70
8
 71
3
 72
8
 73
4
 74
0
 40
0
 40
0
 40
0
 40
0
 40
1
 40
1
 40
1
 40
1
 10
115.132174
 20
483.132293
 30
0.0
 10
141.881541
 20
499.602598
 30
0.0
 10
127.117159
 20
540.017462
 30
0.0
 10
166.157197
 20
550.587416
 30
0.0
  0
SPLINE
  5
105
100
AcDbEntity
  8
0
 62
7
100
AcDbSpline
 70
8
 71
3
 72
8
 73
4
 74
0
 40
0
 40
0
 40
0
 40
0
 40
1
 40
1
 40
1
 40
1
 10
166.157197
 20
550.587416
 30
0.0
 10
205.121330
 20
561.611687
 30
0.0
 10
219.120647
 20
539.702086
 30
0.0
 10
248.243648
 20
538.871696
 30
0.0
  0
SPLINE
  5
106
100
AcDbEntity
  8
0
 62
7
100
AcDbSpline
 70
8
 71
3
 72
8
 73
4
 74
0
 40
0
 40
0
 40
0
 40
0
 40
1
 40
1
 40
1
 40
1
 10
248.243648
 20
538.871696
 30
0.0
 10
276.927578
 20
537.980813
 30
0.0
 10
279.226509
 20
579.317390
 30
0.0
 10
317.400642
 20
575.785893
 30
0.0
  0
SPLINE
  5
107
100
AcDbEntity
  8
0
 62
7
100
AcDbSpline
 70
8
 71
3
 72
8
 73
4
 74
0
 40
0
 40
0
 40
0
 40
0
 40
1
 40
1
 40
1
 40
1
 10
317.400642
 20
575.785893
 30
0.0
 10
355.572946
 20
572.255711
 30
0.0
 10
362.752647
 20
536.655126
 30
0.0
 10
392.931979
 20
518.313477
 30
0.0
  0
SPLINE
  5
108
100
AcDbEntity
  8
0
 62
7
100
AcDbSpline
 70
8
 71
3
 72
8
 73
4
 74
0
 40
0
 40
0
 40
0
 40
0
 40
1
 40
1
 40
1
 40
1
 10
392.931979
 20
518.313477
 30
0.0
 10
422.737907
 20
499.450501
 30
0.0
 10
445.287591
 20
519.431386
 30
0.0
 10
475.763484
 20
499.276164
 30
0.0
  0
SPLINE
  5
109
100
AcDbEntity
  8
0
 62
7
100
AcDbSpline
 70
8
 71
3
 72
8
 73
4
 74
0
 40
0
 40
0
 40
0
 40
0
 40
1
 40
1
 40
1
 40
1
 10
475.763484
 20
499.276164
 30
0.0
 10
506.157723
 20
479.580778
 30
0.0
 10
490.685365
 20
446.797340
 30
0.0
 10
508.511897
 20
423.645048
 30
0.0
  0
SPLINE
  5
10a
100
AcDbEntity
  8
0
 62
7
100
AcDbSpline
 70
8
 71
3
 72
8
 73
4
 74
0
 40
0
 40
0
 40
0
 40
0
 40
1
 40
1
 40
1
 40
1
 10
508.511897
 20
423.645048
 30
0.0
 10
525.970773
 20
399.965908
 30
0.0
 10
537.280249
 20
411.127220
 30
0.0
 10
555.480049
 20
385.712015
 30
0.0
  0
SPLINE
  5
10b
100
AcDbEntity
  8
0
 62
7
100
AcDbSpline
 70
8
 71
3
 72
8
 73
4
 74
0
 40
0
 40
0
 40
0
 40
0
 40
1
 40
1
 40
1
 40
1
 10
555.480049
 20
385.712015
 30
0.0
 10
573.674330
 20
360.291062
 30
0.0
 10
557.199273
 20
311.516890
 30
0.0
 10
561.993090
 20
298.802815
 30
0.0
  0
SPLINE
  5
10c
100
AcDbEntity
  8
0
 62
7
100
AcDbSpline
 70
8
 71
3
 72
8
 73
4
 74
0
 40
0
 40
0
 40
0
 40
0
 40
1
 40
1
 40
1
 40
1
 10
561.993090
 20
298.802815
 30
0.0
 10
566.715175
 20
286.537278
 30
0.0
 10
594.490145
 20
246.861062
 30
0.0
 10
586.599866
 20
209.269379
 30
0.0
  0
SPLINE
  5
10d
100
AcDbEntity
  8
0
 62
7
100
AcDbSpline
 70
8
 71
3
 72
8
 73
4
 74
0
 40
0
 40
0
 40
0
 40
0
 40
1
 40
1
 40
1
 40
1
 10
586.599866
 20
209.269379
 30
0.0
 10
579.146056
 20
171.744225
 30
0.0
 10
437.061821
 20
115.461337
 30
0.0
 10
413.827757
 20
110.726967
 30
0.0
  0
SPLINE
  5
10e
100
AcDbEntity
  8
0
 62
7
100
AcDbSpline
 70
8
 71
3
 72
8
 73
4
 74
0
 40
0
 40
0
 40
0
 40
0
 40
1
 40
1
 40
1
 40
1
 10
413.827757
 20
110.726967
 30
0.0
 10
390.595554
 20
106.000976
 30
0.0
 10
406.850392
 20
48.145843
 30
0.0
 10
402.980924
 20
24.709628
 30
0.0
  0
SPLINE
  5
10f
100
AcDbEntity
  8
0
 62
7
100
AcDbSpline
 70
8
 71
3
 72
8
 73
4
 74
0
 40
0
 40
0
 40
0
 40
0
 40
1
 40
1
 40
1
 40
1
 10
402.980924
 20
24.709628
 30
0.0
 10
398.673383
 20
1.196934
 30
0.0
 10
328.373201
 20
-3.779087
 30
0.0
 10
269.827599
 20
2.469299
 30
0.0
  0
SPLINE
  5
110
100
AcDbEntity
  8
0
 62
7
100
AcDbSpline
 70
8
 71
3
 72
8
 73
4
 74
0
 40
0
 40
0
 40
0
 40
0
 40
1
 40
1
 40
1
 40
1
 10
269.827599
 20
2.469299
 30
0.0
 10
211.792830
 20
8.339334
 30
0.0
 10
175.142345
 20
30.275549
 30
0.0
 10
156.217773
 20
46.266742
 30
0.0
  0
SPLINE
  5
111
100
AcDbEntity
  8
0
 62
7
100
AcDbSpline
 70
8
 71
3
 72
8
 73
4
 74
0
 40
0
 40
0
 40
0
 40
0
 40
1
 40
1
 40
1
 40
1
 10
156.217773
 20
46.266742
 30
0.0
 10
136.862449
 20
62.176194
 30
0.0
 10
175.118714
 20
107.997274
 30
0.0
 10
153.173850
 20
128.622131
 30
0.0
  0
LINE
  5
112
100
AcDbEntity
  8
0
 62
7
100
AcDbLine
 10
153.173850
 20
128.622131
 30
0.0
 11
153.173850
 21
128.622131
 31
0.0
  0
SPLINE
  5
113
100
AcDbEntity
  8
0
 62
7
100
AcDbSpline
 70
8
 71
3
 72
8
 73
4
 74
0
 40
0
 40
0
 40
0
 40
0
 40
1
 40
1
 40
1
 40
1
 10
206.765883
 20
144.360733
 30
0.0
 10
166.217065
 20
220.584832
 30
0.0
 10
117.341024
 20
311.734279
 30
0.0
 10
93.769873
 20
397.709697
 30
0.0
  0
SPLINE
  5
114
100
AcDbEntity
  8
0
 62
7
100
AcDbSpline
 70
8
 71
3
 72
8
 73
4
 74
0
 40
0
 40
0
 40
0
 40
0
 40
1
 40
1
 40
1
 40
1
 10
93.769873
 20
397.709697
 30
0.0
 10
82.835852
 20
436.882385
 30
0.0
 10
51.497080
 20
445.722484
 30
0.0
 10
66.424028
 20
390.447349
 30
0.0
  0
SPLINE
  5
115
100
AcDbEntity
  8
0
 62
7
100
AcDbSpline
 70
8
 71
3
 72
8
 73
4
 74
0
 40
0
 40
0
 40
0
 40
0
 40
1
 40
1
 40
1
 40
1
 10
66.424028
 20
390.447349
 30
0.0
 10
89.695472
 20
306.284990
 30
0.0
 10
152.030868
 20
215.934655
 30
0.0
 10
206.765883
 20
144.360733
 30
0.0
  0
LINE
  5
116
100
AcDbEntity
  8
0
 62
7
100
AcDbLine
 10
206.765883
 20
144.360733
 30
0.0
 11
206.765883
 21
144.360733
 31
0.0
  0
SPLINE
  5
117
100
AcDbEntity
  8
0
 62
7
100
AcDbSpline
 70
8
 71
3
 72
8
 73
4
 74
0
 40
0
 40
0
 40
0
 40
0
 40
1
 40
1
 40
1
 40
1
 10
248.535127
 20
146.536593
 30
0.0
 10
213.327811
 20
245.510622
 30
0.0
 10
199.850680
 20
430.422827
 30
0.0
 10
191.622861
 20
480.738874
 30
0.0
  0
SPLINE
  5
118
100
AcDbEntity
  8
0
 62
7
100
AcDbSpline
 70
8
 71
3
 72
8
 73
4
 74
0
 40
0
 40
0
 40
0
 40
0
 40
1
 40
1
 40
1
 40
1
 10
191.622861
 20
480.738874
 30
0.0
 10
183.906417
 20
530.683120
 30
0.0
 10
163.842143
 20
520.420611
 30
0.0
 10
164.120364
 20
477.170201
 30
0.0
  0
SPLINE
  5
119
100
AcDbEntity
  8
0
 62
7
100
AcDbSpline
 70
8
 71
3
 72
8
 73
4
 74
0
 40
0
 40
0
 40
0
 40
0
 40
1
 40
1
 40
1
 40
1
 10
164.120364
 20
477.170201
 30
0.0
 10
164.486469
 20
422.311176
 30
0.0
 10
190.238920
 20
242.663673
 30
0.0
 10
248.535127
 20
146.536593
 30
0.0
  0
LINE
  5
11a
100
AcDbEntity
  8
0
 62
7
100
AcDbLine
 10
248.535127
 20
146.536593
 30
0.0
 11
248.535127
 21
146.536593
 31
0.0
  0
SPLINE
  5
11b
100
AcDbEntity
  8
0
 62
7
100
AcDbSpline
 70
8
 71
3
 72
8
 73
4
 74
0
 40
0
 40
0
 40
0
 40
0
 40
1
 40
1
 40
1
 40
1
 10
287.779990
 20
504.847713
 30
0.0
 10
261.490414
 20
363.703734
 30
0.0
 10
272.942177
 20
210.574143
 30
0.0
 10
284.800334
 20
140.832490
 30
0.0
  0
SPLINE
  5
11c
100
AcDbEntity
  8
0
 62
7
100
AcDbSpline
 70
8
 71
3
 72
8
 73
4
 74
0
 40
0
 40
0
 40
0
 40
0
 40
1
 40
1
 40
1
 40
1
 10
284.800334
 20
140.832490
 30
0.0
 10
294.057263
 20
203.319646
 30
0.0
 10
308.878330
 20
400.771021
 30
0.0
 10
320.610036
 20
484.142377
 30
0.0
  0
SPLINE
  5
11d
100
AcDbEntity
  8
0
 62
7
100
AcDbSpline
 70
8
 71
3
 72
8
 73
4
 74
0
 40
0
 40
0
 40
0
 40
0
 40
1
 40
1
 40
1
 40
1
 10
320.610036
 20
484.142377
 30
0.0
 10
327.456552
 20
533.677319
 30
0.0
 10
295.690597
 20
531.273542
 30
0.0
 10
287.779990
 20
504.847713
 30
0.0
  0
LINE
  5
11e
100
AcDbEntity
  8
0
 62
7
100
AcDbLine
 10
287.779990
 20
504.847713
 30
0.0
 11
287.779990
 21
504.847713
 31
0.0
  0
SPLINE
  5
11f
100
AcDbEntity
  8
0
 62
7
100
AcDbSpline
 70
8
 71
3
 72
8
 73
4
 74
0
 40
0
 40
0
 40
0
 40
0
 40
1
 40
1
 40
1
 40
1
 10
312.085625
 20
137.384101
 30
0.0
 10
369.287494
 20
205.849280
 30
0.0
 10
425.937702
 20
358.010845
 30
0.0
 10
440.635814
 20
423.251442
 30
0.0
  0
SPLINE
  5
120
100
AcDbEntity
  8
0
 62
7
100
AcDbSpline
 70
8
 71
3
 72
8
 73
4
 74
0
 40
0
 40
0
 40
0
 40
0
 40
1
 40
1
 40
1
 40
1
 10
440.635814
 20
423.251442
 30
0.0
 10
456.212552
 20
491.424779
 30
0.0
 10
421.220928
 20
478.259425
 30
0.0
 10
410.090535
 20
443.850741
 30
0.0
  0
SPLINE
  5
121
100
AcDbEntity
  8
0
 62
7
100
AcDbSpline
 70
8
 71
3
 72
8
 73
4
 74
0
 40
0
 40
0
 40
0
 40
0
 40
1
 40
1
 40
1
 40
1
 10
410.090535
 20
443.850741
 30
0.0
 10
391.043954
 20
385.815685
 30
0.0
 10
350.653145
 20
228.401132
 30
0.0
 10
312.085625
 20
137.384101
 30
0.0
  0
LINE
  5
122
100
AcDbEntity
  8
0
 62
7
100
AcDbLine
 10
312.085625
 20
137.384101
 30
0.0
 11
312.085625
 21
137.384101
 31
0.0
  0
SPLINE
  5
123
100
AcDbEntity
  8
0
 62
7
100
AcDbSpline
 70
8
 71
3
 72
8
 73
4
 74
0
 40
0
 40
0
 40
0
 40
0
 40
1
 40
1
 40
1
 40
1
 10
345.553510
 20
134.940248
 30
0.0
 10
432.847355
 20
191.108885
 30
0.0
 10
494.854499
 20
296.664508
 30
0.0
 10
519.066591
 20
339.722317
 30
0.0
  0
SPLINE
  5
124
100
AcDbEntity
  8
0
 62
7
100
AcDbSpline
 70
8
 71
3
 72
8
 73
4
 74
0
 40
0
 40
0
 40
0
 40
0
 40
1
 40
1
 40
1
 40
1
 10
519.066591
 20
339.722317
 30
0.0
 10
542.763934
 20
383.162682
 30
0.0
 10
519.134852
 20
403.035714
 30
0.0
 10
494.623825
 20
361.786244
 30
0.0
  0
SPLINE
  5
125
100
AcDbEntity
  8
0
 62
7
100
AcDbSpline
 70
8
 71
3
 72
8
 73
4
 74
0
 40
0
 40
0
 40
0
 40
0
 40
1
 40
1
 40
1
 40
1
 10
494.623825
 20
361.786244
 30
0.0
 10
470.038751
 20
320.999470
 30
0.0
 10
413.851052
 20
207.548618
 30
0.0
 10
345.553510
 20
134.940248
 30
0.0
  0
LINE
  5
126
100
AcDbEntity
  8
0
 62
7
100
AcDbLine
 10
345.553510
 20
134.940248
 30
0.0
 11
345.553510
 21
134.940248
 31
0.0
  0
SPLINE
  5
127
100
AcDbEntity
  8
0
 62
7
100
AcDbSpline
 70
8
 71
3
 72
8
 73
4
 74
0
 40
0
 40
0
 40
0
 40
0
 40
1
 40
1
 40
1
 40
1
 10
378.501926
 20
132.878178
 30
0.0
 10
441.730423
 20
147.876684
 30
0.0
 10
513.074921
 20
196.311305
 30
0.0
 10
539.819221
 20
215.577920
 30
0.0
  0
SPLINE
  5
128
100
AcDbEntity
  8
0
 62
7
100
AcDbSpline
 70
8
 71
3
 72
8
 73
4
 74
0
 40
0
 40
0
 40
0
 40
0
 40
1
 40
1
 40
1
 40
1
 10
539.819221
 20
215.577920
 30
0.0
 10
566.193262
 20
234.323722
 30
0.0
 10
559.990976
 20
255.651092
 30
0.0
 10
532.875783
 20
238.652623
 30
0.0
  0
SPLINE
  5
129
100
AcDbEntity
  8
0
 62
7
100
AcDbSpline
 70
8
 71
3
 72
8
 73
4
 74
0
 40
0
 40
0
 40
0
 40
0
 40
1
 40
1
 40
1
 40
1
 10
532.875783
 20
238.652623
 30
0.0
 10
505.688057
 20
222.097717
 30
0.0
 10
430.759081
 20
156.789914
 30
0.0
 10
378.501926
 20
132.878178
 30
0.0
  0
LINE
  5
12a
100
AcDbEntity
  8
0
 62
7
100
AcDbLine
 10
378.501926
 20
132.878178
 30
0.0
 11
378.501926
 21
132.878178
 31
0.0
  0
SPLINE
  5
12b
100
AcDbEntity
  8
0
 62
7
100
AcDbSpline
 70
8
 71
3
 72
8
 73
4
 74
0
 40
0
 40
0
 40
0
 40
0
 40
1
 40
1
 40
1
 40
1
 10
161.444930
 20
158.364313
 30
0.0
 10
135.605899
 20
177.875968
 30
0.0
 10
54.674618
 20
262.850196
 30
0.0
 10
44.799484
 20
278.925840
 30
0.0
  0
SPLINE
  5
12c
100
AcDbEntity
  8
0
 62
7
100
AcDbSpline
 70
8
 71
3
 72
8
 73
4
 74
0
 40
0
 40
0
 40
0
 40
0
 40
1
 40
1
 40
1
 40
1
 10
44.799484
 20
278.925840
 30
0.0
 10
34.921205
 20
295.000969
 30
0.0
 10
23.400044
 20
276.828343
 30
0.0
 10
54.405615
 20
242.333151
 30
0.0
  0
SPLINE
  5
12d
100
AcDbEntity
  8
0
 62
7
100
AcDbSpline
 70
8
 71
3
 72
8
 73
4
 74
0
 40
0
 40
0
 40
0
 40
0
 40
1
 40
1
 40
1
 40
1
 10
54.405615
 20
242.333151
 30
0.0
 10
85.339454
 20
208.286497
 30
0.0
 10
112.358344
 20
184.315029
 30
0.0
 10
161.444930
 20
158.364313
 30
0.0
  0
LINE
  5
12e
100
AcDbEntity
  8
0
 62
7
100
AcDbLine
 10
161.444930
 20
158.364313
 30
0.0
 11
161.444930
 21
158.364313
 31
0.0
  0
SPLINE
  5
12f
100
AcDbEntity
  8
0
 62
7
100
AcDbSpline
 70
8
 71
3
 72
8
 73
4
 74
0
 40
0
 40
0
 40
0
 40
0
 40
1
 40
1
 40
1
 40
1
 10
357.065844
 20
103.312014
 30
0.0
 10
321.114123
 20
96.037749
 30
0.0
 10
320.387915
 20
89.397723
 30
0.0
 10
293.629836
 20
81.296417
 30
0.0
  0
SPLINE
  5
130
100
AcDbEntity
  8
0
 62
7
100
AcDbSpline
 70
8
 71
3
 72
8
 73
4
 74
0
 40
0
 40
0
 40
0
 40
0
 40
1
 40
1
 40
1
 40
1
 10
293.629836
 20
81.296417
 30
0.0
 10
266.792993
 20
73.657034
 30
0.0
 10
256.933696
 20
78.554785
 30
0.0
 10
239.121199
 20
90.540194
 30
0.0
  0
SPLINE
  5
131
100
AcDbEntity
  8
0
 62
7
100
AcDbSpline
 70
8
 71
3
 72
8
 73
4
 74
0
 40
0
 40
0
 40
0
 40
0
 40
1
 40
1
 40
1
 40
1
 10
239.121199
 20
90.540194
 30
0.0
 10
221.233568
 20
102.975200
 30
0.0
 10
190.674025
 20
134.752649
 30
0.0
 10
197.972778
 20
120.586120
 30
0.0
  0
SPLINE
  5
132
100
AcDbEntity
  8
0
 62
7
100
AcDbSpline
 70
8
 71
3
 72
8
 73
4
 74
0
 40
0
 40
0
 40
0
 40
0
 40
1
 40
1
 40
1
 40
1
 10
197.972778
 20
120.586120
 30
0.0
 10
204.830570
 20
106.341024
 30
0.0
 10
231.496262
 20
73.468188
 30
0.0
 10
244.970545
 20
60.309884
 30
0.0
  0
SPLINE
  5
133
100
AcDbEntity
  8
0
 62
7
100
AcDbSpline
 70
8
 71
3
 72
8
 73
4
 74
0
 40
0
 40
0
 40
0
 40
0
 40
1
 40
1
 40
1
 40
1
 10
244.970545
 20
60.309884
 30
0.0
 10
258.888133
 20
47.225685
 30
0.0
 10
275.220035
 20
41.519440
 30
0.0
 10
293.004490
 20
51.877490
 30
0.0
  0
SPLINE
  5
134
100
AcDbEntity
  8
0
 62
7
100
AcDbSpline
 70
8
 71
3
 72
8
 73
4
 74
0
 40
0
 40
0
 40
0
 40
0
 40
1
 40
1
 40
1
 40
1
 10
293.004490
 20
51.877490
 30
0.0
 10
310.788658
 20
62.227418
 30
0.0
 10
340.391091
 20
88.942947
 30
0.0
 10
357.065844
 20
103.312014
 30
0.0
  0
LINE
  5
135
100
AcDbEntity
  8
0
 62
7
100
AcDbLine
 10
357.065844
 20
103.312014
 30
0.0
 11
357.065844
 21
103.312014
 31
0.0
  0
ENDSEC
  0
SECTION
  2
OBJECTS
  0
DICTIONARY
  5
C
330
0
100
AcDbDictionary
  3
ACAD_GROUP
350
D
  3
ACAD_MLINESTYLE
350
17
  0
DICTIONARY
  5
D
330
C
100
AcDbDictionary
  0
DICTIONARY
  5
1A
330
C
100
AcDbDictionary
  0
DICTIONARY
  5
17
330
C
100
AcDbDictionary
  3
STANDARD
350
18
  0
DICTIONARY
  5
19
330
C
100
AcDbDictionary
  0
ENDSEC
  0
EOF
