  0
SECTION
  2
HEADER
  9
$ACADVER
  1
AC1014
  9
$HANDSEED
  5
FFFF
  9
$MEASUREMENT
 70
     1
  0
ENDSEC
  0
SECTION
  2
TABLES
  0
TABLE
  2
VPORT
  5
8
330
0
100
AcDbSymbolTable
 70
     4
  0
VPORT
  5
2E
330
8
100
AcDbSymbolTableRecord
100
AcDbViewportTableRecord
  2
*ACTIVE
 70
     0
 10
0.0
 20
0.0
 11
1.0
 21
1.0
 12
210.0
 22
148.5
 13
0.0
 23
0.0
 14
10.0
 24
10.0
 15
10.0
 25
10.0
 16
0.0
 26
0.0
 36
1.0
 17
0.0
 27
0.0
 37
0.0
 40
341.0
 41
1.24
 42
50.0
 43
0.0
 44
0.0
 50
0.0
 51
0.0
 71
     0
 72
   100
 73
     1
 74
     3
 75
     0
 76
     0
 77
     0
 78
     0
  0
ENDTAB
  0
TABLE
  2
LTYPE
  5
5
330
0
100
AcDbSymbolTable
 70
     1
  0
LTYPE
  5
14
330
5
100
AcDbSymbolTableRecord
100
AcDbLinetypeTableRecord
  2
BYBLOCK
 70
     0
  3

 72
    65
 73
     0
 40
0.0
  0
LTYPE
  5
15
330
5
100
AcDbSymbolTableRecord
100
AcDbLinetypeTableRecord
  2
BYLAYER
 70
     0
  3

 72
    65
 73
     0
 40
0.0
  0
LTYPE
  5
16
330
5
100
AcDbSymbolTableRecord
100
AcDbLinetypeTableRecord
  2
CONTINUOUS
 70
     0
  3
Solid line
 72
    65
 73
     0
 40
0.0
  0
ENDTAB
  0
TABLE
  2
LAYER
  5
2
100
AcDbSymbolTable
 70
1
  0
LAYER
  5
50
100
AcDbSymbolTableRecord
100
AcDbLayerTableRecord
  2
0
 70
0
  6
CONTINUOUS
  0
ENDTAB
  0
TABLE
  2
STYLE
  5
3
330
0
100
AcDbSymbolTable
 70
     1
  0
STYLE
  5
11
330
3
100
AcDbSymbolTableRecord
100
AcDbTextStyleTableRecord
  2
STANDARD
 70
     0
 40
0.0
 41
1.0
 50
0.0
 71
     0
 42
2.5
  3
txt
  4

  0
ENDTAB
  0
TABLE
  2
VIEW
  5
6
330
0
100
AcDbSymbolTable
 70
     0
  0
ENDTAB
  0
TABLE
  2
UCS
  5
7
330
0
100
AcDbSymbolTable
 70
     0
  0
ENDTAB
  0
TABLE
  2
APPID
  5
9
330
0
100
AcDbSymbolTable
 70
     2
  0
APPID
  5
12
330
9
100
AcDbSymbolTableRecord
100
AcDbRegAppTableRecord
  2
ACAD
 70
     0
  0
ENDTAB
  0
TABLE
  2
DIMSTYLE
  5
A
330
0
100
AcDbSymbolTable
 70
     1
  0
DIMSTYLE
105
27
330
A
100
AcDbSymbolTableRecord
100
AcDbDimStyleTableRecord
  2
ISO-25
 70
     0
  3

  4

  5

  6

  7

 40
1.0
 41
2.5
 42
0.625
 43
3.75
 44
1.25
 45
0.0
 46
0.0
 47
0.0
 48
0.0
140
2.5
141
2.5
142
0.0
143
0.03937007874016
144
1.0
145
0.0
146
1.0
147
0.625
 71
     0
 72
     0
 73
     0
 74
     0
 75
     0
 76
     0
 77
     1
 78
     8
170
     0
171
     3
172
     1
173
     0
174
     0
175
     0
176
     0
177
     0
178
     0
270
     2
271
     2
272
     2
273
     2
274
     3
340
11
275
     0
280
     0
281
     0
282
     0
283
     0
284
     8
285
     0
286
     0
287
     3
288
     0
  0
ENDTAB
  0
TABLE
  2
BLOCK_RECORD
  5
1
330
0
100
AcDbSymbolTable
 70
     1
  0
BLOCK_RECORD
  5
1F
330
1
100
AcDbSymbolTableRecord
100
AcDbBlockTableRecord
  2
*MODEL_SPACE
  0
BLOCK_RECORD
  5
1B
330
1
100
AcDbSymbolTableRecord
100
AcDbBlockTableRecord
  2
*PAPER_SPACE
  0
ENDTAB
  0
ENDSEC
  0
SECTION
  2
BLOCKS
  0
BLOCK
  5
20
330
1F
100
AcDbEntity
  8
0
100
AcDbBlockBegin
  2
*MODEL_SPACE
 70
     0
 10
0.0
 20
0.0
 30
0.0
  3
*MODEL_SPACE
  1

  0
ENDBLK
  5
21
330
1F
100
AcDbEntity
  8
0
100
AcDbBlockEnd
  0
BLOCK
  5
1C
330
1B
100
AcDbEntity
 67
     1
  8
0
100
AcDbBlockBegin
  2
*PAPER_SPACE
  1

  0
ENDBLK
  5
1D
330
1B
100
AcDbEntity
 67
     1
  8
0
100
AcDbBlockEnd
  0
ENDSEC
  0
SECTION
  2
ENTITIES
  0
SPLINE
  5
100
100
AcDbEntity
  8
0
 62
7
100
AcDbSpline
 70
8
 71
3
 72
8
 73
4
 74
0
 40
0
 40
0
 40
0
 40
0
 40
1
 40
1
 40
1
 40
1
 10
291.941978
 20
575.999711
 30
0.0
 10
275.676128
 20
576.012630
 30
0.0
 10
271.967798
 20
577.190100
 30
0.0
 10
252.047287
 20
574.736381
 30
0.0
  0
SPLINE
  5
101
100
AcDbEntity
  8
0
 62
7
100
AcDbSpline
 70
8
 71
3
 72
8
 73
4
 74
0
 40
0
 40
0
 40
0
 40
0
 40
1
 40
1
 40
1
 40
1
 10
252.047287
 20
574.736381
 30
0.0
 10
232.126778
 20
572.282662
 30
0.0
 10
196.696043
 20
564.690495
 30
0.0
 10
172.729560
 20
555.658931
 30
0.0
  0
SPLINE
  5
102
100
AcDbEntity
  8
0
 62
7
100
AcDbSpline
 70
8
 71
3
 72
8
 73
4
 74
0
 40
0
 40
0
 40
0
 40
0
 40
1
 40
1
 40
1
 40
1
 10
172.729560
 20
555.658931
 30
0.0
 10
148.763078
 20
546.627367
 30
0.0
 10
140.261670
 20
538.502171
 30
0.0
 10
131.138400
 20
528.084694
 30
0.0
  0
SPLINE
  5
103
100
AcDbEntity
  8
0
 62
7
100
AcDbSpline
 70
8
 71
3
 72
8
 73
4
 74
0
 40
0
 40
0
 40
0
 40
0
 40
1
 40
1
 40
1
 40
1
 10
131.138400
 20
528.084694
 30
0.0
 10
122.015130
 20
517.667216
 30
0.0
 10
121.419555
 20
514.189435
 30
0.0
 10
120.083685
 20
505.814029
 30
0.0
  0
SPLINE
  5
104
100
AcDbEntity
  8
0
 62
7
100
AcDbSpline
 70
8
 71
3
 72
8
 73
4
 74
0
 40
0
 40
0
 40
0
 40
0
 40
1
 40
1
 40
1
 40
1
 10
120.083685
 20
505.814029
 30
0.0
 10
118.747815
 20
497.438625
 30
0.0
 10
115.540800
 20
491.409390
 30
0.0
 10
111.391987
 20
487.672642
 30
0.0
  0
SPLINE
  5
105
100
AcDbEntity
  8
0
 62
7
100
AcDbSpline
 70
8
 71
3
 72
8
 73
4
 74
0
 40
0
 40
0
 40
0
 40
0
 40
1
 40
1
 40
1
 40
1
 10
111.391987
 20
487.672642
 30
0.0
 10
107.243175
 20
483.935895
 30
0.0
 10
86.011620
 20
472.911592
 30
0.0
 10
81.303127
 20
471.502043
 30
0.0
  0
SPLINE
  5
106
100
AcDbEntity
  8
0
 62
7
100
AcDbSpline
 70
8
 71
3
 72
8
 73
4
 74
0
 40
0
 40
0
 40
0
 40
0
 40
1
 40
1
 40
1
 40
1
 10
81.303127
 20
471.502043
 30
0.0
 10
76.594635
 20
470.092493
 30
0.0
 10
69.118669
 20
466.883378
 30
0.0
 10
57.877423
 20
459.171960
 30
0.0
  0
SPLINE
  5
107
100
AcDbEntity
  8
0
 62
7
100
AcDbSpline
 70
8
 71
3
 72
8
 73
4
 74
0
 40
0
 40
0
 40
0
 40
0
 40
1
 40
1
 40
1
 40
1
 10
57.877423
 20
459.171960
 30
0.0
 10
46.636177
 20
451.460542
 30
0.0
 10
24.791646
 20
414.330158
 30
0.0
 10
16.120228
 20
387.203190
 30
0.0
  0
SPLINE
  5
108
100
AcDbEntity
  8
0
 62
7
100
AcDbSpline
 70
8
 71
3
 72
8
 73
4
 74
0
 40
0
 40
0
 40
0
 40
0
 40
1
 40
1
 40
1
 40
1
 10
16.120228
 20
387.203190
 30
0.0
 10
7.448811
 20
360.076222
 30
0.0
 10
8.078953
 20
357.616980
 30
0.0
 10
3.289631
 20
332.560057
 30
0.0
  0
SPLINE
  5
109
100
AcDbEntity
  8
0
 62
7
100
AcDbSpline
 70
8
 71
3
 72
8
 73
4
 74
0
 40
0
 40
0
 40
0
 40
0
 40
1
 40
1
 40
1
 40
1
 10
3.289631
 20
332.560057
 30
0.0
 10
-1.499691
 20
307.503135
 30
0.0
 10
-0.879660
 20
277.182180
 30
0.0
 10
2.180309
 20
256.173240
 30
0.0
  0
SPLINE
  5
10a
100
AcDbEntity
  8
0
 62
7
100
AcDbSpline
 70
8
 71
3
 72
8
 73
4
 74
0
 40
0
 40
0
 40
0
 40
0
 40
1
 40
1
 40
1
 40
1
 10
2.180309
 20
256.173240
 30
0.0
 10
5.240277
 20
235.164308
 30
0.0
 10
14.111786
 20
206.107522
 30
0.0
 10
19.491508
 20
194.385683
 30
0.0
  0
SPLINE
  5
10b
100
AcDbEntity
  8
0
 62
7
100
AcDbSpline
 70
8
 71
3
 72
8
 73
4
 74
0
 40
0
 40
0
 40
0
 40
0
 40
1
 40
1
 40
1
 40
1
 10
19.491508
 20
194.385683
 30
0.0
 10
24.871231
 20
182.663842
 30
0.0
 10
23.574060
 20
185.419065
 30
0.0
 10
35.207306
 20
183.737633
 30
0.0
  0
SPLINE
  5
10c
100
AcDbEntity
  8
0
 62
7
100
AcDbSpline
 70
8
 71
3
 72
8
 73
4
 74
0
 40
0
 40
0
 40
0
 40
0
 40
1
 40
1
 40
1
 40
1
 10
35.207306
 20
183.737633
 30
0.0
 10
46.840552
 20
182.056208
 30
0.0
 10
53.748208
 20
174.056648
 30
0.0
 10
56.031761
 20
169.164840
 30
0.0
  0
SPLINE
  5
10d
100
AcDbEntity
  8
0
 62
7
100
AcDbSpline
 70
8
 71
3
 72
8
 73
4
 74
0
 40
0
 40
0
 40
0
 40
0
 40
1
 40
1
 40
1
 40
1
 10
56.031761
 20
169.164840
 30
0.0
 10
58.315315
 20
164.273032
 30
0.0
 10
58.281800
 20
166.849665
 30
0.0
 10
59.354915
 20
162.044490
 30
0.0
  0
SPLINE
  5
10e
100
AcDbEntity
  8
0
 62
7
100
AcDbSpline
 70
8
 71
3
 72
8
 73
4
 74
0
 40
0
 40
0
 40
0
 40
0
 40
1
 40
1
 40
1
 40
1
 10
59.354915
 20
162.044490
 30
0.0
 10
60.428030
 20
157.239315
 30
0.0
 10
59.387510
 20
150.455745
 30
0.0
 10
59.415073
 20
140.360970
 30
0.0
  0
SPLINE
  5
10f
100
AcDbEntity
  8
0
 62
7
100
AcDbSpline
 70
8
 71
3
 72
8
 73
4
 74
0
 40
0
 40
0
 40
0
 40
0
 40
1
 40
1
 40
1
 40
1
 10
59.415073
 20
140.360970
 30
0.0
 10
59.442635
 20
130.266195
 30
0.0
 10
59.303805
 20
119.081910
 30
0.0
 10
61.696282
 20
113.318535
 30
0.0
  0
SPLINE
  5
110
100
AcDbEntity
  8
0
 62
7
100
AcDbSpline
 70
8
 71
3
 72
8
 73
4
 74
0
 40
0
 40
0
 40
0
 40
0
 40
1
 40
1
 40
1
 40
1
 10
61.696282
 20
113.318535
 30
0.0
 10
64.088758
 20
107.555160
 30
0.0
 10
68.527002
 20
99.708945
 30
0.0
 10
72.503148
 20
94.173705
 30
0.0
  0
SPLINE
  5
111
100
AcDbEntity
  8
0
 62
7
100
AcDbSpline
 70
8
 71
3
 72
8
 73
4
 74
0
 40
0
 40
0
 40
0
 40
0
 40
1
 40
1
 40
1
 40
1
 10
72.503148
 20
94.173705
 30
0.0
 10
76.479292
 20
88.638473
 30
0.0
 10
97.653247
 20
70.247183
 30
0.0
 10
103.537695
 20
65.944950
 30
0.0
  0
SPLINE
  5
112
100
AcDbEntity
  8
0
 62
7
100
AcDbSpline
 70
8
 71
3
 72
8
 73
4
 74
0
 40
0
 40
0
 40
0
 40
0
 40
1
 40
1
 40
1
 40
1
 10
103.537695
 20
65.944950
 30
0.0
 10
109.422142
 20
61.642718
 30
0.0
 10
106.079670
 20
64.215248
 30
0.0
 10
113.661165
 20
58.218188
 30
0.0
  0
SPLINE
  5
113
100
AcDbEntity
  8
0
 62
7
100
AcDbSpline
 70
8
 71
3
 72
8
 73
4
 74
0
 40
0
 40
0
 40
0
 40
0
 40
1
 40
1
 40
1
 40
1
 10
113.661165
 20
58.218188
 30
0.0
 10
121.242660
 20
52.221128
 30
0.0
 10
175.277062
 20
21.675113
 30
0.0
 10
181.859205
 20
19.555545
 30
0.0
  0
SPLINE
  5
114
100
AcDbEntity
  8
0
 62
7
100
AcDbSpline
 70
8
 71
3
 72
8
 73
4
 74
0
 40
0
 40
0
 40
0
 40
0
 40
1
 40
1
 40
1
 40
1
 10
181.859205
 20
19.555545
 30
0.0
 10
188.441347
 20
17.435978
 30
0.0
 10
184.487460
 20
19.185120
 30
0.0
 10
186.510652
 20
17.596792
 30
0.0
  0
SPLINE
  5
115
100
AcDbEntity
  8
0
 62
7
100
AcDbSpline
 70
8
 71
3
 72
8
 73
4
 74
0
 40
0
 40
0
 40
0
 40
0
 40
1
 40
1
 40
1
 40
1
 10
186.510652
 20
17.596792
 30
0.0
 10
188.533845
 20
16.008465
 30
0.0
 10
216.728670
 20
7.590900
 30
0.0
 10
227.899680
 20
5.346120
 30
0.0
  0
SPLINE
  5
116
100
AcDbEntity
  8
0
 62
7
100
AcDbSpline
 70
8
 71
3
 72
8
 73
4
 74
0
 40
0
 40
0
 40
0
 40
0
 40
1
 40
1
 40
1
 40
1
 10
227.899680
 20
5.346120
 30
0.0
 10
239.070690
 20
3.101340
 30
0.0
 10
237.558435
 20
3.289162
 30
0.0
 10
239.726835
 20
2.711182
 30
0.0
  0
SPLINE
  5
117
100
AcDbEntity
  8
0
 62
7
100
AcDbSpline
 70
8
 71
3
 72
8
 73
4
 74
0
 40
0
 40
0
 40
0
 40
0
 40
1
 40
1
 40
1
 40
1
 10
239.726835
 20
2.711182
 30
0.0
 10
241.895235
 20
2.133203
 30
0.0
 10
247.661692
 20
1.327972
 30
0.0
 10
252.540592
 20
0.923273
 30
0.0
  0
SPLINE
  5
118
100
AcDbEntity
  8
0
 62
7
100
AcDbSpline
 70
8
 71
3
 72
8
 73
4
 74
0
 40
0
 40
0
 40
0
 40
0
 40
1
 40
1
 40
1
 40
1
 10
252.540592
 20
0.923273
 30
0.0
 10
257.419492
 20
0.518573
 30
0.0
 10
260.321962
 20
0.304642
 30
0.0
 10
262.719405
 20
0.047363
 30
0.0
  0
SPLINE
  5
119
100
AcDbEntity
  8
0
 62
7
100
AcDbSpline
 70
8
 71
3
 72
8
 73
4
 74
0
 40
0
 40
0
 40
0
 40
0
 40
1
 40
1
 40
1
 40
1
 10
262.719405
 20
0.047363
 30
0.0
 10
265.116848
 20
-0.209910
 30
0.0
 10
285.860535
 20
1.428615
 30
0.0
 10
295.414328
 20
3.988950
 30
0.0
  0
SPLINE
  5
11a
100
AcDbEntity
  8
0
 62
7
100
AcDbSpline
 70
8
 71
3
 72
8
 73
4
 74
0
 40
0
 40
0
 40
0
 40
0
 40
1
 40
1
 40
1
 40
1
 10
295.414328
 20
3.988950
 30
0.0
 10
304.968120
 20
6.549285
 30
0.0
 10
322.417500
 20
15.868628
 30
0.0
 10
327.738675
 20
21.290513
 30
0.0
  0
SPLINE
  5
11b
100
AcDbEntity
  8
0
 62
7
100
AcDbSpline
 70
8
 71
3
 72
8
 73
4
 74
0
 40
0
 40
0
 40
0
 40
0
 40
1
 40
1
 40
1
 40
1
 10
327.738675
 20
21.290513
 30
0.0
 10
333.059850
 20
26.712398
 30
0.0
 10
334.030230
 20
27.649020
 30
0.0
 10
338.418007
 20
29.529818
 30
0.0
  0
SPLINE
  5
11c
100
AcDbEntity
  8
0
 62
7
100
AcDbSpline
 70
8
 71
3
 72
8
 73
4
 74
0
 40
0
 40
0
 40
0
 40
0
 40
1
 40
1
 40
1
 40
1
 10
338.418007
 20
29.529818
 30
0.0
 10
342.805785
 20
31.410615
 30
0.0
 10
358.778550
 20
32.077080
 30
0.0
 10
369.522337
 20
29.421533
 30
0.0
  0
SPLINE
  5
11d
100
AcDbEntity
  8
0
 62
7
100
AcDbSpline
 70
8
 71
3
 72
8
 73
4
 74
0
 40
0
 40
0
 40
0
 40
0
 40
1
 40
1
 40
1
 40
1
 10
369.522337
 20
29.421533
 30
0.0
 10
380.266125
 20
26.765985
 30
0.0
 10
394.782458
 20
25.769228
 30
0.0
 10
404.065327
 20
27.385770
 30
0.0
  0
SPLINE
  5
11e
100
AcDbEntity
  8
0
 62
7
100
AcDbSpline
 70
8
 71
3
 72
8
 73
4
 74
0
 40
0
 40
0
 40
0
 40
0
 40
1
 40
1
 40
1
 40
1
 10
404.065327
 20
27.385770
 30
0.0
 10
413.348197
 20
29.002313
 30
0.0
 10
430.034512
 20
35.734043
 30
0.0
 10
434.390010
 20
38.353860
 30
0.0
  0
SPLINE
  5
11f
100
AcDbEntity
  8
0
 62
7
100
AcDbSpline
 70
8
 71
3
 72
8
 73
4
 74
0
 40
0
 40
0
 40
0
 40
0
 40
1
 40
1
 40
1
 40
1
 10
434.390010
 20
38.353860
 30
0.0
 10
438.745507
 20
40.973678
 30
0.0
 10
437.312002
 20
40.084260
 30
0.0
 10
440.903970
 20
42.175133
 30
0.0
  0
SPLINE
  5
120
100
AcDbEntity
  8
0
 62
7
100
AcDbSpline
 70
8
 71
3
 72
8
 73
4
 74
0
 40
0
 40
0
 40
0
 40
0
 40
1
 40
1
 40
1
 40
1
 10
440.903970
 20
42.175133
 30
0.0
 10
444.495937
 20
44.266005
 30
0.0
 10
450.987307
 20
48.409545
 30
0.0
 10
463.643865
 20
56.880263
 30
0.0
  0
SPLINE
  5
121
100
AcDbEntity
  8
0
 62
7
100
AcDbSpline
 70
8
 71
3
 72
8
 73
4
 74
0
 40
0
 40
0
 40
0
 40
0
 40
1
 40
1
 40
1
 40
1
 10
463.643865
 20
56.880263
 30
0.0
 10
476.300422
 20
65.350980
 30
0.0
 10
513.405982
 20
107.131920
 30
0.0
 10
527.616382
 20
128.134365
 30
0.0
  0
SPLINE
  5
122
100
AcDbEntity
  8
0
 62
7
100
AcDbSpline
 70
8
 71
3
 72
8
 73
4
 74
0
 40
0
 40
0
 40
0
 40
0
 40
1
 40
1
 40
1
 40
1
 10
527.616382
 20
128.134365
 30
0.0
 10
541.826782
 20
149.136810
 30
0.0
 10
558.150375
 20
185.385885
 30
0.0
 10
559.206802
 20
191.452358
 30
0.0
  0
SPLINE
  5
123
100
AcDbEntity
  8
0
 62
7
100
AcDbSpline
 70
8
 71
3
 72
8
 73
4
 74
0
 40
0
 40
0
 40
0
 40
0
 40
1
 40
1
 40
1
 40
1
 10
559.206802
 20
191.452358
 30
0.0
 10
560.263230
 20
197.518830
 30
0.0
 10
559.323367
 20
192.839850
 30
0.0
 10
562.303755
 20
204.918217
 30
0.0
  0
SPLINE
  5
124
100
AcDbEntity
  8
0
 62
7
100
AcDbSpline
 70
8
 71
3
 72
8
 73
4
 74
0
 40
0
 40
0
 40
0
 40
0
 40
1
 40
1
 40
1
 40
1
 10
562.303755
 20
204.918217
 30
0.0
 10
565.284142
 20
216.996585
 30
0.0
 10
564.164985
 20
244.989712
 30
0.0
 10
558.528217
 20
253.215847
 30
0.0
  0
SPLINE
  5
125
100
AcDbEntity
  8
0
 62
7
100
AcDbSpline
 70
8
 71
3
 72
8
 73
4
 74
0
 40
0
 40
0
 40
0
 40
0
 40
1
 40
1
 40
1
 40
1
 10
558.528217
 20
253.215847
 30
0.0
 10
552.891450
 20
261.441982
 30
0.0
 10
552.172582
 20
265.548487
 30
0.0
 10
552.264510
 20
272.435280
 30
0.0
  0
SPLINE
  5
126
100
AcDbEntity
  8
0
 62
7
100
AcDbSpline
 70
8
 71
3
 72
8
 73
4
 74
0
 40
0
 40
0
 40
0
 40
0
 40
1
 40
1
 40
1
 40
1
 10
552.264510
 20
272.435280
 30
0.0
 10
552.356437
 20
279.322072
 30
0.0
 10
557.191102
 20
291.987638
 30
0.0
 10
562.544392
 20
304.468462
 30
0.0
  0
SPLINE
  5
127
100
AcDbEntity
  8
0
 62
7
100
AcDbSpline
 70
8
 71
3
 72
8
 73
4
 74
0
 40
0
 40
0
 40
0
 40
0
 40
1
 40
1
 40
1
 40
1
 10
562.544392
 20
304.468462
 30
0.0
 10
567.897682
 20
316.949287
 30
0.0
 10
566.164080
 20
313.745760
 30
0.0
 10
568.983750
 20
330.930960
 30
0.0
  0
SPLINE
  5
128
100
AcDbEntity
  8
0
 62
7
100
AcDbSpline
 70
8
 71
3
 72
8
 73
4
 74
0
 40
0
 40
0
 40
0
 40
0
 40
1
 40
1
 40
1
 40
1
 10
568.983750
 20
330.930960
 30
0.0
 10
571.803420
 20
348.116160
 30
0.0
 10
565.352880
 20
380.594670
 30
0.0
 10
555.837922
 20
402.045480
 30
0.0
  0
SPLINE
  5
129
100
AcDbEntity
  8
0
 62
7
100
AcDbSpline
 70
8
 71
3
 72
8
 73
4
 74
0
 40
0
 40
0
 40
0
 40
0
 40
1
 40
1
 40
1
 40
1
 10
555.837922
 20
402.045480
 30
0.0
 10
546.322965
 20
423.496290
 30
0.0
 10
542.013615
 20
431.597887
 30
0.0
 10
539.409855
 20
434.692282
 30
0.0
  0
SPLINE
  5
12a
100
AcDbEntity
  8
0
 62
7
100
AcDbSpline
 70
8
 71
3
 72
8
 73
4
 74
0
 40
0
 40
0
 40
0
 40
0
 40
1
 40
1
 40
1
 40
1
 10
539.409855
 20
434.692282
 30
0.0
 10
536.806095
 20
437.786677
 30
0.0
 10
517.614690
 20
464.469825
 30
0.0
 10
507.968632
 20
478.834155
 30
0.0
  0
SPLINE
  5
12b
100
AcDbEntity
  8
0
 62
7
100
AcDbSpline
 70
8
 71
3
 72
8
 73
4
 74
0
 40
0
 40
0
 40
0
 40
0
 40
1
 40
1
 40
1
 40
1
 10
507.968632
 20
478.834155
 30
0.0
 10
498.322575
 20
493.198485
 30
0.0
 10
478.539622
 20
502.064216
 30
0.0
 10
475.119705
 20
502.721884
 30
0.0
  0
SPLINE
  5
12c
100
AcDbEntity
  8
0
 62
7
100
AcDbSpline
 70
8
 71
3
 72
8
 73
4
 74
0
 40
0
 40
0
 40
0
 40
0
 40
1
 40
1
 40
1
 40
1
 10
475.119705
 20
502.721884
 30
0.0
 10
471.699787
 20
503.379551
 30
0.0
 10
467.916262
 20
504.055579
 30
0.0
 10
455.086927
 20
504.512201
 30
0.0
  0
SPLINE
  5
12d
100
AcDbEntity
  8
0
 62
7
100
AcDbSpline
 70
8
 71
3
 72
8
 73
4
 74
0
 40
0
 40
0
 40
0
 40
0
 40
1
 40
1
 40
1
 40
1
 10
455.086927
 20
504.512201
 30
0.0
 10
442.257592
 20
504.968824
 30
0.0
 10
440.699550
 20
504.539231
 30
0.0
 10
434.883307
 20
507.924386
 30
0.0
  0
SPLINE
  5
12e
100
AcDbEntity
  8
0
 62
7
100
AcDbSpline
 70
8
 71
3
 72
8
 73
4
 74
0
 40
0
 40
0
 40
0
 40
0
 40
1
 40
1
 40
1
 40
1
 10
434.883307
 20
507.924386
 30
0.0
 10
429.067065
 20
511.309541
 30
0.0
 10
416.137425
 20
523.117252
 30
0.0
 10
412.184310
 20
530.464564
 30
0.0
  0
SPLINE
  5
12f
100
AcDbEntity
  8
0
 62
7
100
AcDbSpline
 70
8
 71
3
 72
8
 73
4
 74
0
 40
0
 40
0
 40
0
 40
0
 40
1
 40
1
 40
1
 40
1
 10
412.184310
 20
530.464564
 30
0.0
 10
408.231195
 20
537.811875
 30
0.0
 10
398.708497
 20
552.061770
 30
0.0
 10
394.957335
 20
555.812936
 30
0.0
  0
SPLINE
  5
130
100
AcDbEntity
  8
0
 62
7
100
AcDbSpline
 70
8
 71
3
 72
8
 73
4
 74
0
 40
0
 40
0
 40
0
 40
0
 40
1
 40
1
 40
1
 40
1
 10
394.957335
 20
555.812936
 30
0.0
 10
391.206173
 20
559.564102
 30
0.0
 10
379.216133
 20
565.401004
 30
0.0
 10
373.129447
 20
567.247856
 30
0.0
  0
SPLINE
  5
131
100
AcDbEntity
  8
0
 62
7
100
AcDbSpline
 70
8
 71
3
 72
8
 73
4
 74
0
 40
0
 40
0
 40
0
 40
0
 40
1
 40
1
 40
1
 40
1
 10
373.129447
 20
567.247856
 30
0.0
 10
367.042762
 20
569.094709
 30
0.0
 10
352.850903
 20
571.155052
 30
0.0
 10
343.218652
 20
572.544206
 30
0.0
  0
SPLINE
  5
132
100
AcDbEntity
  8
0
 62
7
100
AcDbSpline
 70
8
 71
3
 72
8
 73
4
 74
0
 40
0
 40
0
 40
0
 40
0
 40
1
 40
1
 40
1
 40
1
 10
343.218652
 20
572.544206
 30
0.0
 10
333.586395
 20
573.933360
 30
0.0
 10
334.260885
 20
573.888648
 30
0.0
 10
329.418300
 20
574.673816
 30
0.0
  0
SPLINE
  5
133
100
AcDbEntity
  8
0
 62
7
100
AcDbSpline
 70
8
 71
3
 72
8
 73
4
 74
0
 40
0
 40
0
 40
0
 40
0
 40
1
 40
1
 40
1
 40
1
 10
329.418300
 20
574.673816
 30
0.0
 10
324.575715
 20
575.458983
 30
0.0
 10
308.207828
 20
575.986792
 30
0.0
 10
291.941978
 20
575.999711
 30
0.0
  0
LINE
  5
134
100
AcDbEntity
  8
0
 62
7
100
AcDbLine
 10
291.941978
 20
575.999711
 30
0.0
 11
291.941978
 21
575.999711
 31
0.0
  0
SPLINE
  5
135
100
AcDbEntity
  8
0
 62
7
100
AcDbSpline
 70
8
 71
3
 72
8
 73
4
 74
0
 40
0
 40
0
 40
0
 40
0
 40
1
 40
1
 40
1
 40
1
 10
252.593527
 20
549.104059
 30
0.0
 10
253.551262
 20
549.017681
 30
0.0
 10
253.723995
 20
548.845211
 30
0.0
 10
256.284862
 20
547.518281
 30
0.0
  0
SPLINE
  5
136
100
AcDbEntity
  8
0
 62
7
100
AcDbSpline
 70
8
 71
3
 72
8
 73
4
 74
0
 40
0
 40
0
 40
0
 40
0
 40
1
 40
1
 40
1
 40
1
 10
256.284862
 20
547.518281
 30
0.0
 10
258.845730
 20
546.191351
 30
0.0
 10
263.324512
 20
539.342752
 30
0.0
 10
265.575727
 20
534.358016
 30
0.0
  0
SPLINE
  5
137
100
AcDbEntity
  8
0
 62
7
100
AcDbSpline
 70
8
 71
3
 72
8
 73
4
 74
0
 40
0
 40
0
 40
0
 40
0
 40
1
 40
1
 40
1
 40
1
 10
265.575727
 20
534.358016
 30
0.0
 10
267.826942
 20
529.373280
 30
0.0
 10
269.318985
 20
523.644671
 30
0.0
 10
269.445127
 20
518.103199
 30
0.0
  0
SPLINE
  5
138
100
AcDbEntity
  8
0
 62
7
100
AcDbSpline
 70
8
 71
3
 72
8
 73
4
 74
0
 40
0
 40
0
 40
0
 40
0
 40
1
 40
1
 40
1
 40
1
 10
269.445127
 20
518.103199
 30
0.0
 10
269.571270
 20
512.561726
 30
0.0
 10
268.972822
 20
504.626395
 30
0.0
 10
266.348160
 20
501.848381
 30
0.0
  0
SPLINE
  5
139
100
AcDbEntity
  8
0
 62
7
100
AcDbSpline
 70
8
 71
3
 72
8
 73
4
 74
0
 40
0
 40
0
 40
0
 40
0
 40
1
 40
1
 40
1
 40
1
 10
266.348160
 20
501.848381
 30
0.0
 10
263.723497
 20
499.070370
 30
0.0
 10
262.873297
 20
499.622595
 30
0.0
 10
260.156647
 20
500.298698
 30
0.0
  0
SPLINE
  5
13a
100
AcDbEntity
  8
0
 62
7
100
AcDbSpline
 70
8
 71
3
 72
8
 73
4
 74
0
 40
0
 40
0
 40
0
 40
0
 40
1
 40
1
 40
1
 40
1
 10
260.156647
 20
500.298698
 30
0.0
 10
257.439997
 20
500.974800
 30
0.0
 10
254.664607
 20
504.402450
 30
0.0
 10
252.415462
 20
507.265054
 30
0.0
  0
SPLINE
  5
13b
100
AcDbEntity
  8
0
 62
7
100
AcDbSpline
 70
8
 71
3
 72
8
 73
4
 74
0
 40
0
 40
0
 40
0
 40
0
 40
1
 40
1
 40
1
 40
1
 10
252.415462
 20
507.265054
 30
0.0
 10
250.166317
 20
510.127657
 30
0.0
 10
248.061292
 20
513.104494
 30
0.0
 10
246.996382
 20
517.328359
 30
0.0
  0
SPLINE
  5
13c
100
AcDbEntity
  8
0
 62
7
100
AcDbSpline
 70
8
 71
3
 72
8
 73
4
 74
0
 40
0
 40
0
 40
0
 40
0
 40
1
 40
1
 40
1
 40
1
 10
246.996382
 20
517.328359
 30
0.0
 10
245.931472
 20
521.552224
 30
0.0
 10
246.620017
 20
526.989622
 30
0.0
 10
246.996382
 20
532.035904
 30
0.0
  0
SPLINE
  5
13d
100
AcDbEntity
  8
0
 62
7
100
AcDbSpline
 70
8
 71
3
 72
8
 73
4
 74
0
 40
0
 40
0
 40
0
 40
0
 40
1
 40
1
 40
1
 40
1
 10
246.996382
 20
532.035904
 30
0.0
 10
247.372747
 20
537.082185
 30
0.0
 10
247.175895
 20
545.673086
 30
0.0
 10
249.318510
 20
547.518281
 30
0.0
  0
SPLINE
  5
13e
100
AcDbEntity
  8
0
 62
7
100
AcDbSpline
 70
8
 71
3
 72
8
 73
4
 74
0
 40
0
 40
0
 40
0
 40
0
 40
1
 40
1
 40
1
 40
1
 10
249.318510
 20
547.518281
 30
0.0
 10
251.461125
 20
549.363476
 30
0.0
 10
251.635792
 20
549.190436
 30
0.0
 10
252.593527
 20
549.104059
 30
0.0
  0
LINE
  5
13f
100
AcDbEntity
  8
0
 62
7
100
AcDbLine
 10
252.593527
 20
549.104059
 30
0.0
 11
252.593527
 21
549.104059
 31
0.0
  0
SPLINE
  5
140
100
AcDbEntity
  8
0
 62
7
100
AcDbSpline
 70
8
 71
3
 72
8
 73
4
 74
0
 40
0
 40
0
 40
0
 40
0
 40
1
 40
1
 40
1
 40
1
 10
256.409985
 20
485.928045
 30
0.0
 10
257.311703
 20
485.991645
 30
0.0
 10
258.068438
 20
485.521613
 30
0.0
 10
259.381815
 20
484.818720
 30
0.0
  0
SPLINE
  5
141
100
AcDbEntity
  8
0
 62
7
100
AcDbSpline
 70
8
 71
3
 72
8
 73
4
 74
0
 40
0
 40
0
 40
0
 40
0
 40
1
 40
1
 40
1
 40
1
 10
259.381815
 20
484.818720
 30
0.0
 10
260.695193
 20
484.115828
 30
0.0
 10
261.787087
 20
483.104505
 30
0.0
 10
262.478775
 20
480.174487
 30
0.0
  0
SPLINE
  5
142
100
AcDbEntity
  8
0
 62
7
100
AcDbSpline
 70
8
 71
3
 72
8
 73
4
 74
0
 40
0
 40
0
 40
0
 40
0
 40
1
 40
1
 40
1
 40
1
 10
262.478775
 20
480.174487
 30
0.0
 10
263.170462
 20
477.244470
 30
0.0
 10
261.852390
 20
475.527435
 30
0.0
 10
260.929095
 20
467.789062
 30
0.0
  0
SPLINE
  5
143
100
AcDbEntity
  8
0
 62
7
100
AcDbSpline
 70
8
 71
3
 72
8
 73
4
 74
0
 40
0
 40
0
 40
0
 40
0
 40
1
 40
1
 40
1
 40
1
 10
260.929095
 20
467.789062
 30
0.0
 10
260.005800
 20
460.050690
 30
0.0
 10
257.626103
 20
445.881427
 30
0.0
 10
257.059695
 20
433.729748
 30
0.0
  0
SPLINE
  5
144
100
AcDbEntity
  8
0
 62
7
100
AcDbSpline
 70
8
 71
3
 72
8
 73
4
 74
0
 40
0
 40
0
 40
0
 40
0
 40
1
 40
1
 40
1
 40
1
 10
257.059695
 20
433.729748
 30
0.0
 10
256.493288
 20
421.578067
 30
0.0
 10
256.558252
 20
408.097110
 30
0.0
 10
257.834542
 20
395.026200
 30
0.0
  0
SPLINE
  5
145
100
AcDbEntity
  8
0
 62
7
100
AcDbSpline
 70
8
 71
3
 72
8
 73
4
 74
0
 40
0
 40
0
 40
0
 40
0
 40
1
 40
1
 40
1
 40
1
 10
257.834542
 20
395.026200
 30
0.0
 10
259.110833
 20
381.955290
 30
0.0
 10
264.026805
 20
364.390800
 30
0.0
 10
264.800880
 20
355.550205
 30
0.0
  0
SPLINE
  5
146
100
AcDbEntity
  8
0
 62
7
100
AcDbSpline
 70
8
 71
3
 72
8
 73
4
 74
0
 40
0
 40
0
 40
0
 40
0
 40
1
 40
1
 40
1
 40
1
 10
264.800880
 20
355.550205
 30
0.0
 10
265.574955
 20
346.709610
 30
0.0
 10
265.800278
 20
345.239002
 30
0.0
 10
264.800880
 20
342.389940
 30
0.0
  0
SPLINE
  5
147
100
AcDbEntity
  8
0
 62
7
100
AcDbSpline
 70
8
 71
3
 72
8
 73
4
 74
0
 40
0
 40
0
 40
0
 40
0
 40
1
 40
1
 40
1
 40
1
 10
264.800880
 20
342.389940
 30
0.0
 10
263.801483
 20
339.540878
 30
0.0
 10
264.350437
 20
338.667135
 30
0.0
 10
261.703928
 20
338.520555
 30
0.0
  0
SPLINE
  5
148
100
AcDbEntity
  8
0
 62
7
100
AcDbSpline
 70
8
 71
3
 72
8
 73
4
 74
0
 40
0
 40
0
 40
0
 40
0
 40
1
 40
1
 40
1
 40
1
 10
261.703928
 20
338.520555
 30
0.0
 10
259.057418
 20
338.373975
 30
0.0
 10
257.559683
 20
341.268848
 30
0.0
 10
253.962743
 20
346.259340
 30
0.0
  0
SPLINE
  5
149
100
AcDbEntity
  8
0
 62
7
100
AcDbSpline
 70
8
 71
3
 72
8
 73
4
 74
0
 40
0
 40
0
 40
0
 40
0
 40
1
 40
1
 40
1
 40
1
 10
253.962743
 20
346.259340
 30
0.0
 10
250.365803
 20
351.249833
 30
0.0
 10
245.483880
 20
360.285075
 30
0.0
 10
242.352150
 20
369.482917
 30
0.0
  0
SPLINE
  5
14a
100
AcDbEntity
  8
0
 62
7
100
AcDbSpline
 70
8
 71
3
 72
8
 73
4
 74
0
 40
0
 40
0
 40
0
 40
0
 40
1
 40
1
 40
1
 40
1
 10
242.352150
 20
369.482917
 30
0.0
 10
239.220420
 20
378.680760
 30
0.0
 10
236.518590
 20
389.067090
 30
0.0
 10
236.160645
 20
401.220113
 30
0.0
  0
SPLINE
  5
14b
100
AcDbEntity
  8
0
 62
7
100
AcDbSpline
 70
8
 71
3
 72
8
 73
4
 74
0
 40
0
 40
0
 40
0
 40
0
 40
1
 40
1
 40
1
 40
1
 10
236.160645
 20
401.220113
 30
0.0
 10
235.802700
 20
413.373135
 30
0.0
 10
239.130375
 20
429.853545
 30
0.0
 10
241.579725
 20
441.470933
 30
0.0
  0
SPLINE
  5
14c
100
AcDbEntity
  8
0
 62
7
100
AcDbSpline
 70
8
 71
3
 72
8
 73
4
 74
0
 40
0
 40
0
 40
0
 40
0
 40
1
 40
1
 40
1
 40
1
 10
241.579725
 20
441.470933
 30
0.0
 10
244.029075
 20
453.088320
 30
0.0
 10
248.043158
 20
463.657320
 30
0.0
 10
250.093343
 20
470.886022
 30
0.0
  0
SPLINE
  5
14d
100
AcDbEntity
  8
0
 62
7
100
AcDbSpline
 70
8
 71
3
 72
8
 73
4
 74
0
 40
0
 40
0
 40
0
 40
0
 40
1
 40
1
 40
1
 40
1
 10
250.093343
 20
470.886022
 30
0.0
 10
252.143528
 20
478.114725
 30
0.0
 10
252.149295
 20
483.440348
 30
0.0
 10
253.962743
 20
484.818720
 30
0.0
  0
SPLINE
  5
14e
100
AcDbEntity
  8
0
 62
7
100
AcDbSpline
 70
8
 71
3
 72
8
 73
4
 74
0
 40
0
 40
0
 40
0
 40
0
 40
1
 40
1
 40
1
 40
1
 10
253.962743
 20
484.818720
 30
0.0
 10
255.776190
 20
486.197092
 30
0.0
 10
255.508268
 20
485.864430
 30
0.0
 10
256.409985
 20
485.928045
 30
0.0
  0
LINE
  5
14f
100
AcDbEntity
  8
0
 62
7
100
AcDbLine
 10
256.409985
 20
485.928045
 30
0.0
 11
256.409985
 21
485.928045
 31
0.0
  0
SPLINE
  5
150
100
AcDbEntity
  8
0
 62
7
100
AcDbSpline
 70
8
 71
3
 72
8
 73
4
 74
0
 40
0
 40
0
 40
0
 40
0
 40
1
 40
1
 40
1
 40
1
 10
272.296635
 20
485.834198
 30
0.0
 10
273.112395
 20
485.821523
 30
0.0
 10
274.246643
 20
485.341470
 30
0.0
 10
277.186312
 20
482.496607
 30
0.0
  0
SPLINE
  5
151
100
AcDbEntity
  8
0
 62
7
100
AcDbSpline
 70
8
 71
3
 72
8
 73
4
 74
0
 40
0
 40
0
 40
0
 40
0
 40
1
 40
1
 40
1
 40
1
 10
277.186312
 20
482.496607
 30
0.0
 10
280.125982
 20
479.651745
 30
0.0
 10
283.080540
 20
472.026398
 30
0.0
 10
287.249625
 20
463.917255
 30
0.0
  0
SPLINE
  5
152
100
AcDbEntity
  8
0
 62
7
100
AcDbSpline
 70
8
 71
3
 72
8
 73
4
 74
0
 40
0
 40
0
 40
0
 40
0
 40
1
 40
1
 40
1
 40
1
 10
287.249625
 20
463.917255
 30
0.0
 10
291.418710
 20
455.808112
 30
0.0
 10
297.705862
 20
445.231845
 30
0.0
 10
301.954763
 20
433.729748
 30
0.0
  0
SPLINE
  5
153
100
AcDbEntity
  8
0
 62
7
100
AcDbSpline
 70
8
 71
3
 72
8
 73
4
 74
0
 40
0
 40
0
 40
0
 40
0
 40
1
 40
1
 40
1
 40
1
 10
301.954763
 20
433.729748
 30
0.0
 10
306.203663
 20
422.227650
 30
0.0
 10
311.053972
 20
407.095755
 30
0.0
 10
312.018060
 20
395.026200
 30
0.0
  0
SPLINE
  5
154
100
AcDbEntity
  8
0
 62
7
100
AcDbSpline
 70
8
 71
3
 72
8
 73
4
 74
0
 40
0
 40
0
 40
0
 40
0
 40
1
 40
1
 40
1
 40
1
 10
312.018060
 20
395.026200
 30
0.0
 10
312.982148
 20
382.956645
 30
0.0
 10
310.785773
 20
370.772198
 30
0.0
 10
308.923508
 20
362.516565
 30
0.0
  0
SPLINE
  5
155
100
AcDbEntity
  8
0
 62
7
100
AcDbSpline
 70
8
 71
3
 72
8
 73
4
 74
0
 40
0
 40
0
 40
0
 40
0
 40
1
 40
1
 40
1
 40
1
 10
308.923508
 20
362.516565
 30
0.0
 10
307.061242
 20
354.260932
 30
0.0
 10
305.942917
 20
347.737605
 30
0.0
 10
302.729595
 20
345.486900
 30
0.0
  0
SPLINE
  5
156
100
AcDbEntity
  8
0
 62
7
100
AcDbSpline
 70
8
 71
3
 72
8
 73
4
 74
0
 40
0
 40
0
 40
0
 40
0
 40
1
 40
1
 40
1
 40
1
 10
302.729595
 20
345.486900
 30
0.0
 10
299.516273
 20
343.236195
 30
0.0
 10
299.381745
 20
344.547045
 30
0.0
 10
297.310522
 20
345.486900
 30
0.0
  0
SPLINE
  5
157
100
AcDbEntity
  8
0
 62
7
100
AcDbSpline
 70
8
 71
3
 72
8
 73
4
 74
0
 40
0
 40
0
 40
0
 40
0
 40
1
 40
1
 40
1
 40
1
 10
297.310522
 20
345.486900
 30
0.0
 10
295.239300
 20
346.426755
 30
0.0
 10
293.601390
 20
347.133900
 30
0.0
 10
291.893857
 20
351.678405
 30
0.0
  0
SPLINE
  5
158
100
AcDbEntity
  8
0
 62
7
100
AcDbSpline
 70
8
 71
3
 72
8
 73
4
 74
0
 40
0
 40
0
 40
0
 40
0
 40
1
 40
1
 40
1
 40
1
 10
291.893857
 20
351.678405
 30
0.0
 10
290.186325
 20
356.222910
 30
0.0
 10
292.418430
 20
363.524482
 30
0.0
 10
291.893857
 20
372.577455
 30
0.0
  0
SPLINE
  5
159
100
AcDbEntity
  8
0
 62
7
100
AcDbSpline
 70
8
 71
3
 72
8
 73
4
 74
0
 40
0
 40
0
 40
0
 40
0
 40
1
 40
1
 40
1
 40
1
 10
291.893857
 20
372.577455
 30
0.0
 10
291.369285
 20
381.630427
 30
0.0
 10
289.820985
 20
394.628573
 30
0.0
 10
288.022057
 20
405.864345
 30
0.0
  0
SPLINE
  5
15a
100
AcDbEntity
  8
0
 62
7
100
AcDbSpline
 70
8
 71
3
 72
8
 73
4
 74
0
 40
0
 40
0
 40
0
 40
0
 40
1
 40
1
 40
1
 40
1
 10
288.022057
 20
405.864345
 30
0.0
 10
286.223130
 20
417.100118
 30
0.0
 10
283.785345
 20
429.077857
 30
0.0
 10
281.055698
 20
439.921253
 30
0.0
  0
SPLINE
  5
15b
100
AcDbEntity
  8
0
 62
7
100
AcDbSpline
 70
8
 71
3
 72
8
 73
4
 74
0
 40
0
 40
0
 40
0
 40
0
 40
1
 40
1
 40
1
 40
1
 10
281.055698
 20
439.921253
 30
0.0
 10
278.326050
 20
450.764648
 30
0.0
 10
273.843660
 20
464.052098
 30
0.0
 10
271.767240
 20
470.886023
 30
0.0
  0
SPLINE
  5
15c
100
AcDbEntity
  8
0
 62
7
100
AcDbSpline
 70
8
 71
3
 72
8
 73
4
 74
0
 40
0
 40
0
 40
0
 40
0
 40
1
 40
1
 40
1
 40
1
 10
271.767240
 20
470.886023
 30
0.0
 10
269.690820
 20
477.719947
 30
0.0
 10
268.454175
 20
478.335667
 30
0.0
 10
268.670280
 20
480.946920
 30
0.0
  0
SPLINE
  5
15d
100
AcDbEntity
  8
0
 62
7
100
AcDbSpline
 70
8
 71
3
 72
8
 73
4
 74
0
 40
0
 40
0
 40
0
 40
0
 40
1
 40
1
 40
1
 40
1
 10
268.670280
 20
480.946920
 30
0.0
 10
268.886385
 20
483.558173
 30
0.0
 10
269.795070
 20
485.192048
 30
0.0
 10
270.992400
 20
485.591153
 30
0.0
  0
SPLINE
  5
15e
100
AcDbEntity
  8
0
 62
7
100
AcDbSpline
 70
8
 71
3
 72
8
 73
4
 74
0
 40
0
 40
0
 40
0
 40
0
 40
1
 40
1
 40
1
 40
1
 10
270.992400
 20
485.591153
 30
0.0
 10
272.189730
 20
485.990257
 30
0.0
 10
271.480875
 20
485.846858
 30
0.0
 10
272.296635
 20
485.834198
 30
0.0
  0
LINE
  5
15f
100
AcDbEntity
  8
0
 62
7
100
AcDbLine
 10
272.296635
 20
485.834198
 30
0.0
 11
272.296635
 21
485.834198
 31
0.0
  0
SPLINE
  5
160
100
AcDbEntity
  8
0
 62
7
100
AcDbSpline
 70
8
 71
3
 72
8
 73
4
 74
0
 40
0
 40
0
 40
0
 40
0
 40
1
 40
1
 40
1
 40
1
 10
503.488027
 20
391.207342
 30
0.0
 10
504.708180
 20
391.177568
 30
0.0
 10
507.647647
 20
390.961335
 30
0.0
 10
509.405213
 20
388.834687
 30
0.0
  0
SPLINE
  5
161
100
AcDbEntity
  8
0
 62
7
100
AcDbSpline
 70
8
 71
3
 72
8
 73
4
 74
0
 40
0
 40
0
 40
0
 40
0
 40
1
 40
1
 40
1
 40
1
 10
509.405213
 20
388.834687
 30
0.0
 10
511.162778
 20
386.708040
 30
0.0
 10
510.711960
 20
382.088250
 30
0.0
 10
510.180060
 20
378.771382
 30
0.0
  0
SPLINE
  5
162
100
AcDbEntity
  8
0
 62
7
100
AcDbSpline
 70
8
 71
3
 72
8
 73
4
 74
0
 40
0
 40
0
 40
0
 40
0
 40
1
 40
1
 40
1
 40
1
 10
510.180060
 20
378.771382
 30
0.0
 10
509.648160
 20
375.454515
 30
0.0
 10
509.755335
 20
372.983272
 30
0.0
 10
506.308252
 20
369.482917
 30
0.0
  0
SPLINE
  5
163
100
AcDbEntity
  8
0
 62
7
100
AcDbSpline
 70
8
 71
3
 72
8
 73
4
 74
0
 40
0
 40
0
 40
0
 40
0
 40
1
 40
1
 40
1
 40
1
 10
506.308252
 20
369.482917
 30
0.0
 10
502.861170
 20
365.982562
 30
0.0
 10
492.990892
 20
364.014735
 30
0.0
 10
488.506162
 20
361.741717
 30
0.0
  0
SPLINE
  5
164
100
AcDbEntity
  8
0
 62
7
100
AcDbSpline
 70
8
 71
3
 72
8
 73
4
 74
0
 40
0
 40
0
 40
0
 40
0
 40
1
 40
1
 40
1
 40
1
 10
488.506162
 20
361.741717
 30
0.0
 10
484.021432
 20
359.468700
 30
0.0
 10
482.506755
 20
356.618317
 30
0.0
 10
479.217697
 20
356.322653
 30
0.0
  0
SPLINE
  5
165
100
AcDbEntity
  8
0
 62
7
100
AcDbSpline
 70
8
 71
3
 72
8
 73
4
 74
0
 40
0
 40
0
 40
0
 40
0
 40
1
 40
1
 40
1
 40
1
 10
479.217697
 20
356.322653
 30
0.0
 10
475.928640
 20
356.026988
 30
0.0
 10
472.160077
 20
357.337425
 30
0.0
 10
470.701665
 20
359.419605
 30
0.0
  0
SPLINE
  5
166
100
AcDbEntity
  8
0
 62
7
100
AcDbSpline
 70
8
 71
3
 72
8
 73
4
 74
0
 40
0
 40
0
 40
0
 40
0
 40
1
 40
1
 40
1
 40
1
 10
470.701665
 20
359.419605
 30
0.0
 10
469.243252
 20
361.501785
 30
0.0
 10
469.823760
 20
362.441595
 30
0.0
 10
470.701665
 20
365.611118
 30
0.0
  0
SPLINE
  5
167
100
AcDbEntity
  8
0
 62
7
100
AcDbSpline
 70
8
 71
3
 72
8
 73
4
 74
0
 40
0
 40
0
 40
0
 40
0
 40
1
 40
1
 40
1
 40
1
 10
470.701665
 20
365.611118
 30
0.0
 10
471.579570
 20
368.780640
 30
0.0
 10
474.677077
 20
373.682453
 30
0.0
 10
477.668017
 20
377.224103
 30
0.0
  0
SPLINE
  5
168
100
AcDbEntity
  8
0
 62
7
100
AcDbSpline
 70
8
 71
3
 72
8
 73
4
 74
0
 40
0
 40
0
 40
0
 40
0
 40
1
 40
1
 40
1
 40
1
 10
477.668017
 20
377.224103
 30
0.0
 10
480.658957
 20
380.765753
 30
0.0
 10
484.560180
 20
384.180893
 30
0.0
 10
488.506162
 20
386.512568
 30
0.0
  0
SPLINE
  5
169
100
AcDbEntity
  8
0
 62
7
100
AcDbSpline
 70
8
 71
3
 72
8
 73
4
 74
0
 40
0
 40
0
 40
0
 40
0
 40
1
 40
1
 40
1
 40
1
 10
488.506162
 20
386.512568
 30
0.0
 10
492.452145
 20
388.844243
 30
0.0
 10
498.596857
 20
391.050555
 30
0.0
 10
500.891580
 20
391.156800
 30
0.0
  0
SPLINE
  5
16a
100
AcDbEntity
  8
0
 62
7
100
AcDbSpline
 70
8
 71
3
 72
8
 73
4
 74
0
 40
0
 40
0
 40
0
 40
0
 40
1
 40
1
 40
1
 40
1
 10
500.891580
 20
391.156800
 30
0.0
 10
503.186302
 20
391.263045
 30
0.0
 10
503.081310
 20
391.217325
 30
0.0
 10
503.488027
 20
391.207350
 30
0.0
  0
SPLINE
  5
16b
100
AcDbEntity
  8
0
 62
7
100
AcDbSpline
 70
8
 71
3
 72
8
 73
4
 74
0
 40
0
 40
0
 40
0
 40
0
 40
1
 40
1
 40
1
 40
1
 10
503.488027
 20
391.207350
 30
0.0
 10
503.894738
 20
391.197450
 30
0.0
 10
502.267875
 20
391.237125
 30
0.0
 10
503.488027
 20
391.207343
 30
0.0
  0
LINE
  5
16c
100
AcDbEntity
  8
0
 62
7
100
AcDbLine
 10
503.488027
 20
391.207343
 30
0.0
 11
503.488027
 21
391.207342
 31
0.0
  0
SPLINE
  5
16d
100
AcDbEntity
  8
0
 62
7
100
AcDbSpline
 70
8
 71
3
 72
8
 73
4
 74
0
 40
0
 40
0
 40
0
 40
0
 40
1
 40
1
 40
1
 40
1
 10
43.882157
 20
389.068103
 30
0.0
 10
46.681229
 20
389.101178
 30
0.0
 10
53.137934
 20
386.883023
 30
0.0
 10
58.125276
 20
385.737735
 30
0.0
  0
SPLINE
  5
16e
100
AcDbEntity
  8
0
 62
7
100
AcDbSpline
 70
8
 71
3
 72
8
 73
4
 74
0
 40
0
 40
0
 40
0
 40
0
 40
1
 40
1
 40
1
 40
1
 10
58.125276
 20
385.737735
 30
0.0
 10
63.112619
 20
384.592447
 30
0.0
 10
70.398815
 20
382.779225
 30
0.0
 10
74.380091
 20
380.318655
 30
0.0
  0
SPLINE
  5
16f
100
AcDbEntity
  8
0
 62
7
100
AcDbSpline
 70
8
 71
3
 72
8
 73
4
 74
0
 40
0
 40
0
 40
0
 40
0
 40
1
 40
1
 40
1
 40
1
 10
74.380091
 20
380.318655
 30
0.0
 10
78.361365
 20
377.858085
 30
0.0
 10
81.517605
 20
375.906502
 30
0.0
 10
82.121280
 20
372.577455
 30
0.0
  0
SPLINE
  5
170
100
AcDbEntity
  8
0
 62
7
100
AcDbSpline
 70
8
 71
3
 72
8
 73
4
 74
0
 40
0
 40
0
 40
0
 40
0
 40
1
 40
1
 40
1
 40
1
 10
82.121280
 20
372.577455
 30
0.0
 10
82.724955
 20
369.248407
 30
0.0
 10
82.814190
 20
367.003118
 30
0.0
 10
78.249480
 20
364.063837
 30
0.0
  0
SPLINE
  5
171
100
AcDbEntity
  8
0
 62
7
100
AcDbSpline
 70
8
 71
3
 72
8
 73
4
 74
0
 40
0
 40
0
 40
0
 40
0
 40
1
 40
1
 40
1
 40
1
 10
78.249480
 20
364.063837
 30
0.0
 10
73.684768
 20
361.124558
 30
0.0
 10
62.004876
 20
361.483043
 30
0.0
 10
55.028318
 20
364.063837
 30
0.0
  0
SPLINE
  5
172
100
AcDbEntity
  8
0
 62
7
100
AcDbSpline
 70
8
 71
3
 72
8
 73
4
 74
0
 40
0
 40
0
 40
0
 40
0
 40
1
 40
1
 40
1
 40
1
 10
55.028318
 20
364.063837
 30
0.0
 10
48.051761
 20
366.644633
 30
0.0
 10
40.602433
 20
373.059247
 30
0.0
 10
38.773501
 20
377.996535
 30
0.0
  0
SPLINE
  5
173
100
AcDbEntity
  8
0
 62
7
100
AcDbSpline
 70
8
 71
3
 72
8
 73
4
 74
0
 40
0
 40
0
 40
0
 40
0
 40
1
 40
1
 40
1
 40
1
 10
38.773501
 20
377.996535
 30
0.0
 10
36.944569
 20
382.933823
 30
0.0
 10
37.977388
 20
386.299680
 30
0.0
 10
40.320776
 20
388.059848
 30
0.0
  0
SPLINE
  5
174
100
AcDbEntity
  8
0
 62
7
100
AcDbSpline
 70
8
 71
3
 72
8
 73
4
 74
0
 40
0
 40
0
 40
0
 40
0
 40
1
 40
1
 40
1
 40
1
 10
40.320776
 20
388.059848
 30
0.0
 10
42.664164
 20
389.820015
 30
0.0
 10
41.083085
 20
389.034998
 30
0.0
 10
43.882157
 20
389.068103
 30
0.0
  0
LINE
  5
175
100
AcDbEntity
  8
0
 62
7
100
AcDbLine
 10
43.882157
 20
389.068103
 30
0.0
 11
43.882157
 21
389.068103
 31
0.0
  0
SPLINE
  5
176
100
AcDbEntity
  8
0
 62
7
100
AcDbSpline
 70
8
 71
3
 72
8
 73
4
 74
0
 40
0
 40
0
 40
0
 40
0
 40
1
 40
1
 40
1
 40
1
 10
126.482138
 20
364.631737
 30
0.0
 10
129.441653
 20
364.654013
 30
0.0
 10
135.701617
 20
363.744743
 30
0.0
 10
143.660992
 20
363.195150
 30
0.0
  0
SPLINE
  5
177
100
AcDbEntity
  8
0
 62
7
100
AcDbSpline
 70
8
 71
3
 72
8
 73
4
 74
0
 40
0
 40
0
 40
0
 40
0
 40
1
 40
1
 40
1
 40
1
 10
143.660992
 20
363.195150
 30
0.0
 10
151.620368
 20
362.645557
 30
0.0
 10
165.063097
 20
362.476103
 30
0.0
 10
177.104287
 20
360.160755
 30
0.0
  0
SPLINE
  5
178
100
AcDbEntity
  8
0
 62
7
100
AcDbSpline
 70
8
 71
3
 72
8
 73
4
 74
0
 40
0
 40
0
 40
0
 40
0
 40
1
 40
1
 40
1
 40
1
 10
177.104287
 20
360.160755
 30
0.0
 10
189.145477
 20
357.845407
 30
0.0
 10
204.605220
 20
354.167385
 30
0.0
 10
215.432437
 20
348.747495
 30
0.0
  0
SPLINE
  5
179
100
AcDbEntity
  8
0
 62
7
100
AcDbSpline
 70
8
 71
3
 72
8
 73
4
 74
0
 40
0
 40
0
 40
0
 40
0
 40
1
 40
1
 40
1
 40
1
 10
215.432437
 20
348.747495
 30
0.0
 10
226.259655
 20
343.327605
 30
0.0
 10
235.548397
 20
335.140538
 30
0.0
 10
241.649505
 20
329.275395
 30
0.0
  0
SPLINE
  5
17a
100
AcDbEntity
  8
0
 62
7
100
AcDbSpline
 70
8
 71
3
 72
8
 73
4
 74
0
 40
0
 40
0
 40
0
 40
0
 40
1
 40
1
 40
1
 40
1
 10
241.649505
 20
329.275395
 30
0.0
 10
247.750613
 20
323.410252
 30
0.0
 10
252.756030
 20
319.078935
 30
0.0
 10
253.019445
 20
315.164633
 30
0.0
  0
SPLINE
  5
17b
100
AcDbEntity
  8
0
 62
7
100
AcDbSpline
 70
8
 71
3
 72
8
 73
4
 74
0
 40
0
 40
0
 40
0
 40
0
 40
1
 40
1
 40
1
 40
1
 10
253.019445
 20
315.164633
 30
0.0
 10
253.282860
 20
311.250330
 30
0.0
 10
252.092003
 20
311.816160
 30
0.0
 10
250.216065
 20
310.530022
 30
0.0
  0
SPLINE
  5
17c
100
AcDbEntity
  8
0
 62
7
100
AcDbSpline
 70
8
 71
3
 72
8
 73
4
 74
0
 40
0
 40
0
 40
0
 40
0
 40
1
 40
1
 40
1
 40
1
 10
250.216065
 20
310.530022
 30
0.0
 10
248.340127
 20
309.243885
 30
0.0
 10
246.883912
 20
308.205660
 30
0.0
 10
242.111520
 20
309.095835
 30
0.0
  0
SPLINE
  5
17d
100
AcDbEntity
  8
0
 62
7
100
AcDbSpline
 70
8
 71
3
 72
8
 73
4
 74
0
 40
0
 40
0
 40
0
 40
0
 40
1
 40
1
 40
1
 40
1
 10
242.111520
 20
309.095835
 30
0.0
 10
237.339128
 20
309.986010
 30
0.0
 10
232.245998
 20
315.674745
 30
0.0
 10
224.227605
 20
319.909935
 30
0.0
  0
SPLINE
  5
17e
100
AcDbEntity
  8
0
 62
7
100
AcDbSpline
 70
8
 71
3
 72
8
 73
4
 74
0
 40
0
 40
0
 40
0
 40
0
 40
1
 40
1
 40
1
 40
1
 10
224.227605
 20
319.909935
 30
0.0
 10
216.209213
 20
324.145132
 30
0.0
 10
204.287370
 20
329.546888
 30
0.0
 10
193.741703
 20
333.820965
 30
0.0
  0
SPLINE
  5
17f
100
AcDbEntity
  8
0
 62
7
100
AcDbSpline
 70
8
 71
3
 72
8
 73
4
 74
0
 40
0
 40
0
 40
0
 40
0
 40
1
 40
1
 40
1
 40
1
 10
193.741703
 20
333.820965
 30
0.0
 10
183.196035
 20
338.095043
 30
0.0
 10
171.682890
 20
342.205073
 30
0.0
 10
160.991437
 20
345.479678
 30
0.0
  0
SPLINE
  5
180
100
AcDbEntity
  8
0
 62
7
100
AcDbSpline
 70
8
 71
3
 72
8
 73
4
 74
0
 40
0
 40
0
 40
0
 40
0
 40
1
 40
1
 40
1
 40
1
 10
160.991437
 20
345.479678
 30
0.0
 10
150.299985
 20
348.754283
 30
0.0
 10
136.612185
 20
351.793905
 30
0.0
 10
129.689783
 20
353.552955
 30
0.0
  0
SPLINE
  5
181
100
AcDbEntity
  8
0
 62
7
100
AcDbSpline
 70
8
 71
3
 72
8
 73
4
 74
0
 40
0
 40
0
 40
0
 40
0
 40
1
 40
1
 40
1
 40
1
 10
129.689783
 20
353.552955
 30
0.0
 10
122.767380
 20
355.312013
 30
0.0
 10
121.600005
 20
354.572468
 30
0.0
 10
119.477280
 20
356.108483
 30
0.0
  0
SPLINE
  5
182
100
AcDbEntity
  8
0
 62
7
100
AcDbSpline
 70
8
 71
3
 72
8
 73
4
 74
0
 40
0
 40
0
 40
0
 40
0
 40
1
 40
1
 40
1
 40
1
 10
119.477280
 20
356.108483
 30
0.0
 10
117.354555
 20
357.644498
 30
0.0
 10
116.258018
 20
358.530293
 30
0.0
 10
116.702783
 20
360.500048
 30
0.0
  0
SPLINE
  5
183
100
AcDbEntity
  8
0
 62
7
100
AcDbSpline
 70
8
 71
3
 72
8
 73
4
 74
0
 40
0
 40
0
 40
0
 40
0
 40
1
 40
1
 40
1
 40
1
 10
116.702783
 20
360.500048
 30
0.0
 10
117.147548
 20
362.469803
 30
0.0
 10
119.732063
 20
363.450735
 30
0.0
 10
122.557395
 20
364.196183
 30
0.0
  0
SPLINE
  5
184
100
AcDbEntity
  8
0
 62
7
100
AcDbSpline
 70
8
 71
3
 72
8
 73
4
 74
0
 40
0
 40
0
 40
0
 40
0
 40
1
 40
1
 40
1
 40
1
 10
122.557395
 20
364.196183
 30
0.0
 10
125.382728
 20
364.941630
 30
0.0
 10
123.522623
 20
364.609478
 30
0.0
 10
126.482138
 20
364.631737
 30
0.0
  0
LINE
  5
185
100
AcDbEntity
  8
0
 62
7
100
AcDbLine
 10
126.482138
 20
364.631737
 30
0.0
 11
126.482138
 21
364.631737
 31
0.0
  0
SPLINE
  5
186
100
AcDbEntity
  8
0
 62
7
100
AcDbSpline
 70
8
 71
3
 72
8
 73
4
 74
0
 40
0
 40
0
 40
0
 40
0
 40
1
 40
1
 40
1
 40
1
 10
447.711502
 20
362.622443
 30
0.0
 10
449.763510
 20
362.737687
 30
0.0
 10
449.643847
 20
363.158183
 30
0.0
 10
451.477418
 20
361.806697
 30
0.0
  0
SPLINE
  5
187
100
AcDbEntity
  8
0
 62
7
100
AcDbSpline
 70
8
 71
3
 72
8
 73
4
 74
0
 40
0
 40
0
 40
0
 40
0
 40
1
 40
1
 40
1
 40
1
 10
451.477418
 20
361.806697
 30
0.0
 10
453.310987
 20
360.455213
 30
0.0
 10
453.379942
 20
358.403745
 30
0.0
 10
453.005452
 20
356.609003
 30
0.0
  0
SPLINE
  5
188
100
AcDbEntity
  8
0
 62
7
100
AcDbSpline
 70
8
 71
3
 72
8
 73
4
 74
0
 40
0
 40
0
 40
0
 40
0
 40
1
 40
1
 40
1
 40
1
 10
453.005452
 20
356.609003
 30
0.0
 10
452.630962
 20
354.814260
 30
0.0
 10
452.036332
 20
353.817510
 30
0.0
 10
449.420002
 20
352.328123
 30
0.0
  0
SPLINE
  5
189
100
AcDbEntity
  8
0
 62
7
100
AcDbSpline
 70
8
 71
3
 72
8
 73
4
 74
0
 40
0
 40
0
 40
0
 40
0
 40
1
 40
1
 40
1
 40
1
 10
449.420002
 20
352.328123
 30
0.0
 10
446.803672
 20
350.838735
 30
0.0
 10
444.786877
 20
351.618585
 30
0.0
 10
437.101950
 20
350.323635
 30
0.0
  0
SPLINE
  5
18a
100
AcDbEntity
  8
0
 62
7
100
AcDbSpline
 70
8
 71
3
 72
8
 73
4
 74
0
 40
0
 40
0
 40
0
 40
0
 40
1
 40
1
 40
1
 40
1
 10
437.101950
 20
350.323635
 30
0.0
 10
429.417022
 20
349.028685
 30
0.0
 10
415.150162
 20
347.321258
 30
0.0
 10
403.331400
 20
344.440140
 30
0.0
  0
SPLINE
  5
18b
100
AcDbEntity
  8
0
 62
7
100
AcDbSpline
 70
8
 71
3
 72
8
 73
4
 74
0
 40
0
 40
0
 40
0
 40
0
 40
1
 40
1
 40
1
 40
1
 10
403.331400
 20
344.440140
 30
0.0
 10
391.512637
 20
341.559023
 30
0.0
 10
378.597210
 20
337.696830
 30
0.0
 10
366.415762
 20
332.788650
 30
0.0
  0
SPLINE
  5
18c
100
AcDbEntity
  8
0
 62
7
100
AcDbSpline
 70
8
 71
3
 72
8
 73
4
 74
0
 40
0
 40
0
 40
0
 40
0
 40
1
 40
1
 40
1
 40
1
 10
366.415762
 20
332.788650
 30
0.0
 10
354.234315
 20
327.880470
 30
0.0
 10
338.765272
 20
318.213480
 30
0.0
 10
330.501157
 20
314.979338
 30
0.0
  0
SPLINE
  5
18d
100
AcDbEntity
  8
0
 62
7
100
AcDbSpline
 70
8
 71
3
 72
8
 73
4
 74
0
 40
0
 40
0
 40
0
 40
0
 40
1
 40
1
 40
1
 40
1
 10
330.501157
 20
314.979338
 30
0.0
 10
322.237042
 20
311.745195
 30
0.0
 10
320.890327
 20
311.115195
 30
0.0
 10
317.875095
 20
311.271173
 30
0.0
  0
SPLINE
  5
18e
100
AcDbEntity
  8
0
 62
7
100
AcDbSpline
 70
8
 71
3
 72
8
 73
4
 74
0
 40
0
 40
0
 40
0
 40
0
 40
1
 40
1
 40
1
 40
1
 10
317.875095
 20
311.271173
 30
0.0
 10
314.859862
 20
311.427150
 30
0.0
 10
314.177490
 20
310.652588
 30
0.0
 10
313.291020
 20
313.150523
 30
0.0
  0
SPLINE
  5
18f
100
AcDbEntity
  8
0
 62
7
100
AcDbSpline
 70
8
 71
3
 72
8
 73
4
 74
0
 40
0
 40
0
 40
0
 40
0
 40
1
 40
1
 40
1
 40
1
 10
313.291020
 20
313.150523
 30
0.0
 10
312.404550
 20
315.648458
 30
0.0
 10
314.759902
 20
317.901488
 30
0.0
 10
318.534435
 20
322.759035
 30
0.0
  0
SPLINE
  5
190
100
AcDbEntity
  8
0
 62
7
100
AcDbSpline
 70
8
 71
3
 72
8
 73
4
 74
0
 40
0
 40
0
 40
0
 40
0
 40
1
 40
1
 40
1
 40
1
 10
318.534435
 20
322.759035
 30
0.0
 10
322.308967
 20
327.616583
 30
0.0
 10
329.602057
 20
334.846290
 30
0.0
 10
337.544505
 20
340.443210
 30
0.0
  0
SPLINE
  5
191
100
AcDbEntity
  8
0
 62
7
100
AcDbSpline
 70
8
 71
3
 72
8
 73
4
 74
0
 40
0
 40
0
 40
0
 40
0
 40
1
 40
1
 40
1
 40
1
 10
337.544505
 20
340.443210
 30
0.0
 10
345.486952
 20
346.040130
 30
0.0
 10
354.690165
 20
351.560445
 30
0.0
 10
366.249720
 20
355.328820
 30
0.0
  0
SPLINE
  5
192
100
AcDbEntity
  8
0
 62
7
100
AcDbSpline
 70
8
 71
3
 72
8
 73
4
 74
0
 40
0
 40
0
 40
0
 40
0
 40
1
 40
1
 40
1
 40
1
 10
366.249720
 20
355.328820
 30
0.0
 10
377.809275
 20
359.097195
 30
0.0
 10
394.560300
 20
360.550695
 30
0.0
 10
406.397077
 20
361.474620
 30
0.0
  0
SPLINE
  5
193
100
AcDbEntity
  8
0
 62
7
100
AcDbSpline
 70
8
 71
3
 72
8
 73
4
 74
0
 40
0
 40
0
 40
0
 40
0
 40
1
 40
1
 40
1
 40
1
 10
406.397077
 20
361.474620
 30
0.0
 10
418.233855
 20
362.398545
 30
0.0
 10
430.913025
 20
361.537995
 30
0.0
 10
437.017740
 20
361.594928
 30
0.0
  0
SPLINE
  5
194
100
AcDbEntity
  8
0
 62
7
100
AcDbSpline
 70
8
 71
3
 72
8
 73
4
 74
0
 40
0
 40
0
 40
0
 40
0
 40
1
 40
1
 40
1
 40
1
 10
437.017740
 20
361.594928
 30
0.0
 10
443.122455
 20
361.651853
 30
0.0
 10
445.659495
 20
362.507198
 30
0.0
 10
447.711502
 20
362.622443
 30
0.0
  0
LINE
  5
195
100
AcDbEntity
  8
0
 62
7
100
AcDbLine
 10
447.711502
 20
362.622443
 30
0.0
 11
447.711502
 21
362.622443
 31
0.0
  0
SPLINE
  5
196
100
AcDbEntity
  8
0
 62
7
100
AcDbSpline
 70
8
 71
3
 72
8
 73
4
 74
0
 40
0
 40
0
 40
0
 40
0
 40
1
 40
1
 40
1
 40
1
 10
114.327712
 20
350.985383
 30
0.0
 10
115.264095
 20
350.925758
 30
0.0
 10
114.963960
 20
351.045608
 30
0.0
 10
116.933790
 20
350.410275
 30
0.0
  0
SPLINE
  5
197
100
AcDbEntity
  8
0
 62
7
100
AcDbSpline
 70
8
 71
3
 72
8
 73
4
 74
0
 40
0
 40
0
 40
0
 40
0
 40
1
 40
1
 40
1
 40
1
 10
116.933790
 20
350.410275
 30
0.0
 10
118.903620
 20
349.774935
 30
0.0
 10
120.588090
 20
347.470298
 30
0.0
 10
126.732390
 20
342.676298
 30
0.0
  0
SPLINE
  5
198
100
AcDbEntity
  8
0
 62
7
100
AcDbSpline
 70
8
 71
3
 72
8
 73
4
 74
0
 40
0
 40
0
 40
0
 40
0
 40
1
 40
1
 40
1
 40
1
 10
126.732390
 20
342.676298
 30
0.0
 10
132.876690
 20
337.882298
 30
0.0
 10
143.770297
 20
328.513230
 30
0.0
 10
153.875895
 20
321.741158
 30
0.0
  0
SPLINE
  5
199
100
AcDbEntity
  8
0
 62
7
100
AcDbSpline
 70
8
 71
3
 72
8
 73
4
 74
0
 40
0
 40
0
 40
0
 40
0
 40
1
 40
1
 40
1
 40
1
 10
153.875895
 20
321.741158
 30
0.0
 10
163.981492
 20
314.969085
 30
0.0
 10
175.550542
 20
308.050598
 30
0.0
 10
187.396185
 20
302.379750
 30
0.0
  0
SPLINE
  5
19a
100
AcDbEntity
  8
0
 62
7
100
AcDbSpline
 70
8
 71
3
 72
8
 73
4
 74
0
 40
0
 40
0
 40
0
 40
0
 40
1
 40
1
 40
1
 40
1
 10
187.396185
 20
302.379750
 30
0.0
 10
199.241827
 20
296.708903
 30
0.0
 10
216.817732
 20
291.827055
 30
0.0
 10
224.783482
 20
287.915250
 30
0.0
  0
SPLINE
  5
19b
100
AcDbEntity
  8
0
 62
7
100
AcDbSpline
 70
8
 71
3
 72
8
 73
4
 74
0
 40
0
 40
0
 40
0
 40
0
 40
1
 40
1
 40
1
 40
1
 10
224.783482
 20
287.915250
 30
0.0
 10
232.749232
 20
284.003445
 30
0.0
 10
234.121777
 20
283.434668
 30
0.0
 10
236.042737
 20
281.105303
 30
0.0
  0
SPLINE
  5
19c
100
AcDbEntity
  8
0
 62
7
100
AcDbSpline
 70
8
 71
3
 72
8
 73
4
 74
0
 40
0
 40
0
 40
0
 40
0
 40
1
 40
1
 40
1
 40
1
 10
236.042737
 20
281.105303
 30
0.0
 10
237.963697
 20
278.775938
 30
0.0
 10
238.997542
 20
278.794410
 30
0.0
 10
237.753645
 20
276.453855
 30
0.0
  0
SPLINE
  5
19d
100
AcDbEntity
  8
0
 62
7
100
AcDbSpline
 70
8
 71
3
 72
8
 73
4
 74
0
 40
0
 40
0
 40
0
 40
0
 40
1
 40
1
 40
1
 40
1
 10
237.753645
 20
276.453855
 30
0.0
 10
236.509747
 20
274.113300
 30
0.0
 10
233.256480
 20
274.331670
 30
0.0
 10
227.124847
 20
273.835755
 30
0.0
  0
SPLINE
  5
19e
100
AcDbEntity
  8
0
 62
7
100
AcDbSpline
 70
8
 71
3
 72
8
 73
4
 74
0
 40
0
 40
0
 40
0
 40
0
 40
1
 40
1
 40
1
 40
1
 10
227.124847
 20
273.835755
 30
0.0
 10
220.993215
 20
273.339840
 30
0.0
 10
210.736005
 20
273.835733
 30
0.0
 10
201.244672
 20
275.914830
 30
0.0
  0
SPLINE
  5
19f
100
AcDbEntity
  8
0
 62
7
100
AcDbSpline
 70
8
 71
3
 72
8
 73
4
 74
0
 40
0
 40
0
 40
0
 40
0
 40
1
 40
1
 40
1
 40
1
 10
201.244672
 20
275.914830
 30
0.0
 10
191.753340
 20
277.993928
 30
0.0
 10
181.466512
 20
281.055158
 30
0.0
 10
170.881492
 20
287.036940
 30
0.0
  0
SPLINE
  5
1a0
100
AcDbEntity
  8
0
 62
7
100
AcDbSpline
 70
8
 71
3
 72
8
 73
4
 74
0
 40
0
 40
0
 40
0
 40
0
 40
1
 40
1
 40
1
 40
1
 10
170.881492
 20
287.036940
 30
0.0
 10
160.296472
 20
293.018723
 30
0.0
 10
147.914677
 20
304.391468
 30
0.0
 10
139.240545
 20
312.498405
 30
0.0
  0
SPLINE
  5
1a1
100
AcDbEntity
  8
0
 62
7
100
AcDbSpline
 70
8
 71
3
 72
8
 73
4
 74
0
 40
0
 40
0
 40
0
 40
0
 40
1
 40
1
 40
1
 40
1
 10
139.240545
 20
312.498405
 30
0.0
 10
130.566405
 20
320.605350
 30
0.0
 10
123.601342
 20
329.510273
 30
0.0
 10
118.476247
 20
335.004893
 30
0.0
  0
SPLINE
  5
1a2
100
AcDbEntity
  8
0
 62
7
100
AcDbSpline
 70
8
 71
3
 72
8
 73
4
 74
0
 40
0
 40
0
 40
0
 40
0
 40
1
 40
1
 40
1
 40
1
 10
118.476247
 20
335.004893
 30
0.0
 10
113.351152
 20
340.499513
 30
0.0
 10
108.905812
 20
342.230828
 30
0.0
 10
108.554917
 20
345.525398
 30
0.0
  0
SPLINE
  5
1a3
100
AcDbEntity
  8
0
 62
7
100
AcDbSpline
 70
8
 71
3
 72
8
 73
4
 74
0
 40
0
 40
0
 40
0
 40
0
 40
1
 40
1
 40
1
 40
1
 10
108.554917
 20
345.525398
 30
0.0
 10
108.204022
 20
348.819968
 30
0.0
 10
110.077260
 20
349.402208
 30
0.0
 10
111.358305
 20
350.162423
 30
0.0
  0
SPLINE
  5
1a4
100
AcDbEntity
  8
0
 62
7
100
AcDbSpline
 70
8
 71
3
 72
8
 73
4
 74
0
 40
0
 40
0
 40
0
 40
0
 40
1
 40
1
 40
1
 40
1
 10
111.358305
 20
350.162423
 30
0.0
 10
112.639350
 20
350.922638
 30
0.0
 10
113.391330
 20
351.045000
 30
0.0
 10
114.327712
 20
350.985383
 30
0.0
  0
LINE
  5
1a5
100
AcDbEntity
  8
0
 62
7
100
AcDbLine
 10
114.327712
 20
350.985383
 30
0.0
 11
114.327712
 21
350.985383
 31
0.0
  0
SPLINE
  5
1a6
100
AcDbEntity
  8
0
 62
7
100
AcDbSpline
 70
8
 71
3
 72
8
 73
4
 74
0
 40
0
 40
0
 40
0
 40
0
 40
1
 40
1
 40
1
 40
1
 10
454.350585
 20
346.983645
 30
0.0
 10
455.259038
 20
347.019570
 30
0.0
 10
456.082755
 20
347.033820
 30
0.0
 10
457.019220
 20
345.686625
 30
0.0
  0
SPLINE
  5
1a7
100
AcDbEntity
  8
0
 62
7
100
AcDbSpline
 70
8
 71
3
 72
8
 73
4
 74
0
 40
0
 40
0
 40
0
 40
0
 40
1
 40
1
 40
1
 40
1
 10
457.019220
 20
345.686625
 30
0.0
 10
457.955685
 20
344.339408
 30
0.0
 10
457.967085
 20
343.011593
 30
0.0
 10
455.794395
 20
338.871878
 30
0.0
  0
SPLINE
  5
1a8
100
AcDbEntity
  8
0
 62
7
100
AcDbSpline
 70
8
 71
3
 72
8
 73
4
 74
0
 40
0
 40
0
 40
0
 40
0
 40
1
 40
1
 40
1
 40
1
 10
455.794395
 20
338.871878
 30
0.0
 10
453.621705
 20
334.732163
 30
0.0
 10
447.410842
 20
330.266858
 30
0.0
 10
440.805308
 20
323.981460
 30
0.0
  0
SPLINE
  5
1a9
100
AcDbEntity
  8
0
 62
7
100
AcDbSpline
 70
8
 71
3
 72
8
 73
4
 74
0
 40
0
 40
0
 40
0
 40
0
 40
1
 40
1
 40
1
 40
1
 10
440.805308
 20
323.981460
 30
0.0
 10
434.199772
 20
317.696063
 30
0.0
 10
425.822407
 20
308.680050
 30
0.0
 10
415.983930
 20
301.361873
 30
0.0
  0
SPLINE
  5
1aa
100
AcDbEntity
  8
0
 62
7
100
AcDbSpline
 70
8
 71
3
 72
8
 73
4
 74
0
 40
0
 40
0
 40
0
 40
0
 40
1
 40
1
 40
1
 40
1
 10
415.983930
 20
301.361873
 30
0.0
 10
406.145452
 20
294.043695
 30
0.0
 10
392.995050
 20
285.126143
 30
0.0
 10
381.686385
 20
280.799708
 30
0.0
  0
SPLINE
  5
1ab
100
AcDbEntity
  8
0
 62
7
100
AcDbSpline
 70
8
 71
3
 72
8
 73
4
 74
0
 40
0
 40
0
 40
0
 40
0
 40
1
 40
1
 40
1
 40
1
 10
381.686385
 20
280.799708
 30
0.0
 10
370.377720
 20
276.473273
 30
0.0
 10
358.065345
 20
275.148000
 30
0.0
 10
349.619520
 20
274.608195
 30
0.0
  0
SPLINE
  5
1ac
100
AcDbEntity
  8
0
 62
7
100
AcDbSpline
 70
8
 71
3
 72
8
 73
4
 74
0
 40
0
 40
0
 40
0
 40
0
 40
1
 40
1
 40
1
 40
1
 10
349.619520
 20
274.608195
 30
0.0
 10
341.173695
 20
274.068398
 30
0.0
 10
334.600928
 20
273.302415
 30
0.0
 10
331.535880
 20
275.751203
 30
0.0
  0
SPLINE
  5
1ad
100
AcDbEntity
  8
0
 62
7
100
AcDbSpline
 70
8
 71
3
 72
8
 73
4
 74
0
 40
0
 40
0
 40
0
 40
0
 40
1
 40
1
 40
1
 40
1
 10
331.535880
 20
275.751203
 30
0.0
 10
328.470833
 20
278.199990
 30
0.0
 10
329.689808
 20
278.699160
 30
0.0
 10
330.007860
 20
280.951298
 30
0.0
  0
SPLINE
  5
1ae
100
AcDbEntity
  8
0
 62
7
100
AcDbSpline
 70
8
 71
3
 72
8
 73
4
 74
0
 40
0
 40
0
 40
0
 40
0
 40
1
 40
1
 40
1
 40
1
 10
330.007860
 20
280.951298
 30
0.0
 10
330.325913
 20
283.203435
 30
0.0
 10
330.544388
 20
284.974538
 30
0.0
 10
334.423485
 20
287.893590
 30
0.0
  0
SPLINE
  5
1af
100
AcDbEntity
  8
0
 62
7
100
AcDbSpline
 70
8
 71
3
 72
8
 73
4
 74
0
 40
0
 40
0
 40
0
 40
0
 40
1
 40
1
 40
1
 40
1
 10
334.423485
 20
287.893590
 30
0.0
 10
338.302582
 20
290.812643
 30
0.0
 10
345.937297
 20
290.729715
 30
0.0
 10
354.475500
 20
293.784308
 30
0.0
  0
SPLINE
  5
1b0
100
AcDbEntity
  8
0
 62
7
100
AcDbSpline
 70
8
 71
3
 72
8
 73
4
 74
0
 40
0
 40
0
 40
0
 40
0
 40
1
 40
1
 40
1
 40
1
 10
354.475500
 20
293.784308
 30
0.0
 10
363.013703
 20
296.838908
 30
0.0
 10
375.046560
 20
301.984725
 30
0.0
 10
385.319955
 20
306.877193
 30
0.0
  0
SPLINE
  5
1b1
100
AcDbEntity
  8
0
 62
7
100
AcDbSpline
 70
8
 71
3
 72
8
 73
4
 74
0
 40
0
 40
0
 40
0
 40
0
 40
1
 40
1
 40
1
 40
1
 10
385.319955
 20
306.877193
 30
0.0
 10
395.593350
 20
311.769660
 30
0.0
 10
406.402253
 20
317.486018
 30
0.0
 10
416.036872
 20
323.160893
 30
0.0
  0
SPLINE
  5
1b2
100
AcDbEntity
  8
0
 62
7
100
AcDbSpline
 70
8
 71
3
 72
8
 73
4
 74
0
 40
0
 40
0
 40
0
 40
0
 40
1
 40
1
 40
1
 40
1
 10
416.036872
 20
323.160893
 30
0.0
 10
425.671492
 20
328.835768
 30
0.0
 10
437.153287
 20
336.881183
 30
0.0
 10
443.125027
 20
340.799363
 30
0.0
  0
SPLINE
  5
1b3
100
AcDbEntity
  8
0
 62
7
100
AcDbSpline
 70
8
 71
3
 72
8
 73
4
 74
0
 40
0
 40
0
 40
0
 40
0
 40
1
 40
1
 40
1
 40
1
 10
443.125027
 20
340.799363
 30
0.0
 10
449.096767
 20
344.717543
 30
0.0
 10
450.143812
 20
346.242480
 30
0.0
 10
451.908157
 20
346.605855
 30
0.0
  0
SPLINE
  5
1b4
100
AcDbEntity
  8
0
 62
7
100
AcDbSpline
 70
8
 71
3
 72
8
 73
4
 74
0
 40
0
 40
0
 40
0
 40
0
 40
1
 40
1
 40
1
 40
1
 10
451.908157
 20
346.605855
 30
0.0
 10
453.672502
 20
346.969230
 30
0.0
 10
453.442132
 20
346.947698
 30
0.0
 10
454.350585
 20
346.983645
 30
0.0
  0
LINE
  5
1b5
100
AcDbEntity
  8
0
 62
7
100
AcDbLine
 10
454.350585
 20
346.983645
 30
0.0
 11
454.350585
 21
346.983645
 31
0.0
  0
SPLINE
  5
1b6
100
AcDbEntity
  8
0
 62
7
100
AcDbSpline
 70
8
 71
3
 72
8
 73
4
 74
0
 40
0
 40
0
 40
0
 40
0
 40
1
 40
1
 40
1
 40
1
 10
236.745383
 20
264.133395
 30
0.0
 10
236.872223
 20
264.134145
 30
0.0
 10
235.425413
 20
264.362715
 30
0.0
 10
237.491355
 20
264.087645
 30
0.0
  0
SPLINE
  5
1b7
100
AcDbEntity
  8
0
 62
7
100
AcDbSpline
 70
8
 71
3
 72
8
 73
4
 74
0
 40
0
 40
0
 40
0
 40
0
 40
1
 40
1
 40
1
 40
1
 10
237.491355
 20
264.087645
 30
0.0
 10
239.557298
 20
263.812575
 30
0.0
 10
240.592313
 20
262.514048
 30
0.0
 10
241.481063
 20
260.420393
 30
0.0
  0
SPLINE
  5
1b8
100
AcDbEntity
  8
0
 62
7
100
AcDbSpline
 70
8
 71
3
 72
8
 73
4
 74
0
 40
0
 40
0
 40
0
 40
0
 40
1
 40
1
 40
1
 40
1
 10
241.481063
 20
260.420393
 30
0.0
 10
242.369813
 20
258.326738
 30
0.0
 10
243.097447
 20
256.696763
 30
0.0
 10
241.278930
 20
252.195525
 30
0.0
  0
SPLINE
  5
1b9
100
AcDbEntity
  8
0
 62
7
100
AcDbSpline
 70
8
 71
3
 72
8
 73
4
 74
0
 40
0
 40
0
 40
0
 40
0
 40
1
 40
1
 40
1
 40
1
 10
241.278930
 20
252.195525
 30
0.0
 10
239.460413
 20
247.694288
 30
0.0
 10
232.875083
 20
243.829148
 30
0.0
 10
227.134470
 20
236.809395
 30
0.0
  0
SPLINE
  5
1ba
100
AcDbEntity
  8
0
 62
7
100
AcDbSpline
 70
8
 71
3
 72
8
 73
4
 74
0
 40
0
 40
0
 40
0
 40
0
 40
1
 40
1
 40
1
 40
1
 10
227.134470
 20
236.809395
 30
0.0
 10
221.393857
 20
229.789643
 30
0.0
 10
213.737535
 20
219.174315
 30
0.0
 10
207.457845
 20
209.685143
 30
0.0
  0
SPLINE
  5
1bb
100
AcDbEntity
  8
0
 62
7
100
AcDbSpline
 70
8
 71
3
 72
8
 73
4
 74
0
 40
0
 40
0
 40
0
 40
0
 40
1
 40
1
 40
1
 40
1
 10
207.457845
 20
209.685143
 30
0.0
 10
201.178155
 20
200.195970
 30
0.0
 10
194.864377
 20
189.727253
 30
0.0
 10
189.535425
 20
179.897078
 30
0.0
  0
SPLINE
  5
1bc
100
AcDbEntity
  8
0
 62
7
100
AcDbSpline
 70
8
 71
3
 72
8
 73
4
 74
0
 40
0
 40
0
 40
0
 40
0
 40
1
 40
1
 40
1
 40
1
 10
189.535425
 20
179.897078
 30
0.0
 10
184.206473
 20
170.066903
 30
0.0
 10
178.516192
 20
157.252823
 30
0.0
 10
175.419848
 20
150.816473
 30
0.0
  0
SPLINE
  5
1bd
100
AcDbEntity
  8
0
 62
7
100
AcDbSpline
 70
8
 71
3
 72
8
 73
4
 74
0
 40
0
 40
0
 40
0
 40
0
 40
1
 40
1
 40
1
 40
1
 10
175.419848
 20
150.816473
 30
0.0
 10
172.323502
 20
144.380123
 30
0.0
 10
172.815037
 20
143.087565
 30
0.0
 10
170.888715
 20
141.311438
 30
0.0
  0
SPLINE
  5
1be
100
AcDbEntity
  8
0
 62
7
100
AcDbSpline
 70
8
 71
3
 72
8
 73
4
 74
0
 40
0
 40
0
 40
0
 40
0
 40
1
 40
1
 40
1
 40
1
 10
170.888715
 20
141.311438
 30
0.0
 10
168.962392
 20
139.535310
 30
0.0
 10
167.877623
 20
138.636983
 30
0.0
 10
166.035120
 20
139.463370
 30
0.0
  0
SPLINE
  5
1bf
100
AcDbEntity
  8
0
 62
7
100
AcDbSpline
 70
8
 71
3
 72
8
 73
4
 74
0
 40
0
 40
0
 40
0
 40
0
 40
1
 40
1
 40
1
 40
1
 10
166.035120
 20
139.463370
 30
0.0
 10
164.192617
 20
140.289758
 30
0.0
 10
163.846402
 20
141.266760
 30
0.0
 10
163.573447
 20
145.934010
 30
0.0
  0
SPLINE
  5
1c0
100
AcDbEntity
  8
0
 62
7
100
AcDbSpline
 70
8
 71
3
 72
8
 73
4
 74
0
 40
0
 40
0
 40
0
 40
0
 40
1
 40
1
 40
1
 40
1
 10
163.573447
 20
145.934010
 30
0.0
 10
163.300492
 20
150.601260
 30
0.0
 10
166.318658
 20
157.630178
 30
0.0
 10
168.737437
 20
166.421588
 30
0.0
  0
SPLINE
  5
1c1
100
AcDbEntity
  8
0
 62
7
100
AcDbSpline
 70
8
 71
3
 72
8
 73
4
 74
0
 40
0
 40
0
 40
0
 40
0
 40
1
 40
1
 40
1
 40
1
 10
168.737437
 20
166.421588
 30
0.0
 10
171.156217
 20
175.212998
 30
0.0
 10
173.684850
 20
187.255853
 30
0.0
 10
178.341135
 20
198.599145
 30
0.0
  0
SPLINE
  5
1c2
100
AcDbEntity
  8
0
 62
7
100
AcDbSpline
 70
8
 71
3
 72
8
 73
4
 74
0
 40
0
 40
0
 40
0
 40
0
 40
1
 40
1
 40
1
 40
1
 10
178.341135
 20
198.599145
 30
0.0
 10
182.997420
 20
209.942438
 30
0.0
 10
189.666435
 20
224.364540
 30
0.0
 10
197.125020
 20
233.902538
 30
0.0
  0
SPLINE
  5
1c3
100
AcDbEntity
  8
0
 62
7
100
AcDbSpline
 70
8
 71
3
 72
8
 73
4
 74
0
 40
0
 40
0
 40
0
 40
0
 40
1
 40
1
 40
1
 40
1
 10
197.125020
 20
233.902538
 30
0.0
 10
204.583605
 20
243.440535
 30
0.0
 10
214.666665
 20
251.075595
 30
0.0
 10
221.407380
 20
255.742470
 30
0.0
  0
SPLINE
  5
1c4
100
AcDbEntity
  8
0
 62
7
100
AcDbSpline
 70
8
 71
3
 72
8
 73
4
 74
0
 40
0
 40
0
 40
0
 40
0
 40
1
 40
1
 40
1
 40
1
 10
221.407380
 20
255.742470
 30
0.0
 10
228.148095
 20
260.409345
 30
0.0
 10
234.842820
 20
264.115568
 30
0.0
 10
236.745383
 20
264.133365
 30
0.0
  0
SPLINE
  5
1c5
100
AcDbEntity
  8
0
 62
7
100
AcDbSpline
 70
8
 71
3
 72
8
 73
4
 74
0
 40
0
 40
0
 40
0
 40
0
 40
1
 40
1
 40
1
 40
1
 10
236.745383
 20
264.133365
 30
0.0
 10
238.647953
 20
264.151140
 30
0.0
 10
236.618543
 20
264.132615
 30
0.0
 10
236.745383
 20
264.133395
 30
0.0
  0
LINE
  5
1c6
100
AcDbEntity
  8
0
 62
7
100
AcDbLine
 10
236.745383
 20
264.133395
 30
0.0
 11
236.745383
 21
264.133395
 31
0.0
  0
SPLINE
  5
1c7
100
AcDbEntity
  8
0
 62
7
100
AcDbSpline
 70
8
 71
3
 72
8
 73
4
 74
0
 40
0
 40
0
 40
0
 40
0
 40
1
 40
1
 40
1
 40
1
 10
329.105468
 20
262.867665
 30
0.0
 10
330.419130
 20
262.837440
 30
0.0
 10
332.945678
 20
261.632468
 30
0.0
 10
337.804388
 20
259.315913
 30
0.0
  0
SPLINE
  5
1c8
100
AcDbEntity
  8
0
 62
7
100
AcDbSpline
 70
8
 71
3
 72
8
 73
4
 74
0
 40
0
 40
0
 40
0
 40
0
 40
1
 40
1
 40
1
 40
1
 10
337.804388
 20
259.315913
 30
0.0
 10
342.663105
 20
256.999358
 30
0.0
 10
351.979178
 20
251.094375
 30
0.0
 10
359.146215
 20
244.533773
 30
0.0
  0
SPLINE
  5
1c9
100
AcDbEntity
  8
0
 62
7
100
AcDbSpline
 70
8
 71
3
 72
8
 73
4
 74
0
 40
0
 40
0
 40
0
 40
0
 40
1
 40
1
 40
1
 40
1
 10
359.146215
 20
244.533773
 30
0.0
 10
366.313253
 20
237.973170
 30
0.0
 10
373.676123
 20
230.163938
 30
0.0
 10
379.831095
 20
219.678697
 30
0.0
  0
SPLINE
  5
1ca
100
AcDbEntity
  8
0
 62
7
100
AcDbSpline
 70
8
 71
3
 72
8
 73
4
 74
0
 40
0
 40
0
 40
0
 40
0
 40
1
 40
1
 40
1
 40
1
 10
379.831095
 20
219.678697
 30
0.0
 10
385.986068
 20
209.193458
 30
0.0
 10
390.989738
 20
193.141245
 30
0.0
 10
394.425533
 20
181.776457
 30
0.0
  0
SPLINE
  5
1cb
100
AcDbEntity
  8
0
 62
7
100
AcDbSpline
 70
8
 71
3
 72
8
 73
4
 74
0
 40
0
 40
0
 40
0
 40
0
 40
1
 40
1
 40
1
 40
1
 10
394.425533
 20
181.776457
 30
0.0
 10
397.861328
 20
170.411670
 30
0.0
 10
399.419445
 20
159.214147
 30
0.0
 10
401.095905
 20
151.889737
 30
0.0
  0
SPLINE
  5
1cc
100
AcDbEntity
  8
0
 62
7
100
AcDbSpline
 70
8
 71
3
 72
8
 73
4
 74
0
 40
0
 40
0
 40
0
 40
0
 40
1
 40
1
 40
1
 40
1
 10
401.095905
 20
151.889737
 30
0.0
 10
402.772365
 20
144.565327
 30
0.0
 10
405.749295
 20
140.838585
 30
0.0
 10
404.399820
 20
137.812657
 30
0.0
  0
SPLINE
  5
1cd
100
AcDbEntity
  8
0
 62
7
100
AcDbSpline
 70
8
 71
3
 72
8
 73
4
 74
0
 40
0
 40
0
 40
0
 40
0
 40
1
 40
1
 40
1
 40
1
 10
404.399820
 20
137.812657
 30
0.0
 10
403.050345
 20
134.786730
 30
0.0
 10
401.480588
 20
135.224880
 30
0.0
 10
399.647288
 20
135.206587
 30
0.0
  0
SPLINE
  5
1ce
100
AcDbEntity
  8
0
 62
7
100
AcDbSpline
 70
8
 71
3
 72
8
 73
4
 74
0
 40
0
 40
0
 40
0
 40
0
 40
1
 40
1
 40
1
 40
1
 10
399.647288
 20
135.206587
 30
0.0
 10
397.813988
 20
135.188288
 30
0.0
 10
396.714668
 20
135.554040
 30
0.0
 10
394.699860
 20
137.790998
 30
0.0
  0
SPLINE
  5
1cf
100
AcDbEntity
  8
0
 62
7
100
AcDbSpline
 70
8
 71
3
 72
8
 73
4
 74
0
 40
0
 40
0
 40
0
 40
0
 40
1
 40
1
 40
1
 40
1
 10
394.699860
 20
137.790998
 30
0.0
 10
392.685052
 20
140.027955
 30
0.0
 10
393.015780
 20
142.167037
 30
0.0
 10
390.106155
 20
149.396768
 30
0.0
  0
SPLINE
  5
1d0
100
AcDbEntity
  8
0
 62
7
100
AcDbSpline
 70
8
 71
3
 72
8
 73
4
 74
0
 40
0
 40
0
 40
0
 40
0
 40
1
 40
1
 40
1
 40
1
 10
390.106155
 20
149.396768
 30
0.0
 10
387.196530
 20
156.626498
 30
0.0
 10
382.472535
 20
170.196007
 30
0.0
 10
377.128777
 20
181.124340
 30
0.0
  0
SPLINE
  5
1d1
100
AcDbEntity
  8
0
 62
7
100
AcDbSpline
 70
8
 71
3
 72
8
 73
4
 74
0
 40
0
 40
0
 40
0
 40
0
 40
1
 40
1
 40
1
 40
1
 10
377.128777
 20
181.124340
 30
0.0
 10
371.785020
 20
192.052673
 30
0.0
 10
365.250653
 20
203.843993
 30
0.0
 10
357.849187
 20
214.692773
 30
0.0
  0
SPLINE
  5
1d2
100
AcDbEntity
  8
0
 62
7
100
AcDbSpline
 70
8
 71
3
 72
8
 73
4
 74
0
 40
0
 40
0
 40
0
 40
0
 40
1
 40
1
 40
1
 40
1
 10
357.849187
 20
214.692773
 30
0.0
 10
350.447722
 20
225.541553
 30
0.0
 10
337.693357
 20
238.582658
 30
0.0
 10
332.765520
 20
245.963145
 30
0.0
  0
SPLINE
  5
1d3
100
AcDbEntity
  8
0
 62
7
100
AcDbSpline
 70
8
 71
3
 72
8
 73
4
 74
0
 40
0
 40
0
 40
0
 40
0
 40
1
 40
1
 40
1
 40
1
 10
332.765520
 20
245.963145
 30
0.0
 10
327.837682
 20
253.343633
 30
0.0
 10
326.934607
 20
254.522775
 30
0.0
 10
326.441663
 20
257.501535
 30
0.0
  0
SPLINE
  5
1d4
100
AcDbEntity
  8
0
 62
7
100
AcDbSpline
 70
8
 71
3
 72
8
 73
4
 74
0
 40
0
 40
0
 40
0
 40
0
 40
1
 40
1
 40
1
 40
1
 10
326.441663
 20
257.501535
 30
0.0
 10
325.948717
 20
260.480295
 30
0.0
 10
325.889445
 20
261.508658
 30
0.0
 10
327.295905
 20
262.383990
 30
0.0
  0
SPLINE
  5
1d5
100
AcDbEntity
  8
0
 62
7
100
AcDbSpline
 70
8
 71
3
 72
8
 73
4
 74
0
 40
0
 40
0
 40
0
 40
0
 40
1
 40
1
 40
1
 40
1
 10
327.295905
 20
262.383990
 30
0.0
 10
328.702365
 20
263.259322
 30
0.0
 10
327.791805
 20
262.897868
 30
0.0
 10
329.105467
 20
262.867665
 30
0.0
  0
LINE
  5
1d6
100
AcDbEntity
  8
0
 62
7
100
AcDbLine
 10
329.105467
 20
262.867665
 30
0.0
 11
329.105468
 21
262.867665
 31
0.0
  0
SPLINE
  5
1d7
100
AcDbEntity
  8
0
 62
7
100
AcDbSpline
 70
8
 71
3
 72
8
 73
4
 74
0
 40
0
 40
0
 40
0
 40
0
 40
1
 40
1
 40
1
 40
1
 10
270.660315
 20
242.327168
 30
0.0
 10
271.291433
 20
242.336318
 30
0.0
 10
271.002045
 20
242.608440
 30
0.0
 10
272.409735
 20
241.451257
 30
0.0
  0
SPLINE
  5
1d8
100
AcDbEntity
  8
0
 62
7
100
AcDbSpline
 70
8
 71
3
 72
8
 73
4
 74
0
 40
0
 40
0
 40
0
 40
0
 40
1
 40
1
 40
1
 40
1
 10
272.409735
 20
241.451257
 30
0.0
 10
273.817425
 20
240.294075
 30
0.0
 10
273.598718
 20
236.622713
 30
0.0
 10
272.869335
 20
230.514443
 30
0.0
  0
SPLINE
  5
1d9
100
AcDbEntity
  8
0
 62
7
100
AcDbSpline
 70
8
 71
3
 72
8
 73
4
 74
0
 40
0
 40
0
 40
0
 40
0
 40
1
 40
1
 40
1
 40
1
 10
272.869335
 20
230.514443
 30
0.0
 10
272.139953
 20
224.406180
 30
0.0
 10
269.620133
 20
214.451558
 30
0.0
 10
265.700858
 20
205.560713
 30
0.0
  0
SPLINE
  5
1da
100
AcDbEntity
  8
0
 62
7
100
AcDbSpline
 70
8
 71
3
 72
8
 73
4
 74
0
 40
0
 40
0
 40
0
 40
0
 40
1
 40
1
 40
1
 40
1
 10
265.700858
 20
205.560713
 30
0.0
 10
261.781590
 20
196.669868
 30
0.0
 10
256.743195
 20
187.194945
 30
0.0
 10
248.781893
 20
178.005727
 30
0.0
  0
SPLINE
  5
1db
100
AcDbEntity
  8
0
 62
7
100
AcDbSpline
 70
8
 71
3
 72
8
 73
4
 74
0
 40
0
 40
0
 40
0
 40
0
 40
1
 40
1
 40
1
 40
1
 10
248.781893
 20
178.005727
 30
0.0
 10
240.820590
 20
168.816510
 30
0.0
 10
227.215515
 20
158.933918
 30
0.0
 10
217.550018
 20
152.038927
 30
0.0
  0
SPLINE
  5
1dc
100
AcDbEntity
  8
0
 62
7
100
AcDbSpline
 70
8
 71
3
 72
8
 73
4
 74
0
 40
0
 40
0
 40
0
 40
0
 40
1
 40
1
 40
1
 40
1
 10
217.550018
 20
152.038927
 30
0.0
 10
207.884520
 20
145.143937
 30
0.0
 10
197.777790
 20
140.081685
 30
0.0
 10
191.376278
 20
136.147462
 30
0.0
  0
SPLINE
  5
1dd
100
AcDbEntity
  8
0
 62
7
100
AcDbSpline
 70
8
 71
3
 72
8
 73
4
 74
0
 40
0
 40
0
 40
0
 40
0
 40
1
 40
1
 40
1
 40
1
 10
191.376278
 20
136.147462
 30
0.0
 10
184.974765
 20
132.213240
 30
0.0
 10
182.395470
 20
128.200605
 30
0.0
 10
179.096723
 20
128.509755
 30
0.0
  0
SPLINE
  5
1de
100
AcDbEntity
  8
0
 62
7
100
AcDbSpline
 70
8
 71
3
 72
8
 73
4
 74
0
 40
0
 40
0
 40
0
 40
0
 40
1
 40
1
 40
1
 40
1
 10
179.096723
 20
128.509755
 30
0.0
 10
175.797975
 20
128.818905
 30
0.0
 10
175.711575
 20
130.446165
 30
0.0
 10
175.107015
 20
132.177015
 30
0.0
  0
SPLINE
  5
1df
100
AcDbEntity
  8
0
 62
7
100
AcDbSpline
 70
8
 71
3
 72
8
 73
4
 74
0
 40
0
 40
0
 40
0
 40
0
 40
1
 40
1
 40
1
 40
1
 10
175.107015
 20
132.177015
 30
0.0
 10
174.502455
 20
133.907865
 30
0.0
 10
174.497160
 20
135.064762
 30
0.0
 10
175.970903
 20
137.689935
 30
0.0
  0
SPLINE
  5
1e0
100
AcDbEntity
  8
0
 62
7
100
AcDbSpline
 70
8
 71
3
 72
8
 73
4
 74
0
 40
0
 40
0
 40
0
 40
0
 40
1
 40
1
 40
1
 40
1
 10
175.970903
 20
137.689935
 30
0.0
 10
177.444645
 20
140.315107
 30
0.0
 10
179.575935
 20
140.688705
 30
0.0
 10
185.492775
 20
145.760790
 30
0.0
  0
SPLINE
  5
1e1
100
AcDbEntity
  8
0
 62
7
100
AcDbSpline
 70
8
 71
3
 72
8
 73
4
 74
0
 40
0
 40
0
 40
0
 40
0
 40
1
 40
1
 40
1
 40
1
 10
185.492775
 20
145.760790
 30
0.0
 10
191.409615
 20
150.832875
 30
0.0
 10
202.751325
 20
159.654082
 30
0.0
 10
211.392210
 20
168.216742
 30
0.0
  0
SPLINE
  5
1e2
100
AcDbEntity
  8
0
 62
7
100
AcDbSpline
 70
8
 71
3
 72
8
 73
4
 74
0
 40
0
 40
0
 40
0
 40
0
 40
1
 40
1
 40
1
 40
1
 10
211.392210
 20
168.216742
 30
0.0
 10
220.033095
 20
176.779402
 30
0.0
 10
229.108470
 20
186.745897
 30
0.0
 10
237.014895
 20
197.232375
 30
0.0
  0
SPLINE
  5
1e3
100
AcDbEntity
  8
0
 62
7
100
AcDbSpline
 70
8
 71
3
 72
8
 73
4
 74
0
 40
0
 40
0
 40
0
 40
0
 40
1
 40
1
 40
1
 40
1
 10
237.014895
 20
197.232375
 30
0.0
 10
244.921320
 20
207.718852
 30
0.0
 10
253.191368
 20
223.977907
 30
0.0
 10
258.604568
 20
231.010155
 30
0.0
  0
SPLINE
  5
1e4
100
AcDbEntity
  8
0
 62
7
100
AcDbSpline
 70
8
 71
3
 72
8
 73
4
 74
0
 40
0
 40
0
 40
0
 40
0
 40
1
 40
1
 40
1
 40
1
 10
258.604568
 20
231.010155
 30
0.0
 10
264.017768
 20
238.042402
 30
0.0
 10
265.345988
 20
239.543430
 30
0.0
 10
267.510420
 20
240.698070
 30
0.0
  0
SPLINE
  5
1e5
100
AcDbEntity
  8
0
 62
7
100
AcDbSpline
 70
8
 71
3
 72
8
 73
4
 74
0
 40
0
 40
0
 40
0
 40
0
 40
1
 40
1
 40
1
 40
1
 10
267.510420
 20
240.698070
 30
0.0
 10
269.674853
 20
241.852710
 30
0.0
 10
270.029198
 20
242.317987
 30
0.0
 10
270.660315
 20
242.327167
 30
0.0
  0
LINE
  5
1e6
100
AcDbEntity
  8
0
 62
7
100
AcDbLine
 10
270.660315
 20
242.327167
 30
0.0
 11
270.660315
 21
242.327168
 31
0.0
  0
SPLINE
  5
1e7
100
AcDbEntity
  8
0
 62
7
100
AcDbSpline
 70
8
 71
3
 72
8
 73
4
 74
0
 40
0
 40
0
 40
0
 40
0
 40
1
 40
1
 40
1
 40
1
 10
301.066815
 20
239.237423
 30
0.0
 10
302.153175
 20
239.217998
 30
0.0
 10
303.926235
 20
239.104313
 30
0.0
 10
307.147635
 20
236.335373
 30
0.0
  0
SPLINE
  5
1e8
100
AcDbEntity
  8
0
 62
7
100
AcDbSpline
 70
8
 71
3
 72
8
 73
4
 74
0
 40
0
 40
0
 40
0
 40
0
 40
1
 40
1
 40
1
 40
1
 10
307.147635
 20
236.335373
 30
0.0
 10
310.369035
 20
233.566433
 30
0.0
 10
312.380565
 20
225.695348
 30
0.0
 10
317.191688
 20
218.008695
 30
0.0
  0
SPLINE
  5
1e9
100
AcDbEntity
  8
0
 62
7
100
AcDbSpline
 70
8
 71
3
 72
8
 73
4
 74
0
 40
0
 40
0
 40
0
 40
0
 40
1
 40
1
 40
1
 40
1
 10
317.191688
 20
218.008695
 30
0.0
 10
322.002810
 20
210.322043
 30
0.0
 10
329.606603
 20
199.668218
 30
0.0
 10
336.584378
 20
190.679910
 30
0.0
  0
SPLINE
  5
1ea
100
AcDbEntity
  8
0
 62
7
100
AcDbSpline
 70
8
 71
3
 72
8
 73
4
 74
0
 40
0
 40
0
 40
0
 40
0
 40
1
 40
1
 40
1
 40
1
 10
336.584378
 20
190.679910
 30
0.0
 10
343.562153
 20
181.691603
 30
0.0
 10
351.456645
 20
172.356540
 30
0.0
 10
359.061990
 20
164.159655
 30
0.0
  0
SPLINE
  5
1eb
100
AcDbEntity
  8
0
 62
7
100
AcDbSpline
 70
8
 71
3
 72
8
 73
4
 74
0
 40
0
 40
0
 40
0
 40
0
 40
1
 40
1
 40
1
 40
1
 10
359.061990
 20
164.159655
 30
0.0
 10
366.667335
 20
155.962770
 30
0.0
 10
376.985198
 20
146.467523
 30
0.0
 10
382.090643
 20
141.472695
 30
0.0
  0
SPLINE
  5
1ec
100
AcDbEntity
  8
0
 62
7
100
AcDbSpline
 70
8
 71
3
 72
8
 73
4
 74
0
 40
0
 40
0
 40
0
 40
0
 40
1
 40
1
 40
1
 40
1
 10
382.090643
 20
141.472695
 30
0.0
 10
387.196088
 20
136.477868
 30
0.0
 10
388.576208
 20
136.531920
 30
0.0
 10
389.641740
 20
134.138183
 30
0.0
  0
SPLINE
  5
1ed
100
AcDbEntity
  8
0
 62
7
100
AcDbSpline
 70
8
 71
3
 72
8
 73
4
 74
0
 40
0
 40
0
 40
0
 40
0
 40
1
 40
1
 40
1
 40
1
 10
389.641740
 20
134.138183
 30
0.0
 10
390.707273
 20
131.744445
 30
0.0
 10
391.209675
 20
130.428420
 30
0.0
 10
389.836650
 20
128.947695
 30
0.0
  0
SPLINE
  5
1ee
100
AcDbEntity
  8
0
 62
7
100
AcDbSpline
 70
8
 71
3
 72
8
 73
4
 74
0
 40
0
 40
0
 40
0
 40
0
 40
1
 40
1
 40
1
 40
1
 10
389.836650
 20
128.947695
 30
0.0
 10
388.463625
 20
127.466978
 30
0.0
 10
387.427208
 20
127.451423
 30
0.0
 10
382.918432
 20
128.687820
 30
0.0
  0
SPLINE
  5
1ef
100
AcDbEntity
  8
0
 62
7
100
AcDbSpline
 70
8
 71
3
 72
8
 73
4
 74
0
 40
0
 40
0
 40
0
 40
0
 40
1
 40
1
 40
1
 40
1
 10
382.918432
 20
128.687820
 30
0.0
 10
378.409657
 20
129.924218
 30
0.0
 10
372.720330
 20
135.034665
 30
0.0
 10
365.166870
 20
140.141985
 30
0.0
  0
SPLINE
  5
1f0
100
AcDbEntity
  8
0
 62
7
100
AcDbSpline
 70
8
 71
3
 72
8
 73
4
 74
0
 40
0
 40
0
 40
0
 40
0
 40
1
 40
1
 40
1
 40
1
 10
365.166870
 20
140.141985
 30
0.0
 10
357.613410
 20
145.249305
 30
0.0
 10
347.012857
 20
151.502378
 30
0.0
 10
337.758668
 20
159.546705
 30
0.0
  0
SPLINE
  5
1f1
100
AcDbEntity
  8
0
 62
7
100
AcDbSpline
 70
8
 71
3
 72
8
 73
4
 74
0
 40
0
 40
0
 40
0
 40
0
 40
1
 40
1
 40
1
 40
1
 10
337.758668
 20
159.546705
 30
0.0
 10
328.504478
 20
167.591033
 30
0.0
 10
316.980045
 20
178.528245
 30
0.0
 10
310.333635
 20
188.648970
 30
0.0
  0
SPLINE
  5
1f2
100
AcDbEntity
  8
0
 62
7
100
AcDbSpline
 70
8
 71
3
 72
8
 73
4
 74
0
 40
0
 40
0
 40
0
 40
0
 40
1
 40
1
 40
1
 40
1
 10
310.333635
 20
188.648970
 30
0.0
 10
303.687225
 20
198.769695
 30
0.0
 10
299.756070
 20
210.511778
 30
0.0
 10
297.421215
 20
218.646383
 30
0.0
  0
SPLINE
  5
1f3
100
AcDbEntity
  8
0
 62
7
100
AcDbSpline
 70
8
 71
3
 72
8
 73
4
 74
0
 40
0
 40
0
 40
0
 40
0
 40
1
 40
1
 40
1
 40
1
 10
297.421215
 20
218.646383
 30
0.0
 10
295.086360
 20
226.780988
 30
0.0
 10
292.932270
 20
233.038650
 30
0.0
 10
294.668363
 20
236.556758
 30
0.0
  0
SPLINE
  5
1f4
100
AcDbEntity
  8
0
 62
7
100
AcDbSpline
 70
8
 71
3
 72
8
 73
4
 74
0
 40
0
 40
0
 40
0
 40
0
 40
1
 40
1
 40
1
 40
1
 10
294.668363
 20
236.556758
 30
0.0
 10
296.404455
 20
240.074865
 30
0.0
 10
298.000958
 20
239.053350
 30
0.0
 10
299.418473
 20
239.160420
 30
0.0
  0
SPLINE
  5
1f5
100
AcDbEntity
  8
0
 62
7
100
AcDbSpline
 70
8
 71
3
 72
8
 73
4
 74
0
 40
0
 40
0
 40
0
 40
0
 40
1
 40
1
 40
1
 40
1
 10
299.418473
 20
239.160420
 30
0.0
 10
300.835987
 20
239.267490
 30
0.0
 10
299.980455
 20
239.256818
 30
0.0
 10
301.066815
 20
239.237422
 30
0.0
  0
LINE
  5
1f6
100
AcDbEntity
  8
0
 62
7
100
AcDbLine
 10
301.066815
 20
239.237422
 30
0.0
 11
301.066815
 21
239.237423
 31
0.0
  0
SPLINE
  5
1f7
100
AcDbEntity
  8
0
 62
7
100
AcDbSpline
 70
8
 71
3
 72
8
 73
4
 74
0
 40
0
 40
0
 40
0
 40
0
 40
1
 40
1
 40
1
 40
1
 10
407.058818
 20
128.028480
 30
0.0
 10
408.586245
 20
128.082105
 30
0.0
 10
413.634548
 20
125.832623
 30
0.0
 10
417.290573
 20
124.103738
 30
0.0
  0
SPLINE
  5
1f8
100
AcDbEntity
  8
0
 62
7
100
AcDbSpline
 70
8
 71
3
 72
8
 73
4
 74
0
 40
0
 40
0
 40
0
 40
0
 40
1
 40
1
 40
1
 40
1
 10
417.290573
 20
124.103738
 30
0.0
 10
420.946598
 20
122.374853
 30
0.0
 10
425.099100
 20
120.721493
 30
0.0
 10
428.903565
 20
117.137393
 30
0.0
  0
SPLINE
  5
1f9
100
AcDbEntity
  8
0
 62
7
100
AcDbSpline
 70
8
 71
3
 72
8
 73
4
 74
0
 40
0
 40
0
 40
0
 40
0
 40
1
 40
1
 40
1
 40
1
 10
428.903565
 20
117.137393
 30
0.0
 10
432.708030
 20
113.553292
 30
0.0
 10
437.626350
 20
107.287170
 30
0.0
 10
438.964455
 20
102.429855
 30
0.0
  0
SPLINE
  5
1fa
100
AcDbEntity
  8
0
 62
7
100
AcDbSpline
 70
8
 71
3
 72
8
 73
4
 74
0
 40
0
 40
0
 40
0
 40
0
 40
1
 40
1
 40
1
 40
1
 10
438.964455
 20
102.429855
 30
0.0
 10
440.302560
 20
97.572540
 30
0.0
 10
440.843730
 20
92.318370
 30
0.0
 10
438.192030
 20
90.044423
 30
0.0
  0
SPLINE
  5
1fb
100
AcDbEntity
  8
0
 62
7
100
AcDbSpline
 70
8
 71
3
 72
8
 73
4
 74
0
 40
0
 40
0
 40
0
 40
0
 40
1
 40
1
 40
1
 40
1
 10
438.192030
 20
90.044423
 30
0.0
 10
435.540330
 20
87.770475
 30
0.0
 10
433.372373
 20
89.484743
 30
0.0
 10
429.675990
 20
90.819270
 30
0.0
  0
SPLINE
  5
1fc
100
AcDbEntity
  8
0
 62
7
100
AcDbSpline
 70
8
 71
3
 72
8
 73
4
 74
0
 40
0
 40
0
 40
0
 40
0
 40
1
 40
1
 40
1
 40
1
 10
429.675990
 20
90.819270
 30
0.0
 10
425.979608
 20
92.153798
 30
0.0
 10
421.211108
 20
95.844585
 30
0.0
 10
417.290573
 20
99.332895
 30
0.0
  0
SPLINE
  5
1fd
100
AcDbEntity
  8
0
 62
7
100
AcDbSpline
 70
8
 71
3
 72
8
 73
4
 74
0
 40
0
 40
0
 40
0
 40
0
 40
1
 40
1
 40
1
 40
1
 10
417.290573
 20
99.332895
 30
0.0
 10
413.370038
 20
102.821205
 30
0.0
 10
409.259768
 20
107.656748
 30
0.0
 10
406.454820
 20
111.718320
 30
0.0
  0
SPLINE
  5
1fe
100
AcDbEntity
  8
0
 62
7
100
AcDbSpline
 70
8
 71
3
 72
8
 73
4
 74
0
 40
0
 40
0
 40
0
 40
0
 40
1
 40
1
 40
1
 40
1
 10
406.454820
 20
111.718320
 30
0.0
 10
403.649873
 20
115.779893
 30
0.0
 10
399.507668
 20
119.928555
 30
0.0
 10
400.263315
 20
123.328905
 30
0.0
  0
SPLINE
  5
1ff
100
AcDbEntity
  8
0
 62
7
100
AcDbSpline
 70
8
 71
3
 72
8
 73
4
 74
0
 40
0
 40
0
 40
0
 40
0
 40
1
 40
1
 40
1
 40
1
 10
400.263315
 20
123.328905
 30
0.0
 10
401.018963
 20
126.729255
 30
0.0
 10
404.769765
 20
127.718063
 30
0.0
 10
406.454820
 20
127.973138
 30
0.0
  0
SPLINE
  5
200
100
AcDbEntity
  8
0
 62
7
100
AcDbSpline
 70
8
 71
3
 72
8
 73
4
 74
0
 40
0
 40
0
 40
0
 40
0
 40
1
 40
1
 40
1
 40
1
 10
406.454820
 20
127.973138
 30
0.0
 10
408.139875
 20
128.228213
 30
0.0
 10
406.956990
 20
128.024888
 30
0.0
 10
407.058818
 20
128.028488
 30
0.0
  0
SPLINE
  5
201
100
AcDbEntity
  8
0
 62
7
100
AcDbSpline
 70
8
 71
3
 72
8
 73
4
 74
0
 40
0
 40
0
 40
0
 40
0
 40
1
 40
1
 40
1
 40
1
 10
407.058818
 20
128.028488
 30
0.0
 10
407.160645
 20
128.032238
 30
0.0
 10
405.531398
 20
127.974863
 30
0.0
 10
407.058818
 20
128.028480
 30
0.0
  0
LINE
  5
202
100
AcDbEntity
  8
0
 62
7
100
AcDbLine
 10
407.058818
 20
128.028480
 30
0.0
 11
407.058818
 21
128.028480
 31
0.0
  0
SPLINE
  5
203
100
AcDbEntity
  8
0
 62
7
100
AcDbSpline
 70
8
 71
3
 72
8
 73
4
 74
0
 40
0
 40
0
 40
0
 40
0
 40
1
 40
1
 40
1
 40
1
 10
154.985213
 20
120.580868
 30
0.0
 10
156.468548
 20
120.631793
 30
0.0
 10
158.634945
 20
120.155280
 30
0.0
 10
160.300823
 20
118.684672
 30
0.0
  0
SPLINE
  5
204
100
AcDbEntity
  8
0
 62
7
100
AcDbSpline
 70
8
 71
3
 72
8
 73
4
 74
0
 40
0
 40
0
 40
0
 40
0
 40
1
 40
1
 40
1
 40
1
 10
160.300823
 20
118.684672
 30
0.0
 10
161.966700
 20
117.214065
 30
0.0
 10
162.622935
 20
114.166133
 30
0.0
 10
162.622935
 20
111.718320
 30
0.0
  0
SPLINE
  5
205
100
AcDbEntity
  8
0
 62
7
100
AcDbSpline
 70
8
 71
3
 72
8
 73
4
 74
0
 40
0
 40
0
 40
0
 40
0
 40
1
 40
1
 40
1
 40
1
 10
162.622935
 20
111.718320
 30
0.0
 10
162.622935
 20
109.270508
 30
0.0
 10
162.079650
 20
108.838522
 30
0.0
 10
160.300823
 20
104.751968
 30
0.0
  0
SPLINE
  5
206
100
AcDbEntity
  8
0
 62
7
100
AcDbSpline
 70
8
 71
3
 72
8
 73
4
 74
0
 40
0
 40
0
 40
0
 40
0
 40
1
 40
1
 40
1
 40
1
 10
160.300823
 20
104.751968
 30
0.0
 10
158.521995
 20
100.665413
 30
0.0
 10
154.615718
 20
92.368958
 30
0.0
 10
151.012350
 20
87.722310
 30
0.0
  0
SPLINE
  5
207
100
AcDbEntity
  8
0
 62
7
100
AcDbSpline
 70
8
 71
3
 72
8
 73
4
 74
0
 40
0
 40
0
 40
0
 40
0
 40
1
 40
1
 40
1
 40
1
 10
151.012350
 20
87.722310
 30
0.0
 10
147.408983
 20
83.075663
 30
0.0
 10
143.325668
 20
78.036060
 30
0.0
 10
139.401773
 20
76.884158
 30
0.0
  0
SPLINE
  5
208
100
AcDbEntity
  8
0
 62
7
100
AcDbSpline
 70
8
 71
3
 72
8
 73
4
 74
0
 40
0
 40
0
 40
0
 40
0
 40
1
 40
1
 40
1
 40
1
 10
139.401773
 20
76.884158
 30
0.0
 10
135.477878
 20
75.732255
 30
0.0
 10
132.638993
 20
76.335960
 30
0.0
 10
130.888140
 20
78.433837
 30
0.0
  0
SPLINE
  5
209
100
AcDbEntity
  8
0
 62
7
100
AcDbSpline
 70
8
 71
3
 72
8
 73
4
 74
0
 40
0
 40
0
 40
0
 40
0
 40
1
 40
1
 40
1
 40
1
 10
130.888140
 20
78.433837
 30
0.0
 10
129.137288
 20
80.531715
 30
0.0
 10
130.412955
 20
82.127752
 30
0.0
 10
130.888140
 20
86.175037
 30
0.0
  0
SPLINE
  5
20a
100
AcDbEntity
  8
0
 62
7
100
AcDbSpline
 70
8
 71
3
 72
8
 73
4
 74
0
 40
0
 40
0
 40
0
 40
0
 40
1
 40
1
 40
1
 40
1
 10
130.888140
 20
86.175037
 30
0.0
 10
131.363325
 20
90.222323
 30
0.0
 10
132.752933
 20
98.156542
 30
0.0
 10
134.757533
 20
102.429855
 30
0.0
  0
SPLINE
  5
20b
100
AcDbEntity
  8
0
 62
7
100
AcDbSpline
 70
8
 71
3
 72
8
 73
4
 74
0
 40
0
 40
0
 40
0
 40
0
 40
1
 40
1
 40
1
 40
1
 10
134.757533
 20
102.429855
 30
0.0
 10
136.762133
 20
106.703168
 30
0.0
 10
138.765113
 20
108.692318
 30
0.0
 10
141.723885
 20
111.718320
 30
0.0
  0
SPLINE
  5
20c
100
AcDbEntity
  8
0
 62
7
100
AcDbSpline
 70
8
 71
3
 72
8
 73
4
 74
0
 40
0
 40
0
 40
0
 40
0
 40
1
 40
1
 40
1
 40
1
 10
141.723885
 20
111.718320
 30
0.0
 10
144.682658
 20
114.744323
 30
0.0
 10
150.365820
 20
119.707785
 30
0.0
 10
152.562038
 20
120.231952
 30
0.0
  0
SPLINE
  5
20d
100
AcDbEntity
  8
0
 62
7
100
AcDbSpline
 70
8
 71
3
 72
8
 73
4
 74
0
 40
0
 40
0
 40
0
 40
0
 40
1
 40
1
 40
1
 40
1
 10
152.562038
 20
120.231952
 30
0.0
 10
154.758255
 20
120.756120
 30
0.0
 10
153.501878
 20
120.529905
 30
0.0
 10
154.985213
 20
120.580868
 30
0.0
  0
LINE
  5
20e
100
AcDbEntity
  8
0
 62
7
100
AcDbLine
 10
154.985213
 20
120.580868
 30
0.0
 11
154.985213
 21
120.580868
 31
0.0
  0
ENDSEC
  0
SECTION
  2
OBJECTS
  0
DICTIONARY
  5
C
330
0
100
AcDbDictionary
  3
ACAD_GROUP
350
D
  3
ACAD_MLINESTYLE
350
17
  0
DICTIONARY
  5
D
330
C
100
AcDbDictionary
  0
DICTIONARY
  5
1A
330
C
100
AcDbDictionary
  0
DICTIONARY
  5
17
330
C
100
AcDbDictionary
  3
STANDARD
350
18
  0
DICTIONARY
  5
19
330
C
100
AcDbDictionary
  0
ENDSEC
  0
EOF
