  0
SECTION
  2
HEADER
  9
$ACADVER
  1
AC1014
  9
$HANDSEED
  5
FFFF
  9
$MEASUREMENT
 70
     1
  0
ENDSEC
  0
SECTION
  2
TABLES
  0
TABLE
  2
VPORT
  5
8
330
0
100
AcDbSymbolTable
 70
     4
  0
VPORT
  5
2E
330
8
100
AcDbSymbolTableRecord
100
AcDbViewportTableRecord
  2
*ACTIVE
 70
     0
 10
0.0
 20
0.0
 11
1.0
 21
1.0
 12
210.0
 22
148.5
 13
0.0
 23
0.0
 14
10.0
 24
10.0
 15
10.0
 25
10.0
 16
0.0
 26
0.0
 36
1.0
 17
0.0
 27
0.0
 37
0.0
 40
341.0
 41
1.24
 42
50.0
 43
0.0
 44
0.0
 50
0.0
 51
0.0
 71
     0
 72
   100
 73
     1
 74
     3
 75
     0
 76
     0
 77
     0
 78
     0
  0
ENDTAB
  0
TABLE
  2
LTYPE
  5
5
330
0
100
AcDbSymbolTable
 70
     1
  0
LTYPE
  5
14
330
5
100
AcDbSymbolTableRecord
100
AcDbLinetypeTableRecord
  2
BYBLOCK
 70
     0
  3

 72
    65
 73
     0
 40
0.0
  0
LTYPE
  5
15
330
5
100
AcDbSymbolTableRecord
100
AcDbLinetypeTableRecord
  2
BYLAYER
 70
     0
  3

 72
    65
 73
     0
 40
0.0
  0
LTYPE
  5
16
330
5
100
AcDbSymbolTableRecord
100
AcDbLinetypeTableRecord
  2
CONTINUOUS
 70
     0
  3
Solid line
 72
    65
 73
     0
 40
0.0
  0
ENDTAB
  0
TABLE
  2
LAYER
  5
2
100
AcDbSymbolTable
 70
1
  0
LAYER
  5
50
100
AcDbSymbolTableRecord
100
AcDbLayerTableRecord
  2
0
 70
0
  6
CONTINUOUS
  0
ENDTAB
  0
TABLE
  2
STYLE
  5
3
330
0
100
AcDbSymbolTable
 70
     1
  0
STYLE
  5
11
330
3
100
AcDbSymbolTableRecord
100
AcDbTextStyleTableRecord
  2
STANDARD
 70
     0
 40
0.0
 41
1.0
 50
0.0
 71
     0
 42
2.5
  3
txt
  4

  0
ENDTAB
  0
TABLE
  2
VIEW
  5
6
330
0
100
AcDbSymbolTable
 70
     0
  0
ENDTAB
  0
TABLE
  2
UCS
  5
7
330
0
100
AcDbSymbolTable
 70
     0
  0
ENDTAB
  0
TABLE
  2
APPID
  5
9
330
0
100
AcDbSymbolTable
 70
     2
  0
APPID
  5
12
330
9
100
AcDbSymbolTableRecord
100
AcDbRegAppTableRecord
  2
ACAD
 70
     0
  0
ENDTAB
  0
TABLE
  2
DIMSTYLE
  5
A
330
0
100
AcDbSymbolTable
 70
     1
  0
DIMSTYLE
105
27
330
A
100
AcDbSymbolTableRecord
100
AcDbDimStyleTableRecord
  2
ISO-25
 70
     0
  3

  4

  5

  6

  7

 40
1.0
 41
2.5
 42
0.625
 43
3.75
 44
1.25
 45
0.0
 46
0.0
 47
0.0
 48
0.0
140
2.5
141
2.5
142
0.0
143
0.03937007874016
144
1.0
145
0.0
146
1.0
147
0.625
 71
     0
 72
     0
 73
     0
 74
     0
 75
     0
 76
     0
 77
     1
 78
     8
170
     0
171
     3
172
     1
173
     0
174
     0
175
     0
176
     0
177
     0
178
     0
270
     2
271
     2
272
     2
273
     2
274
     3
340
11
275
     0
280
     0
281
     0
282
     0
283
     0
284
     8
285
     0
286
     0
287
     3
288
     0
  0
ENDTAB
  0
TABLE
  2
BLOCK_RECORD
  5
1
330
0
100
AcDbSymbolTable
 70
     1
  0
BLOCK_RECORD
  5
1F
330
1
100
AcDbSymbolTableRecord
100
AcDbBlockTableRecord
  2
*MODEL_SPACE
  0
BLOCK_RECORD
  5
1B
330
1
100
AcDbSymbolTableRecord
100
AcDbBlockTableRecord
  2
*PAPER_SPACE
  0
ENDTAB
  0
ENDSEC
  0
SECTION
  2
BLOCKS
  0
BLOCK
  5
20
330
1F
100
AcDbEntity
  8
0
100
AcDbBlockBegin
  2
*MODEL_SPACE
 70
     0
 10
0.0
 20
0.0
 30
0.0
  3
*MODEL_SPACE
  1

  0
ENDBLK
  5
21
330
1F
100
AcDbEntity
  8
0
100
AcDbBlockEnd
  0
BLOCK
  5
1C
330
1B
100
AcDbEntity
 67
     1
  8
0
100
AcDbBlockBegin
  2
*PAPER_SPACE
  1

  0
ENDBLK
  5
1D
330
1B
100
AcDbEntity
 67
     1
  8
0
100
AcDbBlockEnd
  0
ENDSEC
  0
SECTION
  2
ENTITIES
  0
SPLINE
  5
100
100
AcDbEntity
  8
0
 62
7
100
AcDbSpline
 70
8
 71
3
 72
8
 73
4
 74
0
 40
0
 40
0
 40
0
 40
0
 40
1
 40
1
 40
1
 40
1
 10
249.433410
 20
0.335700
 30
0.0
 10
226.770292
 20
1.488600
 30
0.0
 10
206.177392
 20
6.872175
 30
0.0
 10
181.768043
 20
18.024750
 30
0.0
  0
SPLINE
  5
101
100
AcDbEntity
  8
0
 62
7
100
AcDbSpline
 70
8
 71
3
 72
8
 73
4
 74
0
 40
0
 40
0
 40
0
 40
0
 40
1
 40
1
 40
1
 40
1
 10
181.768043
 20
18.024750
 30
0.0
 10
158.673518
 20
28.576725
 30
0.0
 10
138.687300
 20
42.077100
 30
0.0
 10
121.396950
 20
58.804425
 30
0.0
  0
SPLINE
  5
102
100
AcDbEntity
  8
0
 62
7
100
AcDbSpline
 70
8
 71
3
 72
8
 73
4
 74
0
 40
0
 40
0
 40
0
 40
0
 40
1
 40
1
 40
1
 40
1
 10
121.396950
 20
58.804425
 30
0.0
 10
106.140960
 20
73.563300
 30
0.0
 10
96.193350
 20
86.735700
 30
0.0
 10
88.677870
 20
102.129450
 30
0.0
  0
SPLINE
  5
103
100
AcDbEntity
  8
0
 62
7
100
AcDbSpline
 70
8
 71
3
 72
8
 73
4
 74
0
 40
0
 40
0
 40
0
 40
0
 40
1
 40
1
 40
1
 40
1
 10
88.677870
 20
102.129450
 30
0.0
 10
69.288108
 20
141.846075
 30
0.0
 10
71.910168
 20
187.611075
 30
0.0
 10
95.970683
 20
229.418250
 30
0.0
  0
SPLINE
  5
104
100
AcDbEntity
  8
0
 62
7
100
AcDbSpline
 70
8
 71
3
 72
8
 73
4
 74
0
 40
0
 40
0
 40
0
 40
0
 40
1
 40
1
 40
1
 40
1
 10
95.970683
 20
229.418250
 30
0.0
 10
98.284740
 20
233.439075
 30
0.0
 10
100.022520
 20
236.980500
 30
0.0
 10
99.832478
 20
237.288000
 30
0.0
  0
SPLINE
  5
105
100
AcDbEntity
  8
0
 62
7
100
AcDbSpline
 70
8
 71
3
 72
8
 73
4
 74
0
 40
0
 40
0
 40
0
 40
0
 40
1
 40
1
 40
1
 40
1
 10
99.832478
 20
237.288000
 30
0.0
 10
99.642397
 20
237.595575
 30
0.0
 10
96.654278
 20
238.768650
 30
0.0
 10
93.192135
 20
239.894850
 30
0.0
  0
LINE
  5
106
100
AcDbEntity
  8
0
 62
7
100
AcDbLine
 10
93.192135
 20
239.894850
 30
0.0
 11
86.897430
 21
241.942500
 31
0.0
  0
LINE
  5
107
100
AcDbEntity
  8
0
 62
7
100
AcDbLine
 10
86.897430
 20
241.942500
 30
0.0
 11
82.126500
 21
240.330975
 31
0.0
  0
SPLINE
  5
108
100
AcDbEntity
  8
0
 62
7
100
AcDbSpline
 70
8
 71
3
 72
8
 73
4
 74
0
 40
0
 40
0
 40
0
 40
0
 40
1
 40
1
 40
1
 40
1
 10
82.126500
 20
240.330975
 30
0.0
 10
79.502498
 20
239.444700
 30
0.0
 10
68.925675
 20
235.404450
 30
0.0
 10
58.622455
 20
231.352800
 30
0.0
  0
SPLINE
  5
109
100
AcDbEntity
  8
0
 62
7
100
AcDbSpline
 70
8
 71
3
 72
8
 73
4
 74
0
 40
0
 40
0
 40
0
 40
0
 40
1
 40
1
 40
1
 40
1
 10
58.622455
 20
231.352800
 30
0.0
 10
47.298559
 20
226.899825
 30
0.0
 10
39.621389
 20
224.254125
 30
0.0
 10
39.211919
 20
224.663550
 30
0.0
  0
SPLINE
  5
10a
100
AcDbEntity
  8
0
 62
7
100
AcDbSpline
 70
8
 71
3
 72
8
 73
4
 74
0
 40
0
 40
0
 40
0
 40
0
 40
1
 40
1
 40
1
 40
1
 10
39.211919
 20
224.663550
 30
0.0
 10
38.802419
 20
225.073050
 30
0.0
 10
40.928813
 20
230.120625
 30
0.0
 10
44.588139
 20
237.425475
 30
0.0
  0
SPLINE
  5
10b
100
AcDbEntity
  8
0
 62
7
100
AcDbSpline
 70
8
 71
3
 72
8
 73
4
 74
0
 40
0
 40
0
 40
0
 40
0
 40
1
 40
1
 40
1
 40
1
 10
44.588139
 20
237.425475
 30
0.0
 10
47.917669
 20
244.071900
 30
0.0
 10
50.836949
 20
250.750875
 30
0.0
 10
51.075469
 20
252.267525
 30
0.0
  0
SPLINE
  5
10c
100
AcDbEntity
  8
0
 62
7
100
AcDbSpline
 70
8
 71
3
 72
8
 73
4
 74
0
 40
0
 40
0
 40
0
 40
0
 40
1
 40
1
 40
1
 40
1
 10
51.075469
 20
252.267525
 30
0.0
 10
52.264935
 20
259.831575
 30
0.0
 10
39.173936
 20
264.435675
 30
0.0
 10
12.472127
 20
265.844325
 30
0.0
  0
LINE
  5
10d
100
AcDbEntity
  8
0
 62
7
100
AcDbLine
 10
12.472127
 20
265.844325
 30
0.0
 11
2.135884
 21
266.389650
 31
0.0
  0
LINE
  5
10e
100
AcDbEntity
  8
0
 62
7
100
AcDbLine
 10
2.135884
 20
266.389650
 30
0.0
 11
4.695790
 21
268.537050
 31
0.0
  0
SPLINE
  5
10f
100
AcDbEntity
  8
0
 62
7
100
AcDbSpline
 70
8
 71
3
 72
8
 73
4
 74
0
 40
0
 40
0
 40
0
 40
0
 40
1
 40
1
 40
1
 40
1
 10
4.695790
 20
268.537050
 30
0.0
 10
6.103757
 20
269.718225
 30
0.0
 10
11.088340
 20
272.539875
 30
0.0
 10
15.772697
 20
274.807500
 30
0.0
  0
SPLINE
  5
110
100
AcDbEntity
  8
0
 62
7
100
AcDbSpline
 70
8
 71
3
 72
8
 73
4
 74
0
 40
0
 40
0
 40
0
 40
0
 40
1
 40
1
 40
1
 40
1
 10
15.772697
 20
274.807500
 30
0.0
 10
38.641283
 20
285.877950
 30
0.0
 10
42.872172
 20
288.126825
 30
0.0
 10
45.457115
 20
290.585775
 30
0.0
  0
SPLINE
  5
111
100
AcDbEntity
  8
0
 62
7
100
AcDbSpline
 70
8
 71
3
 72
8
 73
4
 74
0
 40
0
 40
0
 40
0
 40
0
 40
1
 40
1
 40
1
 40
1
 10
45.457115
 20
290.585775
 30
0.0
 10
49.708029
 20
294.629625
 30
0.0
 10
50.145322
 20
298.511625
 30
0.0
 10
46.825366
 20
302.732250
 30
0.0
  0
SPLINE
  5
112
100
AcDbEntity
  8
0
 62
7
100
AcDbSpline
 70
8
 71
3
 72
8
 73
4
 74
0
 40
0
 40
0
 40
0
 40
0
 40
1
 40
1
 40
1
 40
1
 10
46.825366
 20
302.732250
 30
0.0
 10
43.426532
 20
307.053150
 30
0.0
 10
37.069146
 20
310.243950
 30
0.0
 10
18.735110
 20
316.831050
 30
0.0
  0
SPLINE
  5
113
100
AcDbEntity
  8
0
 62
7
100
AcDbSpline
 70
8
 71
3
 72
8
 73
4
 74
0
 40
0
 40
0
 40
0
 40
0
 40
1
 40
1
 40
1
 40
1
 10
18.735110
 20
316.831050
 30
0.0
 10
8.755450
 20
320.416575
 30
0.0
 10
0.330110
 20
323.593200
 30
0.0
 10
0.012080
 20
323.890350
 30
0.0
  0
SPLINE
  5
114
100
AcDbEntity
  8
0
 62
7
100
AcDbSpline
 70
8
 71
3
 72
8
 73
4
 74
0
 40
0
 40
0
 40
0
 40
0
 40
1
 40
1
 40
1
 40
1
 10
0.012080
 20
323.890350
 30
0.0
 10
-0.305900
 20
324.187425
 30
0.0
 10
5.692967
 20
326.176950
 30
0.0
 10
13.342970
 20
328.311525
 30
0.0
  0
SPLINE
  5
115
100
AcDbEntity
  8
0
 62
7
100
AcDbSpline
 70
8
 71
3
 72
8
 73
4
 74
0
 40
0
 40
0
 40
0
 40
0
 40
1
 40
1
 40
1
 40
1
 10
13.342970
 20
328.311525
 30
0.0
 10
43.956286
 20
336.853500
 30
0.0
 10
48.215446
 20
338.642775
 30
0.0
 10
49.870412
 20
343.657425
 30
0.0
  0
SPLINE
  5
116
100
AcDbEntity
  8
0
 62
7
100
AcDbSpline
 70
8
 71
3
 72
8
 73
4
 74
0
 40
0
 40
0
 40
0
 40
0
 40
1
 40
1
 40
1
 40
1
 10
49.870412
 20
343.657425
 30
0.0
 10
52.789272
 20
352.501575
 30
0.0
 10
45.745682
 20
366.303075
 30
0.0
 10
29.884439
 20
382.818750
 30
0.0
  0
SPLINE
  5
117
100
AcDbEntity
  8
0
 62
7
100
AcDbSpline
 70
8
 71
3
 72
8
 73
4
 74
0
 40
0
 40
0
 40
0
 40
0
 40
1
 40
1
 40
1
 40
1
 10
29.884439
 20
382.818750
 30
0.0
 10
20.956243
 20
392.115300
 30
0.0
 10
20.925337
 20
392.163000
 30
0.0
 10
24.421436
 20
391.235400
 30
0.0
  0
SPLINE
  5
118
100
AcDbEntity
  8
0
 62
7
100
AcDbSpline
 70
8
 71
3
 72
8
 73
4
 74
0
 40
0
 40
0
 40
0
 40
0
 40
1
 40
1
 40
1
 40
1
 10
24.421436
 20
391.235400
 30
0.0
 10
25.978283
 20
390.822375
 30
0.0
 10
31.584580
 20
389.018475
 30
0.0
 10
36.879916
 20
387.226800
 30
0.0
  0
SPLINE
  5
119
100
AcDbEntity
  8
0
 62
7
100
AcDbSpline
 70
8
 71
3
 72
8
 73
4
 74
0
 40
0
 40
0
 40
0
 40
0
 40
1
 40
1
 40
1
 40
1
 10
36.879916
 20
387.226800
 30
0.0
 10
48.941942
 20
383.145600
 30
0.0
 10
56.077305
 20
381.595875
 30
0.0
 10
63.171348
 20
381.516600
 30
0.0
  0
SPLINE
  5
11a
100
AcDbEntity
  8
0
 62
7
100
AcDbSpline
 70
8
 71
3
 72
8
 73
4
 74
0
 40
0
 40
0
 40
0
 40
0
 40
1
 40
1
 40
1
 40
1
 10
63.171348
 20
381.516600
 30
0.0
 10
77.273340
 20
381.358800
 30
0.0
 10
87.688327
 20
387.039450
 30
0.0
 10
100.794727
 20
402.037350
 30
0.0
  0
SPLINE
  5
11b
100
AcDbEntity
  8
0
 62
7
100
AcDbSpline
 70
8
 71
3
 72
8
 73
4
 74
0
 40
0
 40
0
 40
0
 40
0
 40
1
 40
1
 40
1
 40
1
 10
100.794727
 20
402.037350
 30
0.0
 10
103.202272
 20
404.792250
 30
0.0
 10
104.903963
 20
406.180125
 30
0.0
 10
105.335137
 20
405.740325
 30
0.0
  0
SPLINE
  5
11c
100
AcDbEntity
  8
0
 62
7
100
AcDbSpline
 70
8
 71
3
 72
8
 73
4
 74
0
 40
0
 40
0
 40
0
 40
0
 40
1
 40
1
 40
1
 40
1
 10
105.335137
 20
405.740325
 30
0.0
 10
106.418107
 20
404.635725
 30
0.0
 10
110.539222
 20
385.825800
 30
0.0
 10
111.291637
 20
378.553200
 30
0.0
  0
SPLINE
  5
11d
100
AcDbEntity
  8
0
 62
7
100
AcDbSpline
 70
8
 71
3
 72
8
 73
4
 74
0
 40
0
 40
0
 40
0
 40
0
 40
1
 40
1
 40
1
 40
1
 10
111.291637
 20
378.553200
 30
0.0
 10
112.023465
 20
371.479575
 30
0.0
 10
113.342273
 20
368.390700
 30
0.0
 10
116.698710
 20
365.888850
 30
0.0
  0
SPLINE
  5
11e
100
AcDbEntity
  8
0
 62
7
100
AcDbSpline
 70
8
 71
3
 72
8
 73
4
 74
0
 40
0
 40
0
 40
0
 40
0
 40
1
 40
1
 40
1
 40
1
 10
116.698710
 20
365.888850
 30
0.0
 10
118.420665
 20
364.605375
 30
0.0
 10
119.719192
 20
364.377450
 30
0.0
 10
124.703640
 20
364.483725
 30
0.0
  0
SPLINE
  5
11f
100
AcDbEntity
  8
0
 62
7
100
AcDbSpline
 70
8
 71
3
 72
8
 73
4
 74
0
 40
0
 40
0
 40
0
 40
0
 40
1
 40
1
 40
1
 40
1
 10
124.703640
 20
364.483725
 30
0.0
 10
135.535372
 20
364.714650
 30
0.0
 10
143.513392
 20
367.585800
 30
0.0
 10
150.132465
 20
373.635300
 30
0.0
  0
SPLINE
  5
120
100
AcDbEntity
  8
0
 62
7
100
AcDbSpline
 70
8
 71
3
 72
8
 73
4
 74
0
 40
0
 40
0
 40
0
 40
0
 40
1
 40
1
 40
1
 40
1
 10
150.132465
 20
373.635300
 30
0.0
 10
154.653413
 20
377.767200
 30
0.0
 10
156.680490
 20
381.433500
 30
0.0
 10
156.347670
 20
384.876600
 30
0.0
  0
SPLINE
  5
121
100
AcDbEntity
  8
0
 62
7
100
AcDbSpline
 70
8
 71
3
 72
8
 73
4
 74
0
 40
0
 40
0
 40
0
 40
0
 40
1
 40
1
 40
1
 40
1
 10
156.347670
 20
384.876600
 30
0.0
 10
156.157882
 20
386.839800
 30
0.0
 10
155.594707
 20
387.504450
 30
0.0
 10
153.154830
 20
388.644600
 30
0.0
  0
SPLINE
  5
122
100
AcDbEntity
  8
0
 62
7
100
AcDbSpline
 70
8
 71
3
 72
8
 73
4
 74
0
 40
0
 40
0
 40
0
 40
0
 40
1
 40
1
 40
1
 40
1
 10
153.154830
 20
388.644600
 30
0.0
 10
149.060707
 20
390.557625
 30
0.0
 10
136.128803
 20
403.890300
 30
0.0
 10
127.182795
 20
415.421475
 30
0.0
  0
SPLINE
  5
123
100
AcDbEntity
  8
0
 62
7
100
AcDbSpline
 70
8
 71
3
 72
8
 73
4
 74
0
 40
0
 40
0
 40
0
 40
0
 40
1
 40
1
 40
1
 40
1
 10
127.182795
 20
415.421475
 30
0.0
 10
118.233630
 20
426.956700
 30
0.0
 10
105.963645
 20
447.911925
 30
0.0
 10
102.102697
 20
458.254275
 30
0.0
  0
SPLINE
  5
124
100
AcDbEntity
  8
0
 62
7
100
AcDbSpline
 70
8
 71
3
 72
8
 73
4
 74
0
 40
0
 40
0
 40
0
 40
0
 40
1
 40
1
 40
1
 40
1
 10
102.102697
 20
458.254275
 30
0.0
 10
98.768527
 20
467.185650
 30
0.0
 10
94.699650
 20
482.840100
 30
0.0
 10
93.508950
 20
491.317350
 30
0.0
  0
SPLINE
  5
125
100
AcDbEntity
  8
0
 62
7
100
AcDbSpline
 70
8
 71
3
 72
8
 73
4
 74
0
 40
0
 40
0
 40
0
 40
0
 40
1
 40
1
 40
1
 40
1
 10
93.508950
 20
491.317350
 30
0.0
 10
92.275635
 20
500.098425
 30
0.0
 10
92.461042
 20
516.971925
 30
0.0
 10
93.879247
 20
525.014850
 30
0.0
  0
SPLINE
  5
126
100
AcDbEntity
  8
0
 62
7
100
AcDbSpline
 70
8
 71
3
 72
8
 73
4
 74
0
 40
0
 40
0
 40
0
 40
0
 40
1
 40
1
 40
1
 40
1
 10
93.879247
 20
525.014850
 30
0.0
 10
97.965375
 20
548.187900
 30
0.0
 10
110.563537
 20
571.674375
 30
0.0
 10
129.317100
 20
591.080700
 30
0.0
  0
SPLINE
  5
127
100
AcDbEntity
  8
0
 62
7
100
AcDbSpline
 70
8
 71
3
 72
8
 73
4
 74
0
 40
0
 40
0
 40
0
 40
0
 40
1
 40
1
 40
1
 40
1
 10
129.317100
 20
591.080700
 30
0.0
 10
133.013145
 20
594.905400
 30
0.0
 10
133.035787
 20
594.958050
 30
0.0
 10
132.192600
 20
597.772425
 30
0.0
  0
SPLINE
  5
128
100
AcDbEntity
  8
0
 62
7
100
AcDbSpline
 70
8
 71
3
 72
8
 73
4
 74
0
 40
0
 40
0
 40
0
 40
0
 40
1
 40
1
 40
1
 40
1
 10
132.192600
 20
597.772425
 30
0.0
 10
131.041770
 20
601.613475
 30
0.0
 10
128.442157
 20
604.092375
 30
0.0
 10
117.986850
 20
611.318400
 30
0.0
  0
SPLINE
  5
129
100
AcDbEntity
  8
0
 62
7
100
AcDbSpline
 70
8
 71
3
 72
8
 73
4
 74
0
 40
0
 40
0
 40
0
 40
0
 40
1
 40
1
 40
1
 40
1
 10
117.986850
 20
611.318400
 30
0.0
 10
113.092920
 20
614.700750
 30
0.0
 10
109.088842
 20
617.701950
 30
0.0
 10
109.088842
 20
617.987775
 30
0.0
  0
SPLINE
  5
12a
100
AcDbEntity
  8
0
 62
7
100
AcDbSpline
 70
8
 71
3
 72
8
 73
4
 74
0
 40
0
 40
0
 40
0
 40
0
 40
1
 40
1
 40
1
 40
1
 10
109.088842
 20
617.987775
 30
0.0
 10
109.088842
 20
618.273600
 30
0.0
 10
110.255107
 20
618.696750
 30
0.0
 10
111.680505
 20
618.928050
 30
0.0
  0
SPLINE
  5
12b
100
AcDbEntity
  8
0
 62
7
100
AcDbSpline
 70
8
 71
3
 72
8
 73
4
 74
0
 40
0
 40
0
 40
0
 40
0
 40
1
 40
1
 40
1
 40
1
 10
111.680505
 20
618.928050
 30
0.0
 10
119.852805
 20
620.254275
 30
0.0
 10
132.586957
 20
630.227700
 30
0.0
 10
134.318520
 20
636.658275
 30
0.0
  0
SPLINE
  5
12c
100
AcDbEntity
  8
0
 62
7
100
AcDbSpline
 70
8
 71
3
 72
8
 73
4
 74
0
 40
0
 40
0
 40
0
 40
0
 40
1
 40
1
 40
1
 40
1
 10
134.318520
 20
636.658275
 30
0.0
 10
135.453682
 20
640.873950
 30
0.0
 10
134.891242
 20
643.607925
 30
0.0
 10
130.141005
 20
656.964373
 30
0.0
  0
SPLINE
  5
12d
100
AcDbEntity
  8
0
 62
7
100
AcDbSpline
 70
8
 71
3
 72
8
 73
4
 74
0
 40
0
 40
0
 40
0
 40
0
 40
1
 40
1
 40
1
 40
1
 10
130.141005
 20
656.964373
 30
0.0
 10
127.886857
 20
663.302623
 30
0.0
 10
126.199290
 20
668.645248
 30
0.0
 10
126.390922
 20
668.836798
 30
0.0
  0
SPLINE
  5
12e
100
AcDbEntity
  8
0
 62
7
100
AcDbSpline
 70
8
 71
3
 72
8
 73
4
 74
0
 40
0
 40
0
 40
0
 40
0
 40
1
 40
1
 40
1
 40
1
 10
126.390922
 20
668.836798
 30
0.0
 10
126.582525
 20
669.028499
 30
0.0
 10
129.504832
 20
668.621174
 30
0.0
 10
132.884910
 20
667.931773
 30
0.0
  0
SPLINE
  5
12f
100
AcDbEntity
  8
0
 62
7
100
AcDbSpline
 70
8
 71
3
 72
8
 73
4
 74
0
 40
0
 40
0
 40
0
 40
0
 40
1
 40
1
 40
1
 40
1
 10
132.884910
 20
667.931773
 30
0.0
 10
141.053925
 20
666.265574
 30
0.0
 10
157.116345
 20
666.643199
 30
0.0
 10
160.788202
 20
668.587724
 30
0.0
  0
SPLINE
  5
130
100
AcDbEntity
  8
0
 62
7
100
AcDbSpline
 70
8
 71
3
 72
8
 73
4
 74
0
 40
0
 40
0
 40
0
 40
0
 40
1
 40
1
 40
1
 40
1
 10
160.788202
 20
668.587724
 30
0.0
 10
163.844767
 20
670.206374
 30
0.0
 10
167.188177
 20
675.381823
 30
0.0
 10
168.376042
 20
680.333324
 30
0.0
  0
SPLINE
  5
131
100
AcDbEntity
  8
0
 62
7
100
AcDbSpline
 70
8
 71
3
 72
8
 73
4
 74
0
 40
0
 40
0
 40
0
 40
0
 40
1
 40
1
 40
1
 40
1
 10
168.376042
 20
680.333324
 30
0.0
 10
169.253565
 20
683.991224
 30
0.0
 10
168.927367
 20
699.963373
 30
0.0
 10
167.830327
 20
707.057549
 30
0.0
  0
LINE
  5
132
100
AcDbEntity
  8
0
 62
7
100
AcDbLine
 10
167.830327
 20
707.057549
 30
0.0
 11
167.394757
 21
709.874024
 31
0.0
  0
LINE
  5
133
100
AcDbEntity
  8
0
 62
7
100
AcDbLine
 10
167.394757
 20
709.874024
 30
0.0
 11
172.656772
 21
705.915524
 31
0.0
  0
SPLINE
  5
134
100
AcDbEntity
  8
0
 62
7
100
AcDbSpline
 70
8
 71
3
 72
8
 73
4
 74
0
 40
0
 40
0
 40
0
 40
0
 40
1
 40
1
 40
1
 40
1
 10
172.656772
 20
705.915524
 30
0.0
 10
181.065037
 20
699.590099
 30
0.0
 10
191.757652
 20
694.983598
 30
0.0
 10
198.031942
 20
694.983598
 30
0.0
  0
SPLINE
  5
135
100
AcDbEntity
  8
0
 62
7
100
AcDbSpline
 70
8
 71
3
 72
8
 73
4
 74
0
 40
0
 40
0
 40
0
 40
0
 40
1
 40
1
 40
1
 40
1
 10
198.031942
 20
694.983598
 30
0.0
 10
205.372680
 20
694.983598
 30
0.0
 10
214.418062
 20
701.266724
 30
0.0
 10
223.673527
 20
712.794899
 30
0.0
  0
SPLINE
  5
136
100
AcDbEntity
  8
0
 62
7
100
AcDbSpline
 70
8
 71
3
 72
8
 73
4
 74
0
 40
0
 40
0
 40
0
 40
0
 40
1
 40
1
 40
1
 40
1
 10
223.673527
 20
712.794899
 30
0.0
 10
229.079227
 20
719.528024
 30
0.0
 10
230.302770
 20
720.691274
 30
0.0
 10
230.918302
 20
719.682524
 30
0.0
  0
SPLINE
  5
137
100
AcDbEntity
  8
0
 62
7
100
AcDbSpline
 70
8
 71
3
 72
8
 73
4
 74
0
 40
0
 40
0
 40
0
 40
0
 40
1
 40
1
 40
1
 40
1
 10
230.918302
 20
719.682524
 30
0.0
 10
233.721187
 20
715.089299
 30
0.0
 10
236.626125
 20
712.168649
 30
0.0
 10
240.207675
 20
710.342923
 30
0.0
  0
SPLINE
  5
138
100
AcDbEntity
  8
0
 62
7
100
AcDbSpline
 70
8
 71
3
 72
8
 73
4
 74
0
 40
0
 40
0
 40
0
 40
0
 40
1
 40
1
 40
1
 40
1
 10
240.207675
 20
710.342923
 30
0.0
 10
246.753382
 20
707.006099
 30
0.0
 10
255.055612
 20
706.942649
 30
0.0
 10
262.658310
 20
710.171474
 30
0.0
  0
SPLINE
  5
139
100
AcDbEntity
  8
0
 62
7
100
AcDbSpline
 70
8
 71
3
 72
8
 73
4
 74
0
 40
0
 40
0
 40
0
 40
0
 40
1
 40
1
 40
1
 40
1
 10
262.658310
 20
710.171474
 30
0.0
 10
263.535120
 20
710.543848
 30
0.0
 10
262.760512
 20
709.038224
 30
0.0
 10
260.520945
 20
706.017074
 30
0.0
  0
SPLINE
  5
13a
100
AcDbEntity
  8
0
 62
7
100
AcDbSpline
 70
8
 71
3
 72
8
 73
4
 74
0
 40
0
 40
0
 40
0
 40
0
 40
1
 40
1
 40
1
 40
1
 10
260.520945
 20
706.017074
 30
0.0
 10
256.368832
 20
700.415923
 30
0.0
 10
253.524030
 20
694.665449
 30
0.0
 10
253.513965
 20
691.853098
 30
0.0
  0
SPLINE
  5
13b
100
AcDbEntity
  8
0
 62
7
100
AcDbSpline
 70
8
 71
3
 72
8
 73
4
 74
0
 40
0
 40
0
 40
0
 40
0
 40
1
 40
1
 40
1
 40
1
 10
253.513965
 20
691.853098
 30
0.0
 10
253.498215
 20
687.467174
 30
0.0
 10
257.761485
 20
686.780248
 30
0.0
 10
271.373085
 20
688.975649
 30
0.0
  0
SPLINE
  5
13c
100
AcDbEntity
  8
0
 62
7
100
AcDbSpline
 70
8
 71
3
 72
8
 73
4
 74
0
 40
0
 40
0
 40
0
 40
0
 40
1
 40
1
 40
1
 40
1
 10
271.373085
 20
688.975649
 30
0.0
 10
282.395865
 20
690.753448
 30
0.0
 10
293.765655
 20
684.453674
 30
0.0
 10
305.210490
 20
670.226848
 30
0.0
  0
SPLINE
  5
13d
100
AcDbEntity
  8
0
 62
7
100
AcDbSpline
 70
8
 71
3
 72
8
 73
4
 74
0
 40
0
 40
0
 40
0
 40
0
 40
1
 40
1
 40
1
 40
1
 10
305.210490
 20
670.226848
 30
0.0
 10
309.096352
 20
665.396474
 30
0.0
 10
309.663922
 20
664.265698
 30
0.0
 10
310.125622
 20
660.433874
 30
0.0
  0
SPLINE
  5
13e
100
AcDbEntity
  8
0
 62
7
100
AcDbSpline
 70
8
 71
3
 72
8
 73
4
 74
0
 40
0
 40
0
 40
0
 40
0
 40
1
 40
1
 40
1
 40
1
 10
310.125622
 20
660.433874
 30
0.0
 10
310.904925
 20
653.966173
 30
0.0
 10
313.874257
 20
640.640550
 30
0.0
 10
316.124152
 20
633.513375
 30
0.0
  0
SPLINE
  5
13f
100
AcDbEntity
  8
0
 62
7
100
AcDbSpline
 70
8
 71
3
 72
8
 73
4
 74
0
 40
0
 40
0
 40
0
 40
0
 40
1
 40
1
 40
1
 40
1
 10
316.124152
 20
633.513375
 30
0.0
 10
324.545587
 20
606.837000
 30
0.0
 10
337.934655
 20
585.313800
 30
0.0
 10
359.431155
 20
563.896575
 30
0.0
  0
SPLINE
  5
140
100
AcDbEntity
  8
0
 62
7
100
AcDbSpline
 70
8
 71
3
 72
8
 73
4
 74
0
 40
0
 40
0
 40
0
 40
0
 40
1
 40
1
 40
1
 40
1
 10
359.431155
 20
563.896575
 30
0.0
 10
369.761055
 20
553.604700
 30
0.0
 10
370.591792
 20
552.957600
 30
0.0
 10
379.392757
 20
548.346975
 30
0.0
  0
SPLINE
  5
141
100
AcDbEntity
  8
0
 62
7
100
AcDbSpline
 70
8
 71
3
 72
8
 73
4
 74
0
 40
0
 40
0
 40
0
 40
0
 40
1
 40
1
 40
1
 40
1
 10
379.392757
 20
548.346975
 30
0.0
 10
393.738960
 20
540.831225
 30
0.0
 10
399.352455
 20
534.742575
 30
0.0
 10
399.389557
 20
526.657425
 30
0.0
  0
SPLINE
  5
142
100
AcDbEntity
  8
0
 62
7
100
AcDbSpline
 70
8
 71
3
 72
8
 73
4
 74
0
 40
0
 40
0
 40
0
 40
0
 40
1
 40
1
 40
1
 40
1
 10
399.389557
 20
526.657425
 30
0.0
 10
399.412207
 20
521.745675
 30
0.0
 10
397.986052
 20
518.811900
 30
0.0
 10
393.767520
 20
515.091675
 30
0.0
  0
SPLINE
  5
143
100
AcDbEntity
  8
0
 62
7
100
AcDbSpline
 70
8
 71
3
 72
8
 73
4
 74
0
 40
0
 40
0
 40
0
 40
0
 40
1
 40
1
 40
1
 40
1
 10
393.767520
 20
515.091675
 30
0.0
 10
384.831225
 20
507.210975
 30
0.0
 10
372.682957
 20
504.897975
 30
0.0
 10
363.949290
 20
509.414325
 30
0.0
  0
SPLINE
  5
144
100
AcDbEntity
  8
0
 62
7
100
AcDbSpline
 70
8
 71
3
 72
8
 73
4
 74
0
 40
0
 40
0
 40
0
 40
0
 40
1
 40
1
 40
1
 40
1
 10
363.949290
 20
509.414325
 30
0.0
 10
361.944922
 20
510.450825
 30
0.0
 10
358.156860
 20
514.418025
 30
0.0
 10
355.501087
 20
518.262075
 30
0.0
  0
SPLINE
  5
145
100
AcDbEntity
  8
0
 62
7
100
AcDbSpline
 70
8
 71
3
 72
8
 73
4
 74
0
 40
0
 40
0
 40
0
 40
0
 40
1
 40
1
 40
1
 40
1
 10
355.501087
 20
518.262075
 30
0.0
 10
354.501390
 20
519.709050
 30
0.0
 10
352.434922
 20
520.708800
 30
0.0
 10
346.984125
 20
522.382575
 30
0.0
  0
SPLINE
  5
146
100
AcDbEntity
  8
0
 62
7
100
AcDbSpline
 70
8
 71
3
 72
8
 73
4
 74
0
 40
0
 40
0
 40
0
 40
0
 40
1
 40
1
 40
1
 40
1
 10
346.984125
 20
522.382575
 30
0.0
 10
331.017922
 20
527.285175
 30
0.0
 10
323.176425
 20
528.327225
 30
0.0
 10
296.461755
 20
529.096725
 30
0.0
  0
SPLINE
  5
147
100
AcDbEntity
  8
0
 62
7
100
AcDbSpline
 70
8
 71
3
 72
8
 73
4
 74
0
 40
0
 40
0
 40
0
 40
0
 40
1
 40
1
 40
1
 40
1
 10
296.461755
 20
529.096725
 30
0.0
 10
273.332722
 20
529.762950
 30
0.0
 10
269.810182
 20
530.259675
 30
0.0
 10
261.974557
 20
533.960325
 30
0.0
  0
SPLINE
  5
148
100
AcDbEntity
  8
0
 62
7
100
AcDbSpline
 70
8
 71
3
 72
8
 73
4
 74
0
 40
0
 40
0
 40
0
 40
0
 40
1
 40
1
 40
1
 40
1
 10
261.974557
 20
533.960325
 30
0.0
 10
256.490730
 20
536.550300
 30
0.0
 10
249.266370
 20
544.226250
 30
0.0
 10
239.946930
 20
557.364900
 30
0.0
  0
LINE
  5
149
100
AcDbEntity
  8
0
 62
7
100
AcDbLine
 10
239.946930
 20
557.364900
 30
0.0
 11
238.728517
 21
559.082625
 31
0.0
  0
LINE
  5
14a
100
AcDbEntity
  8
0
 62
7
100
AcDbLine
 10
238.728517
 20
559.082625
 30
0.0
 11
236.099760
 21
556.120200
 31
0.0
  0
SPLINE
  5
14b
100
AcDbEntity
  8
0
 62
7
100
AcDbSpline
 70
8
 71
3
 72
8
 73
4
 74
0
 40
0
 40
0
 40
0
 40
0
 40
1
 40
1
 40
1
 40
1
 10
236.099760
 20
556.120200
 30
0.0
 10
234.653932
 20
554.490900
 30
0.0
 10
232.063455
 20
550.350150
 30
0.0
 10
230.343142
 20
546.918450
 30
0.0
  0
SPLINE
  5
14c
100
AcDbEntity
  8
0
 62
7
100
AcDbSpline
 70
8
 71
3
 72
8
 73
4
 74
0
 40
0
 40
0
 40
0
 40
0
 40
1
 40
1
 40
1
 40
1
 10
230.343142
 20
546.918450
 30
0.0
 10
227.394585
 20
541.036875
 30
0.0
 10
227.215267
 20
540.315075
 30
0.0
 10
227.215267
 20
534.328200
 30
0.0
  0
SPLINE
  5
14d
100
AcDbEntity
  8
0
 62
7
100
AcDbSpline
 70
8
 71
3
 72
8
 73
4
 74
0
 40
0
 40
0
 40
0
 40
0
 40
1
 40
1
 40
1
 40
1
 10
227.215267
 20
534.328200
 30
0.0
 10
227.215267
 20
528.673875
 30
0.0
 10
227.456047
 20
527.542500
 30
0.0
 10
229.410337
 20
524.014275
 30
0.0
  0
SPLINE
  5
14e
100
AcDbEntity
  8
0
 62
7
100
AcDbSpline
 70
8
 71
3
 72
8
 73
4
 74
0
 40
0
 40
0
 40
0
 40
0
 40
1
 40
1
 40
1
 40
1
 10
229.410337
 20
524.014275
 30
0.0
 10
233.712127
 20
516.247875
 30
0.0
 10
239.895090
 20
511.606875
 30
0.0
 10
271.984117
 20
492.057900
 30
0.0
  0
SPLINE
  5
14f
100
AcDbEntity
  8
0
 62
7
100
AcDbSpline
 70
8
 71
3
 72
8
 73
4
 74
0
 40
0
 40
0
 40
0
 40
0
 40
1
 40
1
 40
1
 40
1
 10
271.984117
 20
492.057900
 30
0.0
 10
304.807125
 20
472.061925
 30
0.0
 10
313.709220
 20
465.800100
 30
0.0
 10
325.477822
 20
454.430100
 30
0.0
  0
SPLINE
  5
150
100
AcDbEntity
  8
0
 62
7
100
AcDbSpline
 70
8
 71
3
 72
8
 73
4
 74
0
 40
0
 40
0
 40
0
 40
0
 40
1
 40
1
 40
1
 40
1
 10
325.477822
 20
454.430100
 30
0.0
 10
342.412890
 20
438.068775
 30
0.0
 10
351.650092
 20
423.167400
 30
0.0
 10
356.329657
 20
404.660175
 30
0.0
  0
SPLINE
  5
151
100
AcDbEntity
  8
0
 62
7
100
AcDbSpline
 70
8
 71
3
 72
8
 73
4
 74
0
 40
0
 40
0
 40
0
 40
0
 40
1
 40
1
 40
1
 40
1
 10
356.329657
 20
404.660175
 30
0.0
 10
358.729957
 20
395.167275
 30
0.0
 10
359.447760
 20
387.910050
 30
0.0
 10
359.478892
 20
372.820650
 30
0.0
  0
SPLINE
  5
152
100
AcDbEntity
  8
0
 62
7
100
AcDbSpline
 70
8
 71
3
 72
8
 73
4
 74
0
 40
0
 40
0
 40
0
 40
0
 40
1
 40
1
 40
1
 40
1
 10
359.478892
 20
372.820650
 30
0.0
 10
359.521792
 20
352.013100
 30
0.0
 10
358.328025
 20
346.605000
 30
0.0
 10
350.205660
 20
330.811725
 30
0.0
  0
SPLINE
  5
153
100
AcDbEntity
  8
0
 62
7
100
AcDbSpline
 70
8
 71
3
 72
8
 73
4
 74
0
 40
0
 40
0
 40
0
 40
0
 40
1
 40
1
 40
1
 40
1
 10
350.205660
 20
330.811725
 30
0.0
 10
344.848755
 20
320.395500
 30
0.0
 10
340.293225
 20
314.410350
 30
0.0
 10
329.440320
 20
303.529575
 30
0.0
  0
SPLINE
  5
154
100
AcDbEntity
  8
0
 62
7
100
AcDbSpline
 70
8
 71
3
 72
8
 73
4
 74
0
 40
0
 40
0
 40
0
 40
0
 40
1
 40
1
 40
1
 40
1
 10
329.440320
 20
303.529575
 30
0.0
 10
314.780490
 20
288.832050
 30
0.0
 10
306.748485
 20
283.545675
 30
0.0
 10
274.773465
 20
267.549600
 30
0.0
  0
SPLINE
  5
155
100
AcDbEntity
  8
0
 62
7
100
AcDbSpline
 70
8
 71
3
 72
8
 73
4
 74
0
 40
0
 40
0
 40
0
 40
0
 40
1
 40
1
 40
1
 40
1
 10
274.773465
 20
267.549600
 30
0.0
 10
255.272760
 20
257.794125
 30
0.0
 10
236.650635
 20
247.550100
 30
0.0
 10
229.066777
 20
242.406450
 30
0.0
  0
SPLINE
  5
156
100
AcDbEntity
  8
0
 62
7
100
AcDbSpline
 70
8
 71
3
 72
8
 73
4
 74
0
 40
0
 40
0
 40
0
 40
0
 40
1
 40
1
 40
1
 40
1
 10
229.066777
 20
242.406450
 30
0.0
 10
222.495067
 20
237.949200
 30
0.0
 10
216.379537
 20
231.006675
 30
0.0
 10
208.510582
 20
219.070350
 30
0.0
  0
SPLINE
  5
157
100
AcDbEntity
  8
0
 62
7
100
AcDbSpline
 70
8
 71
3
 72
8
 73
4
 74
0
 40
0
 40
0
 40
0
 40
0
 40
1
 40
1
 40
1
 40
1
 10
208.510582
 20
219.070350
 30
0.0
 10
200.666992
 20
207.172425
 30
0.0
 10
197.661322
 20
200.584650
 30
0.0
 10
194.555865
 20
188.484675
 30
0.0
  0
SPLINE
  5
158
100
AcDbEntity
  8
0
 62
7
100
AcDbSpline
 70
8
 71
3
 72
8
 73
4
 74
0
 40
0
 40
0
 40
0
 40
0
 40
1
 40
1
 40
1
 40
1
 10
194.555865
 20
188.484675
 30
0.0
 10
191.560912
 20
176.815500
 30
0.0
 10
190.554592
 20
166.287450
 30
0.0
 10
190.563195
 20
146.712975
 30
0.0
  0
SPLINE
  5
159
100
AcDbEntity
  8
0
 62
7
100
AcDbSpline
 70
8
 71
3
 72
8
 73
4
 74
0
 40
0
 40
0
 40
0
 40
0
 40
1
 40
1
 40
1
 40
1
 10
190.563195
 20
146.712975
 30
0.0
 10
190.574070
 20
121.746750
 30
0.0
 10
193.071135
 20
105.335025
 30
0.0
 10
198.718087
 20
93.114150
 30
0.0
  0
SPLINE
  5
15a
100
AcDbEntity
  8
0
 62
7
100
AcDbSpline
 70
8
 71
3
 72
8
 73
4
 74
0
 40
0
 40
0
 40
0
 40
0
 40
1
 40
1
 40
1
 40
1
 10
198.718087
 20
93.114150
 30
0.0
 10
202.151115
 20
85.684575
 30
0.0
 10
204.904815
 20
81.622425
 30
0.0
 10
210.728415
 20
75.396975
 30
0.0
  0
SPLINE
  5
15b
100
AcDbEntity
  8
0
 62
7
100
AcDbSpline
 70
8
 71
3
 72
8
 73
4
 74
0
 40
0
 40
0
 40
0
 40
0
 40
1
 40
1
 40
1
 40
1
 10
210.728415
 20
75.396975
 30
0.0
 10
221.942227
 20
63.409050
 30
0.0
 10
237.562117
 20
54.838950
 30
0.0
 10
254.617635
 20
51.315375
 30
0.0
  0
SPLINE
  5
15c
100
AcDbEntity
  8
0
 62
7
100
AcDbSpline
 70
8
 71
3
 72
8
 73
4
 74
0
 40
0
 40
0
 40
0
 40
0
 40
1
 40
1
 40
1
 40
1
 10
254.617635
 20
51.315375
 30
0.0
 10
261.104805
 20
49.975425
 30
0.0
 10
277.172047
 20
50.162850
 30
0.0
 10
283.756762
 20
51.655575
 30
0.0
  0
SPLINE
  5
15d
100
AcDbEntity
  8
0
 62
7
100
AcDbSpline
 70
8
 71
3
 72
8
 73
4
 74
0
 40
0
 40
0
 40
0
 40
0
 40
1
 40
1
 40
1
 40
1
 10
283.756762
 20
51.655575
 30
0.0
 10
297.945022
 20
54.871875
 30
0.0
 10
313.839337
 20
63.050588
 30
0.0
 10
319.215622
 20
72.530025
 30
0.0
  0
SPLINE
  5
15e
100
AcDbEntity
  8
0
 62
7
100
AcDbSpline
 70
8
 71
3
 72
8
 73
4
 74
0
 40
0
 40
0
 40
0
 40
0
 40
1
 40
1
 40
1
 40
1
 10
319.215622
 20
72.530025
 30
0.0
 10
324.591907
 20
82.009463
 30
0.0
 10
328.731990
 20
103.818075
 30
0.0
 10
325.819852
 20
114.719925
 30
0.0
  0
SPLINE
  5
15f
100
AcDbEntity
  8
0
 62
7
100
AcDbSpline
 70
8
 71
3
 72
8
 73
4
 74
0
 40
0
 40
0
 40
0
 40
0
 40
1
 40
1
 40
1
 40
1
 10
325.819852
 20
114.719925
 30
0.0
 10
323.708752
 20
122.623050
 30
0.0
 10
317.720955
 20
130.694325
 30
0.0
 10
311.684190
 20
133.774125
 30
0.0
  0
SPLINE
  5
160
100
AcDbEntity
  8
0
 62
7
100
AcDbSpline
 70
8
 71
3
 72
8
 73
4
 74
0
 40
0
 40
0
 40
0
 40
0
 40
1
 40
1
 40
1
 40
1
 10
311.684190
 20
133.774125
 30
0.0
 10
304.935855
 20
137.216475
 30
0.0
 10
295.840020
 20
136.142550
 30
0.0
 10
286.936875
 20
130.851150
 30
0.0
  0
SPLINE
  5
161
100
AcDbEntity
  8
0
 62
7
100
AcDbSpline
 70
8
 71
3
 72
8
 73
4
 74
0
 40
0
 40
0
 40
0
 40
0
 40
1
 40
1
 40
1
 40
1
 10
286.936875
 20
130.851150
 30
0.0
 10
278.055892
 20
125.573250
 30
0.0
 10
265.295145
 20
111.110175
 30
0.0
 10
257.168677
 20
97.111350
 30
0.0
  0
SPLINE
  5
162
100
AcDbEntity
  8
0
 62
7
100
AcDbSpline
 70
8
 71
3
 72
8
 73
4
 74
0
 40
0
 40
0
 40
0
 40
0
 40
1
 40
1
 40
1
 40
1
 10
257.168677
 20
97.111350
 30
0.0
 10
255.358282
 20
93.992550
 30
0.0
 10
253.677075
 20
91.430100
 30
0.0
 10
253.432695
 20
91.416000
 30
0.0
  0
SPLINE
  5
163
100
AcDbEntity
  8
0
 62
7
100
AcDbSpline
 70
8
 71
3
 72
8
 73
4
 74
0
 40
0
 40
0
 40
0
 40
0
 40
1
 40
1
 40
1
 40
1
 10
253.432695
 20
91.416000
 30
0.0
 10
253.188292
 20
91.404000
 30
0.0
 10
252.125085
 20
93.473550
 30
0.0
 10
251.070030
 20
96.019500
 30
0.0
  0
SPLINE
  5
164
100
AcDbEntity
  8
0
 62
7
100
AcDbSpline
 70
8
 71
3
 72
8
 73
4
 74
0
 40
0
 40
0
 40
0
 40
0
 40
1
 40
1
 40
1
 40
1
 10
251.070030
 20
96.019500
 30
0.0
 10
243.760905
 20
113.655975
 30
0.0
 10
250.657590
 20
136.482375
 30
0.0
 10
267.490237
 20
150.366750
 30
0.0
  0
SPLINE
  5
165
100
AcDbEntity
  8
0
 62
7
100
AcDbSpline
 70
8
 71
3
 72
8
 73
4
 74
0
 40
0
 40
0
 40
0
 40
0
 40
1
 40
1
 40
1
 40
1
 10
267.490237
 20
150.366750
 30
0.0
 10
282.884370
 20
163.064475
 30
0.0
 10
302.065155
 20
169.209525
 30
0.0
 10
316.585320
 20
166.095450
 30
0.0
  0
SPLINE
  5
166
100
AcDbEntity
  8
0
 62
7
100
AcDbSpline
 70
8
 71
3
 72
8
 73
4
 74
0
 40
0
 40
0
 40
0
 40
0
 40
1
 40
1
 40
1
 40
1
 10
316.585320
 20
166.095450
 30
0.0
 10
326.124555
 20
164.049675
 30
0.0
 10
340.326060
 20
155.699400
 30
0.0
 10
349.118557
 20
146.966925
 30
0.0
  0
SPLINE
  5
167
100
AcDbEntity
  8
0
 62
7
100
AcDbSpline
 70
8
 71
3
 72
8
 73
4
 74
0
 40
0
 40
0
 40
0
 40
0
 40
1
 40
1
 40
1
 40
1
 10
349.118557
 20
146.966925
 30
0.0
 10
359.997960
 20
136.161225
 30
0.0
 10
364.374390
 20
124.797075
 30
0.0
 10
365.125958
 20
105.400350
 30
0.0
  0
SPLINE
  5
168
100
AcDbEntity
  8
0
 62
7
100
AcDbSpline
 70
8
 71
3
 72
8
 73
4
 74
0
 40
0
 40
0
 40
0
 40
0
 40
1
 40
1
 40
1
 40
1
 10
365.125958
 20
105.400350
 30
0.0
 10
366.258390
 20
76.174575
 30
0.0
 10
355.398428
 20
45.800775
 30
0.0
 10
337.467292
 20
28.043325
 30
0.0
  0
SPLINE
  5
169
100
AcDbEntity
  8
0
 62
7
100
AcDbSpline
 70
8
 71
3
 72
8
 73
4
 74
0
 40
0
 40
0
 40
0
 40
0
 40
1
 40
1
 40
1
 40
1
 10
337.467292
 20
28.043325
 30
0.0
 10
321.612053
 20
12.342000
 30
0.0
 10
296.151390
 20
1.894275
 30
0.0
 10
270.634290
 20
0.618375
 30
0.0
  0
SPLINE
  5
16a
100
AcDbEntity
  8
0
 62
7
100
AcDbSpline
 70
8
 71
3
 72
8
 73
4
 74
0
 40
0
 40
0
 40
0
 40
0
 40
1
 40
1
 40
1
 40
1
 10
270.634290
 20
0.618375
 30
0.0
 10
266.305763
 20
0.402075
 30
0.0
 10
261.931118
 20
0.139500
 30
0.0
 10
260.912782
 20
0.035175
 30
0.0
  0
SPLINE
  5
16b
100
AcDbEntity
  8
0
 62
7
100
AcDbSpline
 70
8
 71
3
 72
8
 73
4
 74
0
 40
0
 40
0
 40
0
 40
0
 40
1
 40
1
 40
1
 40
1
 10
260.912782
 20
0.035175
 30
0.0
 10
259.894440
 20
-0.068925
 30
0.0
 10
254.728740
 20
0.065925
 30
0.0
 10
249.433410
 20
0.335700
 30
0.0
  0
LINE
  5
16c
100
AcDbEntity
  8
0
 62
7
100
AcDbLine
 10
249.433410
 20
0.335700
 30
0.0
 11
249.433410
 21
0.335700
 31
0.0
  0
ENDSEC
  0
SECTION
  2
OBJECTS
  0
DICTIONARY
  5
C
330
0
100
AcDbDictionary
  3
ACAD_GROUP
350
D
  3
ACAD_MLINESTYLE
350
17
  0
DICTIONARY
  5
D
330
C
100
AcDbDictionary
  0
DICTIONARY
  5
1A
330
C
100
AcDbDictionary
  0
DICTIONARY
  5
17
330
C
100
AcDbDictionary
  3
STANDARD
350
18
  0
DICTIONARY
  5
19
330
C
100
AcDbDictionary
  0
ENDSEC
  0
EOF
