  0
SECTION
  2
HEADER
  9
$ACADVER
  1
AC1014
  9
$HANDSEED
  5
FFFF
  9
$MEASUREMENT
 70
     1
  0
ENDSEC
  0
SECTION
  2
TABLES
  0
TABLE
  2
VPORT
  5
8
330
0
100
AcDbSymbolTable
 70
     4
  0
VPORT
  5
2E
330
8
100
AcDbSymbolTableRecord
100
AcDbViewportTableRecord
  2
*ACTIVE
 70
     0
 10
0.0
 20
0.0
 11
1.0
 21
1.0
 12
210.0
 22
148.5
 13
0.0
 23
0.0
 14
10.0
 24
10.0
 15
10.0
 25
10.0
 16
0.0
 26
0.0
 36
1.0
 17
0.0
 27
0.0
 37
0.0
 40
341.0
 41
1.24
 42
50.0
 43
0.0
 44
0.0
 50
0.0
 51
0.0
 71
     0
 72
   100
 73
     1
 74
     3
 75
     0
 76
     0
 77
     0
 78
     0
  0
ENDTAB
  0
TABLE
  2
LTYPE
  5
5
330
0
100
AcDbSymbolTable
 70
     1
  0
LTYPE
  5
14
330
5
100
AcDbSymbolTableRecord
100
AcDbLinetypeTableRecord
  2
BYBLOCK
 70
     0
  3

 72
    65
 73
     0
 40
0.0
  0
LTYPE
  5
15
330
5
100
AcDbSymbolTableRecord
100
AcDbLinetypeTableRecord
  2
BYLAYER
 70
     0
  3

 72
    65
 73
     0
 40
0.0
  0
LTYPE
  5
16
330
5
100
AcDbSymbolTableRecord
100
AcDbLinetypeTableRecord
  2
CONTINUOUS
 70
     0
  3
Solid line
 72
    65
 73
     0
 40
0.0
  0
ENDTAB
  0
TABLE
  2
LAYER
  5
2
100
AcDbSymbolTable
 70
1
  0
LAYER
  5
50
100
AcDbSymbolTableRecord
100
AcDbLayerTableRecord
  2
0
 70
0
  6
CONTINUOUS
  0
ENDTAB
  0
TABLE
  2
STYLE
  5
3
330
0
100
AcDbSymbolTable
 70
     1
  0
STYLE
  5
11
330
3
100
AcDbSymbolTableRecord
100
AcDbTextStyleTableRecord
  2
STANDARD
 70
     0
 40
0.0
 41
1.0
 50
0.0
 71
     0
 42
2.5
  3
txt
  4

  0
ENDTAB
  0
TABLE
  2
VIEW
  5
6
330
0
100
AcDbSymbolTable
 70
     0
  0
ENDTAB
  0
TABLE
  2
UCS
  5
7
330
0
100
AcDbSymbolTable
 70
     0
  0
ENDTAB
  0
TABLE
  2
APPID
  5
9
330
0
100
AcDbSymbolTable
 70
     2
  0
APPID
  5
12
330
9
100
AcDbSymbolTableRecord
100
AcDbRegAppTableRecord
  2
ACAD
 70
     0
  0
ENDTAB
  0
TABLE
  2
DIMSTYLE
  5
A
330
0
100
AcDbSymbolTable
 70
     1
  0
DIMSTYLE
105
27
330
A
100
AcDbSymbolTableRecord
100
AcDbDimStyleTableRecord
  2
ISO-25
 70
     0
  3

  4

  5

  6

  7

 40
1.0
 41
2.5
 42
0.625
 43
3.75
 44
1.25
 45
0.0
 46
0.0
 47
0.0
 48
0.0
140
2.5
141
2.5
142
0.0
143
0.03937007874016
144
1.0
145
0.0
146
1.0
147
0.625
 71
     0
 72
     0
 73
     0
 74
     0
 75
     0
 76
     0
 77
     1
 78
     8
170
     0
171
     3
172
     1
173
     0
174
     0
175
     0
176
     0
177
     0
178
     0
270
     2
271
     2
272
     2
273
     2
274
     3
340
11
275
     0
280
     0
281
     0
282
     0
283
     0
284
     8
285
     0
286
     0
287
     3
288
     0
  0
ENDTAB
  0
TABLE
  2
BLOCK_RECORD
  5
1
330
0
100
AcDbSymbolTable
 70
     1
  0
BLOCK_RECORD
  5
1F
330
1
100
AcDbSymbolTableRecord
100
AcDbBlockTableRecord
  2
*MODEL_SPACE
  0
BLOCK_RECORD
  5
1B
330
1
100
AcDbSymbolTableRecord
100
AcDbBlockTableRecord
  2
*PAPER_SPACE
  0
ENDTAB
  0
ENDSEC
  0
SECTION
  2
BLOCKS
  0
BLOCK
  5
20
330
1F
100
AcDbEntity
  8
0
100
AcDbBlockBegin
  2
*MODEL_SPACE
 70
     0
 10
0.0
 20
0.0
 30
0.0
  3
*MODEL_SPACE
  1

  0
ENDBLK
  5
21
330
1F
100
AcDbEntity
  8
0
100
AcDbBlockEnd
  0
BLOCK
  5
1C
330
1B
100
AcDbEntity
 67
     1
  8
0
100
AcDbBlockBegin
  2
*PAPER_SPACE
  1

  0
ENDBLK
  5
1D
330
1B
100
AcDbEntity
 67
     1
  8
0
100
AcDbBlockEnd
  0
ENDSEC
  0
SECTION
  2
ENTITIES
  0
SPLINE
  5
100
100
AcDbEntity
  8
0
 62
7
100
AcDbSpline
 70
8
 71
3
 72
8
 73
4
 74
0
 40
0
 40
0
 40
0
 40
0
 40
1
 40
1
 40
1
 40
1
 10
289.144058
 20
576.000000
 30
0.0
 10
266.258805
 20
576.000000
 30
0.0
 10
262.192643
 20
561.802573
 30
0.0
 10
245.962605
 20
486.205627
 30
0.0
  0
SPLINE
  5
101
100
AcDbEntity
  8
0
 62
7
100
AcDbSpline
 70
8
 71
3
 72
8
 73
4
 74
0
 40
0
 40
0
 40
0
 40
0
 40
1
 40
1
 40
1
 40
1
 10
245.962605
 20
486.205627
 30
0.0
 10
229.732560
 20
410.608687
 30
0.0
 10
221.115068
 20
392.029477
 30
0.0
 10
201.653340
 20
381.965475
 30
0.0
  0
SPLINE
  5
102
100
AcDbEntity
  8
0
 62
7
100
AcDbSpline
 70
8
 71
3
 72
8
 73
4
 74
0
 40
0
 40
0
 40
0
 40
0
 40
1
 40
1
 40
1
 40
1
 10
201.653340
 20
381.965475
 30
0.0
 10
182.191613
 20
371.901472
 30
0.0
 10
158.097465
 20
372.644662
 30
0.0
 10
85.726988
 20
382.625422
 30
0.0
  0
SPLINE
  5
103
100
AcDbEntity
  8
0
 62
7
100
AcDbSpline
 70
8
 71
3
 72
8
 73
4
 74
0
 40
0
 40
0
 40
0
 40
0
 40
1
 40
1
 40
1
 40
1
 10
85.726988
 20
382.625422
 30
0.0
 10
13.356499
 20
392.606182
 30
0.0
 10
0.000000
 20
389.842238
 30
0.0
 10
0.000000
 20
369.199448
 30
0.0
  0
SPLINE
  5
104
100
AcDbEntity
  8
0
 62
7
100
AcDbSpline
 70
8
 71
3
 72
8
 73
4
 74
0
 40
0
 40
0
 40
0
 40
0
 40
1
 40
1
 40
1
 40
1
 10
0.000000
 20
369.199448
 30
0.0
 10
0.000000
 20
348.556650
 30
0.0
 10
32.354426
 20
312.277298
 30
0.0
 10
81.731595
 20
283.400460
 30
0.0
  0
SPLINE
  5
105
100
AcDbEntity
  8
0
 62
7
100
AcDbSpline
 70
8
 71
3
 72
8
 73
4
 74
0
 40
0
 40
0
 40
0
 40
0
 40
1
 40
1
 40
1
 40
1
 10
81.731595
 20
283.400460
 30
0.0
 10
131.108760
 20
254.523630
 30
0.0
 10
152.352833
 20
234.728340
 30
0.0
 10
152.352833
 20
224.333468
 30
0.0
  0
SPLINE
  5
106
100
AcDbEntity
  8
0
 62
7
100
AcDbSpline
 70
8
 71
3
 72
8
 73
4
 74
0
 40
0
 40
0
 40
0
 40
0
 40
1
 40
1
 40
1
 40
1
 10
152.352833
 20
224.333468
 30
0.0
 10
152.352833
 20
213.938603
 30
0.0
 10
153.999180
 20
215.705408
 30
0.0
 10
132.699817
 20
165.662393
 30
0.0
  0
SPLINE
  5
107
100
AcDbEntity
  8
0
 62
7
100
AcDbSpline
 70
8
 71
3
 72
8
 73
4
 74
0
 40
0
 40
0
 40
0
 40
0
 40
1
 40
1
 40
1
 40
1
 10
132.699817
 20
165.662393
 30
0.0
 10
111.400455
 20
115.619378
 30
0.0
 10
93.713333
 20
28.569300
 30
0.0
 10
103.376257
 20
10.513973
 30
0.0
  0
SPLINE
  5
108
100
AcDbEntity
  8
0
 62
7
100
AcDbSpline
 70
8
 71
3
 72
8
 73
4
 74
0
 40
0
 40
0
 40
0
 40
0
 40
1
 40
1
 40
1
 40
1
 10
103.376257
 20
10.513973
 30
0.0
 10
113.039182
 20
-7.541362
 30
0.0
 10
131.236110
 20
1.505348
 30
0.0
 10
142.658347
 20
9.278108
 30
0.0
  0
SPLINE
  5
109
100
AcDbEntity
  8
0
 62
7
100
AcDbSpline
 70
8
 71
3
 72
8
 73
4
 74
0
 40
0
 40
0
 40
0
 40
0
 40
1
 40
1
 40
1
 40
1
 10
142.658347
 20
9.278108
 30
0.0
 10
154.080577
 20
17.050868
 30
0.0
 10
150.667492
 20
13.759777
 30
0.0
 10
206.404635
 20
64.757677
 30
0.0
  0
SPLINE
  5
10a
100
AcDbEntity
  8
0
 62
7
100
AcDbSpline
 70
8
 71
3
 72
8
 73
4
 74
0
 40
0
 40
0
 40
0
 40
0
 40
1
 40
1
 40
1
 40
1
 10
206.404635
 20
64.757677
 30
0.0
 10
262.141777
 20
115.755570
 30
0.0
 10
296.195437
 20
139.003875
 30
0.0
 10
354.258172
 20
103.499850
 30
0.0
  0
SPLINE
  5
10b
100
AcDbEntity
  8
0
 62
7
100
AcDbSpline
 70
8
 71
3
 72
8
 73
4
 74
0
 40
0
 40
0
 40
0
 40
0
 40
1
 40
1
 40
1
 40
1
 10
354.258172
 20
103.499850
 30
0.0
 10
412.320892
 20
67.995803
 30
0.0
 10
453.217192
 20
50.529780
 30
0.0
 10
483.862432
 20
44.864708
 30
0.0
  0
SPLINE
  5
10c
100
AcDbEntity
  8
0
 62
7
100
AcDbSpline
 70
8
 71
3
 72
8
 73
4
 74
0
 40
0
 40
0
 40
0
 40
0
 40
1
 40
1
 40
1
 40
1
 10
483.862432
 20
44.864708
 30
0.0
 10
514.507665
 20
39.199628
 30
0.0
 10
535.682572
 20
49.225365
 30
0.0
 10
535.682572
 20
57.654750
 30
0.0
  0
SPLINE
  5
10d
100
AcDbEntity
  8
0
 62
7
100
AcDbSpline
 70
8
 71
3
 72
8
 73
4
 74
0
 40
0
 40
0
 40
0
 40
0
 40
1
 40
1
 40
1
 40
1
 10
535.682572
 20
57.654750
 30
0.0
 10
535.682572
 20
66.084150
 30
0.0
 10
520.932952
 20
93.776603
 30
0.0
 10
498.824175
 20
136.314818
 30
0.0
  0
SPLINE
  5
10e
100
AcDbEntity
  8
0
 62
7
100
AcDbSpline
 70
8
 71
3
 72
8
 73
4
 74
0
 40
0
 40
0
 40
0
 40
0
 40
1
 40
1
 40
1
 40
1
 10
498.824175
 20
136.314818
 30
0.0
 10
476.715405
 20
178.853033
 30
0.0
 10
461.951767
 20
200.733405
 30
0.0
 10
461.977762
 20
223.289640
 30
0.0
  0
SPLINE
  5
10f
100
AcDbEntity
  8
0
 62
7
100
AcDbSpline
 70
8
 71
3
 72
8
 73
4
 74
0
 40
0
 40
0
 40
0
 40
0
 40
1
 40
1
 40
1
 40
1
 10
461.977762
 20
223.289640
 30
0.0
 10
462.002362
 20
245.845875
 30
0.0
 10
494.042662
 20
283.947878
 30
0.0
 10
562.426537
 20
315.411615
 30
0.0
  0
SPLINE
  5
110
100
AcDbEntity
  8
0
 62
7
100
AcDbSpline
 70
8
 71
3
 72
8
 73
4
 74
0
 40
0
 40
0
 40
0
 40
0
 40
1
 40
1
 40
1
 40
1
 10
562.426537
 20
315.411615
 30
0.0
 10
630.810420
 20
346.875360
 30
0.0
 10
623.121877
 20
376.530945
 30
0.0
 10
583.581787
 20
386.045273
 30
0.0
  0
SPLINE
  5
111
100
AcDbEntity
  8
0
 62
7
100
AcDbSpline
 70
8
 71
3
 72
8
 73
4
 74
0
 40
0
 40
0
 40
0
 40
0
 40
1
 40
1
 40
1
 40
1
 10
583.581787
 20
386.045273
 30
0.0
 10
564.679387
 20
390.593655
 30
0.0
 10
550.751460
 20
391.501358
 30
0.0
 10
482.192932
 20
391.819013
 30
0.0
  0
SPLINE
  5
112
100
AcDbEntity
  8
0
 62
7
100
AcDbSpline
 70
8
 71
3
 72
8
 73
4
 74
0
 40
0
 40
0
 40
0
 40
0
 40
1
 40
1
 40
1
 40
1
 10
482.192932
 20
391.819013
 30
0.0
 10
413.634413
 20
392.136607
 30
0.0
 10
395.803485
 20
378.508035
 30
0.0
 10
365.764380
 20
459.725700
 30
0.0
  0
SPLINE
  5
113
100
AcDbEntity
  8
0
 62
7
100
AcDbSpline
 70
8
 71
3
 72
8
 73
4
 74
0
 40
0
 40
0
 40
0
 40
0
 40
1
 40
1
 40
1
 40
1
 10
365.764380
 20
459.725700
 30
0.0
 10
335.725275
 20
540.943361
 30
0.0
 10
312.029258
 20
576.000000
 30
0.0
 10
289.144058
 20
576.000000
 30
0.0
  0
LINE
  5
114
100
AcDbEntity
  8
0
 62
7
100
AcDbLine
 10
289.144058
 20
576.000000
 30
0.0
 11
289.144058
 21
576.000000
 31
0.0
  0
SPLINE
  5
115
100
AcDbEntity
  8
0
 62
7
100
AcDbSpline
 70
8
 71
3
 72
8
 73
4
 74
0
 40
0
 40
0
 40
0
 40
0
 40
1
 40
1
 40
1
 40
1
 10
291.651660
 20
536.681973
 30
0.0
 10
298.447860
 20
536.681973
 30
0.0
 10
300.839168
 20
534.284891
 30
0.0
 10
304.693695
 20
529.315090
 30
0.0
  0
SPLINE
  5
116
100
AcDbEntity
  8
0
 62
7
100
AcDbSpline
 70
8
 71
3
 72
8
 73
4
 74
0
 40
0
 40
0
 40
0
 40
0
 40
1
 40
1
 40
1
 40
1
 10
304.693695
 20
529.315090
 30
0.0
 10
308.548223
 20
524.345290
 30
0.0
 10
309.002445
 20
520.916599
 30
0.0
 10
304.693695
 20
514.569332
 30
0.0
  0
SPLINE
  5
117
100
AcDbEntity
  8
0
 62
7
100
AcDbSpline
 70
8
 71
3
 72
8
 73
4
 74
0
 40
0
 40
0
 40
0
 40
0
 40
1
 40
1
 40
1
 40
1
 10
304.693695
 20
514.569332
 30
0.0
 10
300.384945
 20
508.222074
 30
0.0
 10
288.804473
 20
510.032064
 30
0.0
 10
285.088650
 20
514.507892
 30
0.0
  0
SPLINE
  5
118
100
AcDbEntity
  8
0
 62
7
100
AcDbSpline
 70
8
 71
3
 72
8
 73
4
 74
0
 40
0
 40
0
 40
0
 40
0
 40
1
 40
1
 40
1
 40
1
 10
285.088650
 20
514.507892
 30
0.0
 10
281.372835
 20
518.986553
 30
0.0
 10
284.855468
 20
536.681960
 30
0.0
 10
291.651660
 20
536.681960
 30
0.0
  0
LINE
  5
119
100
AcDbEntity
  8
0
 62
7
100
AcDbLine
 10
291.651660
 20
536.681960
 30
0.0
 11
291.651660
 21
536.681973
 31
0.0
  0
SPLINE
  5
11a
100
AcDbEntity
  8
0
 62
7
100
AcDbSpline
 70
8
 71
3
 72
8
 73
4
 74
0
 40
0
 40
0
 40
0
 40
0
 40
1
 40
1
 40
1
 40
1
 10
303.289883
 20
485.449785
 30
0.0
 10
311.460773
 20
485.449785
 30
0.0
 10
318.095655
 20
480.849975
 30
0.0
 10
318.095655
 20
470.704035
 30
0.0
  0
SPLINE
  5
11b
100
AcDbEntity
  8
0
 62
7
100
AcDbSpline
 70
8
 71
3
 72
8
 73
4
 74
0
 40
0
 40
0
 40
0
 40
0
 40
1
 40
1
 40
1
 40
1
 10
318.095655
 20
470.704035
 30
0.0
 10
318.095655
 20
460.558087
 30
0.0
 10
312.020963
 20
455.464500
 30
0.0
 10
304.429725
 20
454.386510
 30
0.0
  0
SPLINE
  5
11c
100
AcDbEntity
  8
0
 62
7
100
AcDbSpline
 70
8
 71
3
 72
8
 73
4
 74
0
 40
0
 40
0
 40
0
 40
0
 40
1
 40
1
 40
1
 40
1
 10
304.429725
 20
454.386510
 30
0.0
 10
296.838495
 20
453.308527
 30
0.0
 10
288.889432
 20
460.916288
 30
0.0
 10
289.384005
 20
468.736283
 30
0.0
  0
SPLINE
  5
11d
100
AcDbEntity
  8
0
 62
7
100
AcDbSpline
 70
8
 71
3
 72
8
 73
4
 74
0
 40
0
 40
0
 40
0
 40
0
 40
1
 40
1
 40
1
 40
1
 10
289.384005
 20
468.736283
 30
0.0
 10
289.878525
 20
476.556285
 30
0.0
 10
295.118993
 20
485.449785
 30
0.0
 10
303.289883
 20
485.449785
 30
0.0
  0
LINE
  5
11e
100
AcDbEntity
  8
0
 62
7
100
AcDbLine
 10
303.289883
 20
485.449785
 30
0.0
 11
303.289883
 21
485.449785
 31
0.0
  0
SPLINE
  5
11f
100
AcDbEntity
  8
0
 62
7
100
AcDbSpline
 70
8
 71
3
 72
8
 73
4
 74
0
 40
0
 40
0
 40
0
 40
0
 40
1
 40
1
 40
1
 40
1
 10
307.429268
 20
428.566410
 30
0.0
 10
323.089478
 20
428.566410
 30
0.0
 10
333.668693
 20
407.844555
 30
0.0
 10
324.478673
 20
396.771247
 30
0.0
  0
SPLINE
  5
120
100
AcDbEntity
  8
0
 62
7
100
AcDbSpline
 70
8
 71
3
 72
8
 73
4
 74
0
 40
0
 40
0
 40
0
 40
0
 40
1
 40
1
 40
1
 40
1
 10
324.478673
 20
396.771247
 30
0.0
 10
315.288645
 20
385.698000
 30
0.0
 10
296.796420
 20
386.300820
 30
0.0
 10
289.959923
 20
399.074903
 30
0.0
  0
SPLINE
  5
121
100
AcDbEntity
  8
0
 62
7
100
AcDbSpline
 70
8
 71
3
 72
8
 73
4
 74
0
 40
0
 40
0
 40
0
 40
0
 40
1
 40
1
 40
1
 40
1
 10
289.959923
 20
399.074903
 30
0.0
 10
283.123425
 20
411.848970
 30
0.0
 10
291.769058
 20
428.566410
 30
0.0
 10
307.429268
 20
428.566410
 30
0.0
  0
LINE
  5
122
100
AcDbEntity
  8
0
 62
7
100
AcDbLine
 10
307.429268
 20
428.566410
 30
0.0
 11
307.429268
 21
428.566410
 31
0.0
  0
SPLINE
  5
123
100
AcDbEntity
  8
0
 62
7
100
AcDbSpline
 70
8
 71
3
 72
8
 73
4
 74
0
 40
0
 40
0
 40
0
 40
0
 40
1
 40
1
 40
1
 40
1
 10
566.733870
 20
368.479537
 30
0.0
 10
569.404200
 20
368.373877
 30
0.0
 10
573.706680
 20
368.069797
 30
0.0
 10
578.887995
 20
362.888362
 30
0.0
  0
SPLINE
  5
124
100
AcDbEntity
  8
0
 62
7
100
AcDbSpline
 70
8
 71
3
 72
8
 73
4
 74
0
 40
0
 40
0
 40
0
 40
0
 40
1
 40
1
 40
1
 40
1
 10
578.887995
 20
362.888362
 30
0.0
 10
584.069295
 20
357.707062
 30
0.0
 10
584.857943
 20
352.965900
 30
0.0
 10
579.727875
 20
348.298582
 30
0.0
  0
SPLINE
  5
125
100
AcDbEntity
  8
0
 62
7
100
AcDbSpline
 70
8
 71
3
 72
8
 73
4
 74
0
 40
0
 40
0
 40
0
 40
0
 40
1
 40
1
 40
1
 40
1
 10
579.727875
 20
348.298582
 30
0.0
 10
574.597792
 20
343.631265
 30
0.0
 10
571.659135
 20
341.962200
 30
0.0
 10
563.938290
 20
343.751302
 30
0.0
  0
SPLINE
  5
126
100
AcDbEntity
  8
0
 62
7
100
AcDbSpline
 70
8
 71
3
 72
8
 73
4
 74
0
 40
0
 40
0
 40
0
 40
0
 40
1
 40
1
 40
1
 40
1
 10
563.938290
 20
343.751302
 30
0.0
 10
556.217430
 20
345.540405
 30
0.0
 10
557.311515
 20
365.747587
 30
0.0
 10
563.086425
 20
367.963642
 30
0.0
  0
SPLINE
  5
127
100
AcDbEntity
  8
0
 62
7
100
AcDbSpline
 70
8
 71
3
 72
8
 73
4
 74
0
 40
0
 40
0
 40
0
 40
0
 40
1
 40
1
 40
1
 40
1
 10
563.086425
 20
367.963642
 30
0.0
 10
568.861343
 20
370.179697
 30
0.0
 10
564.063540
 20
368.585258
 30
0.0
 10
566.733870
 20
368.479665
 30
0.0
  0
LINE
  5
128
100
AcDbEntity
  8
0
 62
7
100
AcDbLine
 10
566.733870
 20
368.479665
 30
0.0
 11
566.733870
 21
368.479537
 31
0.0
  0
SPLINE
  5
129
100
AcDbEntity
  8
0
 62
7
100
AcDbSpline
 70
8
 71
3
 72
8
 73
4
 74
0
 40
0
 40
0
 40
0
 40
0
 40
1
 40
1
 40
1
 40
1
 10
499.664055
 20
366.643807
 30
0.0
 10
507.456532
 20
366.522180
 30
0.0
 10
509.191095
 20
364.570463
 30
0.0
 10
512.742097
 20
358.941015
 30
0.0
  0
SPLINE
  5
12a
100
AcDbEntity
  8
0
 62
7
100
AcDbSpline
 70
8
 71
3
 72
8
 73
4
 74
0
 40
0
 40
0
 40
0
 40
0
 40
1
 40
1
 40
1
 40
1
 10
512.742097
 20
358.941015
 30
0.0
 10
516.293093
 20
353.311568
 30
0.0
 10
517.993433
 20
350.860245
 30
0.0
 10
511.446270
 20
342.971445
 30
0.0
  0
SPLINE
  5
12b
100
AcDbEntity
  8
0
 62
7
100
AcDbSpline
 70
8
 71
3
 72
8
 73
4
 74
0
 40
0
 40
0
 40
0
 40
0
 40
1
 40
1
 40
1
 40
1
 10
511.446270
 20
342.971445
 30
0.0
 10
504.899115
 20
335.082637
 30
0.0
 10
487.596308
 20
331.617270
 30
0.0
 10
483.142583
 20
343.223302
 30
0.0
  0
SPLINE
  5
12c
100
AcDbEntity
  8
0
 62
7
100
AcDbSpline
 70
8
 71
3
 72
8
 73
4
 74
0
 40
0
 40
0
 40
0
 40
0
 40
1
 40
1
 40
1
 40
1
 10
483.142583
 20
343.223302
 30
0.0
 10
478.688858
 20
354.829403
 30
0.0
 10
491.871578
 20
366.765075
 30
0.0
 10
499.664055
 20
366.643747
 30
0.0
  0
LINE
  5
12d
100
AcDbEntity
  8
0
 62
7
100
AcDbLine
 10
499.664055
 20
366.643747
 30
0.0
 11
499.664055
 21
366.643807
 31
0.0
  0
SPLINE
  5
12e
100
AcDbEntity
  8
0
 62
7
100
AcDbSpline
 70
8
 71
3
 72
8
 73
4
 74
0
 40
0
 40
0
 40
0
 40
0
 40
1
 40
1
 40
1
 40
1
 10
52.827974
 20
363.788265
 30
0.0
 10
59.132111
 20
363.695505
 30
0.0
 10
63.890288
 20
358.687365
 30
0.0
 10
63.890288
 20
352.725953
 30
0.0
  0
SPLINE
  5
12f
100
AcDbEntity
  8
0
 62
7
100
AcDbSpline
 70
8
 71
3
 72
8
 73
4
 74
0
 40
0
 40
0
 40
0
 40
0
 40
1
 40
1
 40
1
 40
1
 10
63.890288
 20
352.725953
 30
0.0
 10
63.890288
 20
346.764532
 30
0.0
 10
58.004677
 20
339.319942
 30
0.0
 10
51.256208
 20
340.103858
 30
0.0
  0
SPLINE
  5
130
100
AcDbEntity
  8
0
 62
7
100
AcDbSpline
 70
8
 71
3
 72
8
 73
4
 74
0
 40
0
 40
0
 40
0
 40
0
 40
1
 40
1
 40
1
 40
1
 10
51.256208
 20
340.103858
 30
0.0
 10
44.507745
 20
340.887772
 30
0.0
 10
40.428011
 20
347.021872
 30
0.0
 10
41.573693
 20
353.109893
 30
0.0
  0
SPLINE
  5
131
100
AcDbEntity
  8
0
 62
7
100
AcDbSpline
 70
8
 71
3
 72
8
 73
4
 74
0
 40
0
 40
0
 40
0
 40
0
 40
1
 40
1
 40
1
 40
1
 10
41.573693
 20
353.109893
 30
0.0
 10
42.719376
 20
359.197920
 30
0.0
 10
46.523838
 20
363.880958
 30
0.0
 10
52.827974
 20
363.788265
 30
0.0
  0
LINE
  5
132
100
AcDbEntity
  8
0
 62
7
100
AcDbLine
 10
52.827974
 20
363.788265
 30
0.0
 11
52.827974
 21
363.788265
 31
0.0
  0
SPLINE
  5
133
100
AcDbEntity
  8
0
 62
7
100
AcDbSpline
 70
8
 71
3
 72
8
 73
4
 74
0
 40
0
 40
0
 40
0
 40
0
 40
1
 40
1
 40
1
 40
1
 10
294.747210
 20
362.216498
 30
0.0
 10
304.498290
 20
362.477580
 30
0.0
 10
316.714635
 20
356.032830
 30
0.0
 10
316.487895
 20
345.083123
 30
0.0
  0
SPLINE
  5
134
100
AcDbEntity
  8
0
 62
7
100
AcDbSpline
 70
8
 71
3
 72
8
 73
4
 74
0
 40
0
 40
0
 40
0
 40
0
 40
1
 40
1
 40
1
 40
1
 10
316.487895
 20
345.083123
 30
0.0
 10
316.261215
 20
334.133407
 30
0.0
 10
307.111305
 20
323.979232
 30
0.0
 10
295.611045
 20
324.194295
 30
0.0
  0
SPLINE
  5
135
100
AcDbEntity
  8
0
 62
7
100
AcDbSpline
 70
8
 71
3
 72
8
 73
4
 74
0
 40
0
 40
0
 40
0
 40
0
 40
1
 40
1
 40
1
 40
1
 10
295.611045
 20
324.194295
 30
0.0
 10
284.110800
 20
324.409298
 30
0.0
 10
274.860638
 20
332.789250
 30
0.0
 10
276.078068
 20
345.539055
 30
0.0
  0
SPLINE
  5
136
100
AcDbEntity
  8
0
 62
7
100
AcDbSpline
 70
8
 71
3
 72
8
 73
4
 74
0
 40
0
 40
0
 40
0
 40
0
 40
1
 40
1
 40
1
 40
1
 10
276.078068
 20
345.539055
 30
0.0
 10
277.295498
 20
358.288868
 30
0.0
 10
284.996138
 20
361.955355
 30
0.0
 10
294.747210
 20
362.216498
 30
0.0
  0
LINE
  5
137
100
AcDbEntity
  8
0
 62
7
100
AcDbLine
 10
294.747210
 20
362.216498
 30
0.0
 11
294.747210
 21
362.216498
 31
0.0
  0
SPLINE
  5
138
100
AcDbEntity
  8
0
 62
7
100
AcDbSpline
 70
8
 71
3
 72
8
 73
4
 74
0
 40
0
 40
0
 40
0
 40
0
 40
1
 40
1
 40
1
 40
1
 10
417.070493
 20
350.905327
 30
0.0
 10
424.799490
 20
355.792515
 30
0.0
 10
434.849790
 20
355.414702
 30
0.0
 10
441.316905
 20
348.946492
 30
0.0
  0
SPLINE
  5
139
100
AcDbEntity
  8
0
 62
7
100
AcDbSpline
 70
8
 71
3
 72
8
 73
4
 74
0
 40
0
 40
0
 40
0
 40
0
 40
1
 40
1
 40
1
 40
1
 10
441.316905
 20
348.946492
 30
0.0
 10
447.784020
 20
342.479377
 30
0.0
 10
449.252580
 20
328.098525
 30
0.0
 10
439.493220
 20
318.339150
 30
0.0
  0
SPLINE
  5
13a
100
AcDbEntity
  8
0
 62
7
100
AcDbSpline
 70
8
 71
3
 72
8
 73
4
 74
0
 40
0
 40
0
 40
0
 40
0
 40
1
 40
1
 40
1
 40
1
 10
439.493220
 20
318.339150
 30
0.0
 10
429.733845
 20
308.579842
 30
0.0
 10
416.991772
 20
312.740317
 30
0.0
 10
410.337607
 20
320.462812
 30
0.0
  0
SPLINE
  5
13b
100
AcDbEntity
  8
0
 62
7
100
AcDbSpline
 70
8
 71
3
 72
8
 73
4
 74
0
 40
0
 40
0
 40
0
 40
0
 40
1
 40
1
 40
1
 40
1
 10
410.337607
 20
320.462812
 30
0.0
 10
403.683450
 20
328.185307
 30
0.0
 10
409.341495
 20
346.018140
 30
0.0
 10
417.070493
 20
350.905327
 30
0.0
  0
LINE
  5
13c
100
AcDbEntity
  8
0
 62
7
100
AcDbLine
 10
417.070493
 20
350.905327
 30
0.0
 11
417.070493
 21
350.905327
 31
0.0
  0
SPLINE
  5
13d
100
AcDbEntity
  8
0
 62
7
100
AcDbSpline
 70
8
 71
3
 72
8
 73
4
 74
0
 40
0
 40
0
 40
0
 40
0
 40
1
 40
1
 40
1
 40
1
 10
96.849248
 20
339.323992
 30
0.0
 10
103.161068
 20
339.827108
 30
0.0
 10
95.663768
 20
339.927240
 30
0.0
 10
101.948483
 20
339.204203
 30
0.0
  0
SPLINE
  5
13e
100
AcDbEntity
  8
0
 62
7
100
AcDbSpline
 70
8
 71
3
 72
8
 73
4
 74
0
 40
0
 40
0
 40
0
 40
0
 40
1
 40
1
 40
1
 40
1
 10
101.948483
 20
339.204203
 30
0.0
 10
108.233213
 20
338.481285
 30
0.0
 10
115.494435
 20
335.114332
 30
0.0
 10
115.494435
 20
325.358287
 30
0.0
  0
SPLINE
  5
13f
100
AcDbEntity
  8
0
 62
7
100
AcDbSpline
 70
8
 71
3
 72
8
 73
4
 74
0
 40
0
 40
0
 40
0
 40
0
 40
1
 40
1
 40
1
 40
1
 10
115.494435
 20
325.358287
 30
0.0
 10
115.494435
 20
315.602235
 30
0.0
 10
111.741218
 20
312.638760
 30
0.0
 10
101.948483
 20
311.512365
 30
0.0
  0
SPLINE
  5
140
100
AcDbEntity
  8
0
 62
7
100
AcDbSpline
 70
8
 71
3
 72
8
 73
4
 74
0
 40
0
 40
0
 40
0
 40
0
 40
1
 40
1
 40
1
 40
1
 10
101.948483
 20
311.512365
 30
0.0
 10
92.155763
 20
310.385970
 30
0.0
 10
88.722773
 20
309.129405
 30
0.0
 10
85.451033
 20
317.655427
 30
0.0
  0
SPLINE
  5
141
100
AcDbEntity
  8
0
 62
7
100
AcDbSpline
 70
8
 71
3
 72
8
 73
4
 74
0
 40
0
 40
0
 40
0
 40
0
 40
1
 40
1
 40
1
 40
1
 10
85.451033
 20
317.655427
 30
0.0
 10
82.179300
 20
326.181457
 30
0.0
 10
90.537435
 20
338.820877
 30
0.0
 10
96.849248
 20
339.324172
 30
0.0
  0
LINE
  5
142
100
AcDbEntity
  8
0
 62
7
100
AcDbLine
 10
96.849248
 20
339.324172
 30
0.0
 11
96.849248
 21
339.323992
 31
0.0
  0
SPLINE
  5
143
100
AcDbEntity
  8
0
 62
7
100
AcDbSpline
 70
8
 71
3
 72
8
 73
4
 74
0
 40
0
 40
0
 40
0
 40
0
 40
1
 40
1
 40
1
 40
1
 10
160.739535
 20
329.809425
 30
0.0
 10
170.108205
 20
330.668715
 30
0.0
 10
187.746608
 20
302.512657
 30
0.0
 10
173.997563
 20
292.459088
 30
0.0
  0
SPLINE
  5
144
100
AcDbEntity
  8
0
 62
7
100
AcDbSpline
 70
8
 71
3
 72
8
 73
4
 74
0
 40
0
 40
0
 40
0
 40
0
 40
1
 40
1
 40
1
 40
1
 10
173.997563
 20
292.459088
 30
0.0
 10
160.248525
 20
282.405532
 30
0.0
 10
155.245050
 20
284.005373
 30
0.0
 10
147.661560
 20
293.142997
 30
0.0
  0
SPLINE
  5
145
100
AcDbEntity
  8
0
 62
7
100
AcDbSpline
 70
8
 71
3
 72
8
 73
4
 74
0
 40
0
 40
0
 40
0
 40
0
 40
1
 40
1
 40
1
 40
1
 10
147.661560
 20
293.142997
 30
0.0
 10
140.078070
 20
302.280622
 30
0.0
 10
147.041295
 20
323.192977
 30
0.0
 10
153.576660
 20
327.289785
 30
0.0
  0
SPLINE
  5
146
100
AcDbEntity
  8
0
 62
7
100
AcDbSpline
 70
8
 71
3
 72
8
 73
4
 74
0
 40
0
 40
0
 40
0
 40
0
 40
1
 40
1
 40
1
 40
1
 10
153.576660
 20
327.289785
 30
0.0
 10
160.112018
 20
331.386600
 30
0.0
 10
151.370865
 20
328.950135
 30
0.0
 10
160.739535
 20
329.809425
 30
0.0
  0
LINE
  5
147
100
AcDbEntity
  8
0
 62
7
100
AcDbLine
 10
160.739535
 20
329.809425
 30
0.0
 11
160.739535
 21
329.809425
 31
0.0
  0
SPLINE
  5
148
100
AcDbEntity
  8
0
 62
7
100
AcDbSpline
 70
8
 71
3
 72
8
 73
4
 74
0
 40
0
 40
0
 40
0
 40
0
 40
1
 40
1
 40
1
 40
1
 10
350.718713
 20
323.450370
 30
0.0
 10
355.690785
 20
323.673892
 30
0.0
 10
362.822153
 20
322.708965
 30
0.0
 10
368.919945
 20
315.867555
 30
0.0
  0
SPLINE
  5
149
100
AcDbEntity
  8
0
 62
7
100
AcDbSpline
 70
8
 71
3
 72
8
 73
4
 74
0
 40
0
 40
0
 40
0
 40
0
 40
1
 40
1
 40
1
 40
1
 10
368.919945
 20
315.867555
 30
0.0
 10
375.017738
 20
309.026145
 30
0.0
 10
370.707458
 20
290.530905
 30
0.0
 10
359.453363
 20
285.308198
 30
0.0
  0
SPLINE
  5
14a
100
AcDbEntity
  8
0
 62
7
100
AcDbSpline
 70
8
 71
3
 72
8
 73
4
 74
0
 40
0
 40
0
 40
0
 40
0
 40
1
 40
1
 40
1
 40
1
 10
359.453363
 20
285.308198
 30
0.0
 10
348.199268
 20
280.085483
 30
0.0
 10
338.760938
 20
288.315285
 30
0.0
 10
334.845098
 20
296.670473
 30
0.0
  0
SPLINE
  5
14b
100
AcDbEntity
  8
0
 62
7
100
AcDbSpline
 70
8
 71
3
 72
8
 73
4
 74
0
 40
0
 40
0
 40
0
 40
0
 40
1
 40
1
 40
1
 40
1
 10
334.845098
 20
296.670473
 30
0.0
 10
330.929258
 20
305.025652
 30
0.0
 10
332.665410
 20
309.749063
 30
0.0
 10
335.787127
 20
314.120018
 30
0.0
  0
SPLINE
  5
14c
100
AcDbEntity
  8
0
 62
7
100
AcDbSpline
 70
8
 71
3
 72
8
 73
4
 74
0
 40
0
 40
0
 40
0
 40
0
 40
1
 40
1
 40
1
 40
1
 10
335.787127
 20
314.120018
 30
0.0
 10
338.908838
 20
318.490972
 30
0.0
 10
345.746647
 20
323.226848
 30
0.0
 10
350.718713
 20
323.450370
 30
0.0
  0
LINE
  5
14d
100
AcDbEntity
  8
0
 62
7
100
AcDbLine
 10
350.718713
 20
323.450370
 30
0.0
 11
350.718713
 21
323.450370
 31
0.0
  0
SPLINE
  5
14e
100
AcDbEntity
  8
0
 62
7
100
AcDbSpline
 70
8
 71
3
 72
8
 73
4
 74
0
 40
0
 40
0
 40
0
 40
0
 40
1
 40
1
 40
1
 40
1
 10
239.123655
 20
319.838925
 30
0.0
 10
244.593990
 20
320.025675
 30
0.0
 10
251.841218
 20
318.259357
 30
0.0
 10
256.293030
 20
308.488687
 30
0.0
  0
SPLINE
  5
14f
100
AcDbEntity
  8
0
 62
7
100
AcDbSpline
 70
8
 71
3
 72
8
 73
4
 74
0
 40
0
 40
0
 40
0
 40
0
 40
1
 40
1
 40
1
 40
1
 10
256.293030
 20
308.488687
 30
0.0
 10
260.744850
 20
298.718017
 30
0.0
 10
262.034220
 20
295.921387
 30
0.0
 10
253.113503
 20
286.064040
 30
0.0
  0
SPLINE
  5
150
100
AcDbEntity
  8
0
 62
7
100
AcDbSpline
 70
8
 71
3
 72
8
 73
4
 74
0
 40
0
 40
0
 40
0
 40
0
 40
1
 40
1
 40
1
 40
1
 10
253.113503
 20
286.064040
 30
0.0
 10
244.192785
 20
276.206693
 30
0.0
 10
233.051843
 20
276.069757
 30
0.0
 10
224.125905
 20
282.596587
 30
0.0
  0
SPLINE
  5
151
100
AcDbEntity
  8
0
 62
7
100
AcDbSpline
 70
8
 71
3
 72
8
 73
4
 74
0
 40
0
 40
0
 40
0
 40
0
 40
1
 40
1
 40
1
 40
1
 10
224.125905
 20
282.596587
 30
0.0
 10
215.199968
 20
289.123402
 30
0.0
 10
215.795603
 20
292.489133
 30
0.0
 10
217.047008
 20
303.485408
 30
0.0
  0
SPLINE
  5
152
100
AcDbEntity
  8
0
 62
7
100
AcDbSpline
 70
8
 71
3
 72
8
 73
4
 74
0
 40
0
 40
0
 40
0
 40
0
 40
1
 40
1
 40
1
 40
1
 10
217.047008
 20
303.485408
 30
0.0
 10
218.298405
 20
314.481675
 30
0.0
 10
227.034713
 20
318.793680
 30
0.0
 10
234.636323
 20
319.526978
 30
0.0
  0
SPLINE
  5
153
100
AcDbEntity
  8
0
 62
7
100
AcDbSpline
 70
8
 71
3
 72
8
 73
4
 74
0
 40
0
 40
0
 40
0
 40
0
 40
1
 40
1
 40
1
 40
1
 10
234.636323
 20
319.526978
 30
0.0
 10
242.237940
 20
320.260275
 30
0.0
 10
233.653253
 20
319.652295
 30
0.0
 10
239.123655
 20
319.839052
 30
0.0
  0
LINE
  5
154
100
AcDbEntity
  8
0
 62
7
100
AcDbLine
 10
239.123655
 20
319.839052
 30
0.0
 11
239.123655
 21
319.838925
 31
0.0
  0
SPLINE
  5
155
100
AcDbEntity
  8
0
 62
7
100
AcDbSpline
 70
8
 71
3
 72
8
 73
4
 74
0
 40
0
 40
0
 40
0
 40
0
 40
1
 40
1
 40
1
 40
1
 10
335.924918
 20
260.855902
 30
0.0
 10
341.345018
 20
260.672220
 30
0.0
 10
332.475960
 20
261.316635
 30
0.0
 10
340.364273
 20
260.556120
 30
0.0
  0
SPLINE
  5
156
100
AcDbEntity
  8
0
 62
7
100
AcDbSpline
 70
8
 71
3
 72
8
 73
4
 74
0
 40
0
 40
0
 40
0
 40
0
 40
1
 40
1
 40
1
 40
1
 10
340.364273
 20
260.556120
 30
0.0
 10
348.252585
 20
259.795117
 30
0.0
 10
356.706548
 20
254.762475
 30
0.0
 10
357.893640
 20
242.330872
 30
0.0
  0
SPLINE
  5
157
100
AcDbEntity
  8
0
 62
7
100
AcDbSpline
 70
8
 71
3
 72
8
 73
4
 74
0
 40
0
 40
0
 40
0
 40
0
 40
1
 40
1
 40
1
 40
1
 10
357.893640
 20
242.330872
 30
0.0
 10
359.080725
 20
229.899270
 30
0.0
 10
360.837765
 20
226.499580
 30
0.0
 10
352.974323
 20
221.514045
 30
0.0
  0
SPLINE
  5
158
100
AcDbEntity
  8
0
 62
7
100
AcDbSpline
 70
8
 71
3
 72
8
 73
4
 74
0
 40
0
 40
0
 40
0
 40
0
 40
1
 40
1
 40
1
 40
1
 10
352.974323
 20
221.514045
 30
0.0
 10
345.110895
 20
216.528517
 30
0.0
 10
324.024203
 20
218.498663
 30
0.0
 10
319.103490
 20
227.693115
 30
0.0
  0
SPLINE
  5
159
100
AcDbEntity
  8
0
 62
7
100
AcDbSpline
 70
8
 71
3
 72
8
 73
4
 74
0
 40
0
 40
0
 40
0
 40
0
 40
1
 40
1
 40
1
 40
1
 10
319.103490
 20
227.693115
 30
0.0
 10
314.182770
 20
236.887560
 30
0.0
 10
315.028050
 20
241.462673
 30
0.0
 10
318.971415
 20
250.117703
 30
0.0
  0
SPLINE
  5
15a
100
AcDbEntity
  8
0
 62
7
100
AcDbSpline
 70
8
 71
3
 72
8
 73
4
 74
0
 40
0
 40
0
 40
0
 40
0
 40
1
 40
1
 40
1
 40
1
 10
318.971415
 20
250.117703
 30
0.0
 10
322.914893
 20
258.772725
 30
0.0
 10
330.504653
 20
261.039893
 30
0.0
 10
335.924798
 20
260.856090
 30
0.0
  0
LINE
  5
15b
100
AcDbEntity
  8
0
 62
7
100
AcDbLine
 10
335.924798
 20
260.856090
 30
0.0
 11
335.924918
 21
260.855902
 31
0.0
  0
SPLINE
  5
15c
100
AcDbEntity
  8
0
 62
7
100
AcDbSpline
 70
8
 71
3
 72
8
 73
4
 74
0
 40
0
 40
0
 40
0
 40
0
 40
1
 40
1
 40
1
 40
1
 10
260.360423
 20
259.092173
 30
0.0
 10
266.073953
 20
259.049197
 30
0.0
 10
255.915540
 20
260.158298
 30
0.0
 10
262.448138
 20
258.900503
 30
0.0
  0
SPLINE
  5
15d
100
AcDbEntity
  8
0
 62
7
100
AcDbSpline
 70
8
 71
3
 72
8
 73
4
 74
0
 40
0
 40
0
 40
0
 40
0
 40
1
 40
1
 40
1
 40
1
 10
262.448138
 20
258.900503
 30
0.0
 10
268.980735
 20
257.642400
 30
0.0
 10
284.174445
 20
235.174260
 30
0.0
 10
278.417708
 20
224.417753
 30
0.0
  0
SPLINE
  5
15e
100
AcDbEntity
  8
0
 62
7
100
AcDbSpline
 70
8
 71
3
 72
8
 73
4
 74
0
 40
0
 40
0
 40
0
 40
0
 40
1
 40
1
 40
1
 40
1
 10
278.417708
 20
224.417753
 30
0.0
 10
272.660985
 20
213.661238
 30
0.0
 10
246.722190
 20
215.259420
 30
0.0
 10
240.575445
 20
221.406180
 30
0.0
  0
SPLINE
  5
15f
100
AcDbEntity
  8
0
 62
7
100
AcDbSpline
 70
8
 71
3
 72
8
 73
4
 74
0
 40
0
 40
0
 40
0
 40
0
 40
1
 40
1
 40
1
 40
1
 10
240.575445
 20
221.406180
 30
0.0
 10
234.428685
 20
227.552993
 30
0.0
 10
234.672330
 20
227.934165
 30
0.0
 10
234.672330
 20
235.384050
 30
0.0
  0
SPLINE
  5
160
100
AcDbEntity
  8
0
 62
7
100
AcDbSpline
 70
8
 71
3
 72
8
 73
4
 74
0
 40
0
 40
0
 40
0
 40
0
 40
1
 40
1
 40
1
 40
1
 10
234.672330
 20
235.384050
 30
0.0
 10
234.672330
 20
242.833928
 30
0.0
 10
254.646878
 20
259.133513
 30
0.0
 10
260.360423
 20
259.092472
 30
0.0
  0
LINE
  5
161
100
AcDbEntity
  8
0
 62
7
100
AcDbLine
 10
260.360423
 20
259.092472
 30
0.0
 11
260.360423
 21
259.092173
 31
0.0
  0
SPLINE
  5
162
100
AcDbEntity
  8
0
 62
7
100
AcDbSpline
 70
8
 71
3
 72
8
 73
4
 74
0
 40
0
 40
0
 40
0
 40
0
 40
1
 40
1
 40
1
 40
1
 10
364.968233
 20
188.705182
 30
0.0
 10
371.632358
 20
203.131155
 30
0.0
 10
394.462170
 20
199.865715
 30
0.0
 10
400.991055
 20
185.231377
 30
0.0
  0
SPLINE
  5
163
100
AcDbEntity
  8
0
 62
7
100
AcDbSpline
 70
8
 71
3
 72
8
 73
4
 74
0
 40
0
 40
0
 40
0
 40
0
 40
1
 40
1
 40
1
 40
1
 10
400.991055
 20
185.231377
 30
0.0
 10
407.519932
 20
170.597040
 30
0.0
 10
393.439185
 20
159.669615
 30
0.0
 10
382.167360
 20
160.613227
 30
0.0
  0
SPLINE
  5
164
100
AcDbEntity
  8
0
 62
7
100
AcDbSpline
 70
8
 71
3
 72
8
 73
4
 74
0
 40
0
 40
0
 40
0
 40
0
 40
1
 40
1
 40
1
 40
1
 10
382.167360
 20
160.613227
 30
0.0
 10
370.895535
 20
161.556840
 30
0.0
 10
358.304115
 20
174.279210
 30
0.0
 10
364.968233
 20
188.705182
 30
0.0
  0
LINE
  5
165
100
AcDbEntity
  8
0
 62
7
100
AcDbLine
 10
364.968233
 20
188.705182
 30
0.0
 11
364.968233
 21
188.705182
 31
0.0
  0
SPLINE
  5
166
100
AcDbEntity
  8
0
 62
7
100
AcDbSpline
 70
8
 71
3
 72
8
 73
4
 74
0
 40
0
 40
0
 40
0
 40
0
 40
1
 40
1
 40
1
 40
1
 10
208.048395
 20
197.013900
 30
0.0
 10
217.741545
 20
196.983225
 30
0.0
 10
203.680185
 20
197.939415
 30
0.0
 10
211.779817
 20
196.738080
 30
0.0
  0
SPLINE
  5
167
100
AcDbEntity
  8
0
 62
7
100
AcDbSpline
 70
8
 71
3
 72
8
 73
4
 74
0
 40
0
 40
0
 40
0
 40
0
 40
1
 40
1
 40
1
 40
1
 10
211.779817
 20
196.738080
 30
0.0
 10
219.879450
 20
195.536618
 30
0.0
 10
234.805260
 20
180.188655
 30
0.0
 10
228.001320
 20
169.322250
 30
0.0
  0
SPLINE
  5
168
100
AcDbEntity
  8
0
 62
7
100
AcDbSpline
 70
8
 71
3
 72
8
 73
4
 74
0
 40
0
 40
0
 40
0
 40
0
 40
1
 40
1
 40
1
 40
1
 10
228.001320
 20
169.322250
 30
0.0
 10
221.197380
 20
158.455838
 30
0.0
 10
203.597010
 20
153.220718
 30
0.0
 10
192.858682
 20
163.959045
 30
0.0
  0
SPLINE
  5
169
100
AcDbEntity
  8
0
 62
7
100
AcDbSpline
 70
8
 71
3
 72
8
 73
4
 74
0
 40
0
 40
0
 40
0
 40
0
 40
1
 40
1
 40
1
 40
1
 10
192.858682
 20
163.959045
 30
0.0
 10
182.120362
 20
174.697373
 30
0.0
 10
198.355252
 20
197.045723
 30
0.0
 10
208.048395
 20
197.014020
 30
0.0
  0
LINE
  5
16a
100
AcDbEntity
  8
0
 62
7
100
AcDbLine
 10
208.048395
 20
197.014020
 30
0.0
 11
208.048395
 21
197.013900
 31
0.0
  0
SPLINE
  5
16b
100
AcDbEntity
  8
0
 62
7
100
AcDbSpline
 70
8
 71
3
 72
8
 73
4
 74
0
 40
0
 40
0
 40
0
 40
0
 40
1
 40
1
 40
1
 40
1
 10
423.715613
 20
148.361310
 30
0.0
 10
434.222528
 20
148.235985
 30
0.0
 10
443.273963
 20
140.711775
 30
0.0
 10
441.508883
 20
128.228392
 30
0.0
  0
SPLINE
  5
16c
100
AcDbEntity
  8
0
 62
7
100
AcDbSpline
 70
8
 71
3
 72
8
 73
4
 74
0
 40
0
 40
0
 40
0
 40
0
 40
1
 40
1
 40
1
 40
1
 10
441.508883
 20
128.228392
 30
0.0
 10
439.743795
 20
115.745002
 30
0.0
 10
421.478858
 20
110.898367
 30
0.0
 10
414.177023
 20
119.949622
 30
0.0
  0
SPLINE
  5
16d
100
AcDbEntity
  8
0
 62
7
100
AcDbSpline
 70
8
 71
3
 72
8
 73
4
 74
0
 40
0
 40
0
 40
0
 40
0
 40
1
 40
1
 40
1
 40
1
 10
414.177023
 20
119.949622
 30
0.0
 10
406.875195
 20
129.000878
 30
0.0
 10
413.208690
 20
148.486627
 30
0.0
 10
423.715613
 20
148.361310
 30
0.0
  0
LINE
  5
16e
100
AcDbEntity
  8
0
 62
7
100
AcDbLine
 10
423.715613
 20
148.361310
 30
0.0
 11
423.715613
 21
148.361310
 31
0.0
  0
SPLINE
  5
16f
100
AcDbEntity
  8
0
 62
7
100
AcDbSpline
 70
8
 71
3
 72
8
 73
4
 74
0
 40
0
 40
0
 40
0
 40
0
 40
1
 40
1
 40
1
 40
1
 10
161.627460
 20
132.823650
 30
0.0
 10
167.660805
 20
133.369155
 30
0.0
 10
160.598677
 20
133.423823
 30
0.0
 10
166.498665
 20
132.739485
 30
0.0
  0
SPLINE
  5
170
100
AcDbEntity
  8
0
 62
7
100
AcDbSpline
 70
8
 71
3
 72
8
 73
4
 74
0
 40
0
 40
0
 40
0
 40
0
 40
1
 40
1
 40
1
 40
1
 10
166.498665
 20
132.739485
 30
0.0
 10
172.398645
 20
132.055208
 30
0.0
 10
179.384723
 20
128.555318
 30
0.0
 10
179.384723
 20
118.953585
 30
0.0
  0
SPLINE
  5
171
100
AcDbEntity
  8
0
 62
7
100
AcDbSpline
 70
8
 71
3
 72
8
 73
4
 74
0
 40
0
 40
0
 40
0
 40
0
 40
1
 40
1
 40
1
 40
1
 10
179.384723
 20
118.953585
 30
0.0
 10
179.384723
 20
109.351852
 30
0.0
 10
175.615950
 20
106.225028
 30
0.0
 10
166.498665
 20
105.167685
 30
0.0
  0
SPLINE
  5
172
100
AcDbEntity
  8
0
 62
7
100
AcDbSpline
 70
8
 71
3
 72
8
 73
4
 74
0
 40
0
 40
0
 40
0
 40
0
 40
1
 40
1
 40
1
 40
1
 10
166.498665
 20
105.167685
 30
0.0
 10
157.381372
 20
104.110342
 30
0.0
 10
153.847567
 20
103.038187
 30
0.0
 10
150.673073
 20
111.310747
 30
0.0
  0
SPLINE
  5
173
100
AcDbEntity
  8
0
 62
7
100
AcDbSpline
 70
8
 71
3
 72
8
 73
4
 74
0
 40
0
 40
0
 40
0
 40
0
 40
1
 40
1
 40
1
 40
1
 10
150.673073
 20
111.310747
 30
0.0
 10
147.498585
 20
119.583315
 30
0.0
 10
155.594108
 20
132.278265
 30
0.0
 10
161.627460
 20
132.823470
 30
0.0
  0
LINE
  5
174
100
AcDbEntity
  8
0
 62
7
100
AcDbLine
 10
161.627460
 20
132.823470
 30
0.0
 11
161.627460
 21
132.823650
 31
0.0
  0
SPLINE
  5
175
100
AcDbEntity
  8
0
 62
7
100
AcDbSpline
 70
8
 71
3
 72
8
 73
4
 74
0
 40
0
 40
0
 40
0
 40
0
 40
1
 40
1
 40
1
 40
1
 10
475.523715
 20
98.760840
 30
0.0
 10
480.719640
 20
99.148470
 30
0.0
 10
472.545675
 20
99.874515
 30
0.0
 10
479.699085
 20
98.496690
 30
0.0
  0
SPLINE
  5
176
100
AcDbEntity
  8
0
 62
7
100
AcDbSpline
 70
8
 71
3
 72
8
 73
4
 74
0
 40
0
 40
0
 40
0
 40
0
 40
1
 40
1
 40
1
 40
1
 10
479.699085
 20
98.496690
 30
0.0
 10
486.852510
 20
97.119037
 30
0.0
 10
492.410985
 20
87.121357
 30
0.0
 10
489.659535
 20
80.184307
 30
0.0
  0
SPLINE
  5
177
100
AcDbEntity
  8
0
 62
7
100
AcDbSpline
 70
8
 71
3
 72
8
 73
4
 74
0
 40
0
 40
0
 40
0
 40
0
 40
1
 40
1
 40
1
 40
1
 10
489.659535
 20
80.184307
 30
0.0
 10
486.203250
 20
71.470162
 30
0.0
 10
473.045707
 20
72.572175
 30
0.0
 10
467.424937
 20
78.615697
 30
0.0
  0
SPLINE
  5
178
100
AcDbEntity
  8
0
 62
7
100
AcDbSpline
 70
8
 71
3
 72
8
 73
4
 74
0
 40
0
 40
0
 40
0
 40
0
 40
1
 40
1
 40
1
 40
1
 10
467.424937
 20
78.615697
 30
0.0
 10
462.812047
 20
87.234907
 30
0.0
 10
470.327790
 20
98.373210
 30
0.0
 10
475.523715
 20
98.760652
 30
0.0
  0
LINE
  5
179
100
AcDbEntity
  8
0
 62
7
100
AcDbLine
 10
475.523715
 20
98.760652
 30
0.0
 11
475.523715
 21
98.760840
 31
0.0
  0
SPLINE
  5
17a
100
AcDbEntity
  8
0
 62
7
100
AcDbSpline
 70
8
 71
3
 72
8
 73
4
 74
0
 40
0
 40
0
 40
0
 40
0
 40
1
 40
1
 40
1
 40
1
 10
137.499082
 20
74.380545
 30
0.0
 10
142.644645
 20
73.917352
 30
0.0
 10
149.893215
 20
72.008888
 30
0.0
 10
149.893215
 20
62.370360
 30
0.0
  0
SPLINE
  5
17b
100
AcDbEntity
  8
0
 62
7
100
AcDbSpline
 70
8
 71
3
 72
8
 73
4
 74
0
 40
0
 40
0
 40
0
 40
0
 40
1
 40
1
 40
1
 40
1
 10
149.893215
 20
62.370360
 30
0.0
 10
149.893215
 20
52.731825
 30
0.0
 10
127.731615
 20
49.477957
 30
0.0
 10
124.649025
 20
57.511132
 30
0.0
  0
SPLINE
  5
17c
100
AcDbEntity
  8
0
 62
7
100
AcDbSpline
 70
8
 71
3
 72
8
 73
4
 74
0
 40
0
 40
0
 40
0
 40
0
 40
1
 40
1
 40
1
 40
1
 10
124.649025
 20
57.511132
 30
0.0
 10
121.566428
 20
65.544292
 30
0.0
 10
123.715275
 20
67.711687
 30
0.0
 10
126.604732
 20
70.601145
 30
0.0
  0
SPLINE
  5
17d
100
AcDbEntity
  8
0
 62
7
100
AcDbSpline
 70
8
 71
3
 72
8
 73
4
 74
0
 40
0
 40
0
 40
0
 40
0
 40
1
 40
1
 40
1
 40
1
 10
126.604732
 20
70.601145
 30
0.0
 10
129.494182
 20
73.490602
 30
0.0
 10
132.353535
 20
74.843670
 30
0.0
 10
137.499082
 20
74.380545
 30
0.0
  0
LINE
  5
17e
100
AcDbEntity
  8
0
 62
7
100
AcDbLine
 10
137.499082
 20
74.380545
 30
0.0
 11
137.499082
 21
74.380545
 31
0.0
  0
ENDSEC
  0
SECTION
  2
OBJECTS
  0
DICTIONARY
  5
C
330
0
100
AcDbDictionary
  3
ACAD_GROUP
350
D
  3
ACAD_MLINESTYLE
350
17
  0
DICTIONARY
  5
D
330
C
100
AcDbDictionary
  0
DICTIONARY
  5
1A
330
C
100
AcDbDictionary
  0
DICTIONARY
  5
17
330
C
100
AcDbDictionary
  3
STANDARD
350
18
  0
DICTIONARY
  5
19
330
C
100
AcDbDictionary
  0
ENDSEC
  0
EOF
