  0
SECTION
  2
HEADER
  9
$ACADVER
  1
AC1014
  9
$HANDSEED
  5
FFFF
  9
$MEASUREMENT
 70
     1
  0
ENDSEC
  0
SECTION
  2
TABLES
  0
TABLE
  2
VPORT
  5
8
330
0
100
AcDbSymbolTable
 70
     4
  0
VPORT
  5
2E
330
8
100
AcDbSymbolTableRecord
100
AcDbViewportTableRecord
  2
*ACTIVE
 70
     0
 10
0.0
 20
0.0
 11
1.0
 21
1.0
 12
210.0
 22
148.5
 13
0.0
 23
0.0
 14
10.0
 24
10.0
 15
10.0
 25
10.0
 16
0.0
 26
0.0
 36
1.0
 17
0.0
 27
0.0
 37
0.0
 40
341.0
 41
1.24
 42
50.0
 43
0.0
 44
0.0
 50
0.0
 51
0.0
 71
     0
 72
   100
 73
     1
 74
     3
 75
     0
 76
     0
 77
     0
 78
     0
  0
ENDTAB
  0
TABLE
  2
LTYPE
  5
5
330
0
100
AcDbSymbolTable
 70
     1
  0
LTYPE
  5
14
330
5
100
AcDbSymbolTableRecord
100
AcDbLinetypeTableRecord
  2
BYBLOCK
 70
     0
  3

 72
    65
 73
     0
 40
0.0
  0
LTYPE
  5
15
330
5
100
AcDbSymbolTableRecord
100
AcDbLinetypeTableRecord
  2
BYLAYER
 70
     0
  3

 72
    65
 73
     0
 40
0.0
  0
LTYPE
  5
16
330
5
100
AcDbSymbolTableRecord
100
AcDbLinetypeTableRecord
  2
CONTINUOUS
 70
     0
  3
Solid line
 72
    65
 73
     0
 40
0.0
  0
ENDTAB
  0
TABLE
  2
LAYER
  5
2
100
AcDbSymbolTable
 70
1
  0
LAYER
  5
50
100
AcDbSymbolTableRecord
100
AcDbLayerTableRecord
  2
0
 70
0
  6
CONTINUOUS
  0
ENDTAB
  0
TABLE
  2
STYLE
  5
3
330
0
100
AcDbSymbolTable
 70
     1
  0
STYLE
  5
11
330
3
100
AcDbSymbolTableRecord
100
AcDbTextStyleTableRecord
  2
STANDARD
 70
     0
 40
0.0
 41
1.0
 50
0.0
 71
     0
 42
2.5
  3
txt
  4

  0
ENDTAB
  0
TABLE
  2
VIEW
  5
6
330
0
100
AcDbSymbolTable
 70
     0
  0
ENDTAB
  0
TABLE
  2
UCS
  5
7
330
0
100
AcDbSymbolTable
 70
     0
  0
ENDTAB
  0
TABLE
  2
APPID
  5
9
330
0
100
AcDbSymbolTable
 70
     2
  0
APPID
  5
12
330
9
100
AcDbSymbolTableRecord
100
AcDbRegAppTableRecord
  2
ACAD
 70
     0
  0
ENDTAB
  0
TABLE
  2
DIMSTYLE
  5
A
330
0
100
AcDbSymbolTable
 70
     1
  0
DIMSTYLE
105
27
330
A
100
AcDbSymbolTableRecord
100
AcDbDimStyleTableRecord
  2
ISO-25
 70
     0
  3

  4

  5

  6

  7

 40
1.0
 41
2.5
 42
0.625
 43
3.75
 44
1.25
 45
0.0
 46
0.0
 47
0.0
 48
0.0
140
2.5
141
2.5
142
0.0
143
0.03937007874016
144
1.0
145
0.0
146
1.0
147
0.625
 71
     0
 72
     0
 73
     0
 74
     0
 75
     0
 76
     0
 77
     1
 78
     8
170
     0
171
     3
172
     1
173
     0
174
     0
175
     0
176
     0
177
     0
178
     0
270
     2
271
     2
272
     2
273
     2
274
     3
340
11
275
     0
280
     0
281
     0
282
     0
283
     0
284
     8
285
     0
286
     0
287
     3
288
     0
  0
ENDTAB
  0
TABLE
  2
BLOCK_RECORD
  5
1
330
0
100
AcDbSymbolTable
 70
     1
  0
BLOCK_RECORD
  5
1F
330
1
100
AcDbSymbolTableRecord
100
AcDbBlockTableRecord
  2
*MODEL_SPACE
  0
BLOCK_RECORD
  5
1B
330
1
100
AcDbSymbolTableRecord
100
AcDbBlockTableRecord
  2
*PAPER_SPACE
  0
ENDTAB
  0
ENDSEC
  0
SECTION
  2
BLOCKS
  0
BLOCK
  5
20
330
1F
100
AcDbEntity
  8
0
100
AcDbBlockBegin
  2
*MODEL_SPACE
 70
     0
 10
0.0
 20
0.0
 30
0.0
  3
*MODEL_SPACE
  1

  0
ENDBLK
  5
21
330
1F
100
AcDbEntity
  8
0
100
AcDbBlockEnd
  0
BLOCK
  5
1C
330
1B
100
AcDbEntity
 67
     1
  8
0
100
AcDbBlockBegin
  2
*PAPER_SPACE
  1

  0
ENDBLK
  5
1D
330
1B
100
AcDbEntity
 67
     1
  8
0
100
AcDbBlockEnd
  0
ENDSEC
  0
SECTION
  2
ENTITIES
  0
SPLINE
  5
100
100
AcDbEntity
  8
0
 62
7
100
AcDbSpline
 70
8
 71
3
 72
8
 73
4
 74
0
 40
0
 40
0
 40
0
 40
0
 40
1
 40
1
 40
1
 40
1
 10
683.808773
 20
309.083003
 30
0.0
 10
686.817098
 20
304.576748
 30
0.0
 10
689.617597
 20
299.920507
 30
0.0
 10
694.135148
 20
299.789288
 30
0.0
  0
SPLINE
  5
101
100
AcDbEntity
  8
0
 62
7
100
AcDbSpline
 70
8
 71
3
 72
8
 73
4
 74
0
 40
0
 40
0
 40
0
 40
0
 40
1
 40
1
 40
1
 40
1
 10
694.135148
 20
299.789288
 30
0.0
 10
698.652698
 20
299.658053
 30
0.0
 10
700.720373
 20
304.148805
 30
0.0
 10
704.461448
 20
308.050395
 30
0.0
  0
SPLINE
  5
102
100
AcDbEntity
  8
0
 62
7
100
AcDbSpline
 70
8
 71
3
 72
8
 73
4
 74
0
 40
0
 40
0
 40
0
 40
0
 40
1
 40
1
 40
1
 40
1
 10
704.461448
 20
308.050395
 30
0.0
 10
708.202598
 20
311.951985
 30
0.0
 10
712.520647
 20
314.718210
 30
0.0
 10
715.820423
 20
323.539913
 30
0.0
  0
SPLINE
  5
103
100
AcDbEntity
  8
0
 62
7
100
AcDbSpline
 70
8
 71
3
 72
8
 73
4
 74
0
 40
0
 40
0
 40
0
 40
0
 40
1
 40
1
 40
1
 40
1
 10
715.820423
 20
323.539913
 30
0.0
 10
719.120273
 20
332.361608
 30
0.0
 10
721.473698
 20
346.722795
 30
0.0
 10
718.918373
 20
360.714780
 30
0.0
  0
SPLINE
  5
104
100
AcDbEntity
  8
0
 62
7
100
AcDbSpline
 70
8
 71
3
 72
8
 73
4
 74
0
 40
0
 40
0
 40
0
 40
0
 40
1
 40
1
 40
1
 40
1
 10
718.918373
 20
360.714780
 30
0.0
 10
716.363047
 20
374.706773
 30
0.0
 10
707.749823
 20
390.252840
 30
0.0
 10
698.265623
 20
404.085453
 30
0.0
  0
SPLINE
  5
105
100
AcDbEntity
  8
0
 62
7
100
AcDbSpline
 70
8
 71
3
 72
8
 73
4
 74
0
 40
0
 40
0
 40
0
 40
0
 40
1
 40
1
 40
1
 40
1
 10
698.265623
 20
404.085453
 30
0.0
 10
688.781423
 20
417.918063
 30
0.0
 10
678.216847
 20
431.043273
 30
0.0
 10
662.123423
 20
442.292958
 30
0.0
  0
SPLINE
  5
106
100
AcDbEntity
  8
0
 62
7
100
AcDbSpline
 70
8
 71
3
 72
8
 73
4
 74
0
 40
0
 40
0
 40
0
 40
0
 40
1
 40
1
 40
1
 40
1
 10
662.123423
 20
442.292958
 30
0.0
 10
646.029998
 20
453.542643
 30
0.0
 10
623.698972
 20
463.853591
 30
0.0
 10
602.230598
 20
468.108843
 30
0.0
  0
SPLINE
  5
107
100
AcDbEntity
  8
0
 62
7
100
AcDbSpline
 70
8
 71
3
 72
8
 73
4
 74
0
 40
0
 40
0
 40
0
 40
0
 40
1
 40
1
 40
1
 40
1
 10
602.230598
 20
468.108843
 30
0.0
 10
580.762148
 20
472.364088
 30
0.0
 10
561.514073
 20
472.408818
 30
0.0
 10
541.305135
 20
470.174110
 30
0.0
  0
SPLINE
  5
108
100
AcDbEntity
  8
0
 62
7
100
AcDbSpline
 70
8
 71
3
 72
8
 73
4
 74
0
 40
0
 40
0
 40
0
 40
0
 40
1
 40
1
 40
1
 40
1
 10
541.305135
 20
470.174110
 30
0.0
 10
521.096258
 20
467.939403
 30
0.0
 10
498.829358
 20
463.209131
 30
0.0
 10
481.412243
 20
455.717208
 30
0.0
  0
SPLINE
  5
109
100
AcDbEntity
  8
0
 62
7
100
AcDbSpline
 70
8
 71
3
 72
8
 73
4
 74
0
 40
0
 40
0
 40
0
 40
0
 40
1
 40
1
 40
1
 40
1
 10
481.412243
 20
455.717208
 30
0.0
 10
463.995135
 20
448.225301
 30
0.0
 10
448.829640
 20
435.617343
 30
0.0
 10
433.911045
 20
422.672891
 30
0.0
  0
SPLINE
  5
10a
100
AcDbEntity
  8
0
 62
7
100
AcDbSpline
 70
8
 71
3
 72
8
 73
4
 74
0
 40
0
 40
0
 40
0
 40
0
 40
1
 40
1
 40
1
 40
1
 10
433.911045
 20
422.672891
 30
0.0
 10
418.992458
 20
409.728438
 30
0.0
 10
408.540308
 20
397.730958
 30
0.0
 10
392.605650
 20
378.269558
 30
0.0
  0
SPLINE
  5
10b
100
AcDbEntity
  8
0
 62
7
100
AcDbSpline
 70
8
 71
3
 72
8
 73
4
 74
0
 40
0
 40
0
 40
0
 40
0
 40
1
 40
1
 40
1
 40
1
 10
392.605650
 20
378.269558
 30
0.0
 10
376.670985
 20
358.808190
 30
0.0
 10
358.348898
 20
329.746155
 30
0.0
 10
339.941265
 20
304.952475
 30
0.0
  0
SPLINE
  5
10c
100
AcDbEntity
  8
0
 62
7
100
AcDbSpline
 70
8
 71
3
 72
8
 73
4
 74
0
 40
0
 40
0
 40
0
 40
0
 40
1
 40
1
 40
1
 40
1
 10
339.941265
 20
304.952475
 30
0.0
 10
321.533625
 20
280.158788
 30
0.0
 10
301.284315
 20
252.607350
 30
0.0
 10
282.113685
 20
229.570118
 30
0.0
  0
SPLINE
  5
10d
100
AcDbEntity
  8
0
 62
7
100
AcDbSpline
 70
8
 71
3
 72
8
 73
4
 74
0
 40
0
 40
0
 40
0
 40
0
 40
1
 40
1
 40
1
 40
1
 10
282.113685
 20
229.570118
 30
0.0
 10
262.943055
 20
206.532893
 30
0.0
 10
244.068623
 20
184.578713
 30
0.0
 10
225.318720
 20
166.579358
 30
0.0
  0
SPLINE
  5
10e
100
AcDbEntity
  8
0
 62
7
100
AcDbSpline
 70
8
 71
3
 72
8
 73
4
 74
0
 40
0
 40
0
 40
0
 40
0
 40
1
 40
1
 40
1
 40
1
 10
225.318720
 20
166.579358
 30
0.0
 10
206.568803
 20
148.580003
 30
0.0
 10
189.755145
 20
134.766045
 30
0.0
 10
170.589060
 20
121.143428
 30
0.0
  0
SPLINE
  5
10f
100
AcDbEntity
  8
0
 62
7
100
AcDbSpline
 70
8
 71
3
 72
8
 73
4
 74
0
 40
0
 40
0
 40
0
 40
0
 40
1
 40
1
 40
1
 40
1
 10
170.589060
 20
121.143428
 30
0.0
 10
151.422975
 20
107.520803
 30
0.0
 10
127.212263
 20
92.622780
 30
0.0
 10
110.696228
 20
85.001153
 30
0.0
  0
SPLINE
  5
110
100
AcDbEntity
  8
0
 62
7
100
AcDbSpline
 70
8
 71
3
 72
8
 73
4
 74
0
 40
0
 40
0
 40
0
 40
0
 40
1
 40
1
 40
1
 40
1
 10
110.696228
 20
85.001153
 30
0.0
 10
94.180185
 20
77.379533
 30
0.0
 10
85.931970
 20
76.047090
 30
0.0
 10
73.521342
 20
72.609570
 30
0.0
  0
SPLINE
  5
111
100
AcDbEntity
  8
0
 62
7
100
AcDbSpline
 70
8
 71
3
 72
8
 73
4
 74
0
 40
0
 40
0
 40
0
 40
0
 40
1
 40
1
 40
1
 40
1
 10
73.521342
 20
72.609570
 30
0.0
 10
61.110732
 20
69.172043
 30
0.0
 10
46.841630
 20
66.773828
 30
0.0
 10
36.346475
 20
64.348455
 30
0.0
  0
SPLINE
  5
112
100
AcDbEntity
  8
0
 62
7
100
AcDbSpline
 70
8
 71
3
 72
8
 73
4
 74
0
 40
0
 40
0
 40
0
 40
0
 40
1
 40
1
 40
1
 40
1
 10
36.346475
 20
64.348455
 30
0.0
 10
25.851312
 20
61.923083
 30
0.0
 10
16.704050
 20
62.459805
 30
0.0
 10
10.530575
 20
58.152660
 30
0.0
  0
SPLINE
  5
113
100
AcDbEntity
  8
0
 62
7
100
AcDbSpline
 70
8
 71
3
 72
8
 73
4
 74
0
 40
0
 40
0
 40
0
 40
0
 40
1
 40
1
 40
1
 40
1
 10
10.530575
 20
58.152660
 30
0.0
 10
4.357115
 20
53.845515
 30
0.0
 10
-1.139545
 20
49.599038
 30
0.0
 10
0.204259
 20
42.663143
 30
0.0
  0
SPLINE
  5
114
100
AcDbEntity
  8
0
 62
7
100
AcDbSpline
 70
8
 71
3
 72
8
 73
4
 74
0
 40
0
 40
0
 40
0
 40
0
 40
1
 40
1
 40
1
 40
1
 10
0.204259
 20
42.663143
 30
0.0
 10
1.548057
 20
35.727255
 30
0.0
 10
16.260380
 20
27.731378
 30
0.0
 10
24.987485
 20
23.043105
 30
0.0
  0
SPLINE
  5
115
100
AcDbEntity
  8
0
 62
7
100
AcDbSpline
 70
8
 71
3
 72
8
 73
4
 74
0
 40
0
 40
0
 40
0
 40
0
 40
1
 40
1
 40
1
 40
1
 10
24.987485
 20
23.043105
 30
0.0
 10
33.714597
 20
18.354833
 30
0.0
 10
40.165347
 20
18.619448
 30
0.0
 10
52.868645
 20
15.814590
 30
0.0
  0
SPLINE
  5
116
100
AcDbEntity
  8
0
 62
7
100
AcDbSpline
 70
8
 71
3
 72
8
 73
4
 74
0
 40
0
 40
0
 40
0
 40
0
 40
1
 40
1
 40
1
 40
1
 10
52.868645
 20
15.814590
 30
0.0
 10
65.571942
 20
13.009740
 30
0.0
 10
80.647778
 20
12.763650
 30
0.0
 10
95.206710
 20
13.749330
 30
0.0
  0
SPLINE
  5
117
100
AcDbEntity
  8
0
 62
7
100
AcDbSpline
 70
8
 71
3
 72
8
 73
4
 74
0
 40
0
 40
0
 40
0
 40
0
 40
1
 40
1
 40
1
 40
1
 10
95.206710
 20
13.749330
 30
0.0
 10
109.765650
 20
14.735010
 30
0.0
 10
123.776498
 20
19.083458
 30
0.0
 10
139.610040
 20
22.010445
 30
0.0
  0
SPLINE
  5
118
100
AcDbEntity
  8
0
 62
7
100
AcDbSpline
 70
8
 71
3
 72
8
 73
4
 74
0
 40
0
 40
0
 40
0
 40
0
 40
1
 40
1
 40
1
 40
1
 10
139.610040
 20
22.010445
 30
0.0
 10
155.443583
 20
24.937433
 30
0.0
 10
170.221005
 20
29.031833
 30
0.0
 10
190.209165
 20
31.304160
 30
0.0
  0
SPLINE
  5
119
100
AcDbEntity
  8
0
 62
7
100
AcDbSpline
 70
8
 71
3
 72
8
 73
4
 74
0
 40
0
 40
0
 40
0
 40
0
 40
1
 40
1
 40
1
 40
1
 10
190.209165
 20
31.304160
 30
0.0
 10
210.197318
 20
33.576495
 30
0.0
 10
233.909543
 20
34.146390
 30
0.0
 10
259.395720
 20
34.402028
 30
0.0
  0
SPLINE
  5
11a
100
AcDbEntity
  8
0
 62
7
100
AcDbSpline
 70
8
 71
3
 72
8
 73
4
 74
0
 40
0
 40
0
 40
0
 40
0
 40
1
 40
1
 40
1
 40
1
 10
259.395720
 20
34.402028
 30
0.0
 10
284.881898
 20
34.657665
 30
0.0
 10
312.185648
 20
32.864520
 30
0.0
 10
335.810678
 20
30.271500
 30
0.0
  0
SPLINE
  5
11b
100
AcDbEntity
  8
0
 62
7
100
AcDbSpline
 70
8
 71
3
 72
8
 73
4
 74
0
 40
0
 40
0
 40
0
 40
0
 40
1
 40
1
 40
1
 40
1
 10
335.810678
 20
30.271500
 30
0.0
 10
359.435700
 20
27.678427
 30
0.0
 10
382.969148
 20
24.970042
 30
0.0
 10
400.866705
 20
20.977785
 30
0.0
  0
SPLINE
  5
11c
100
AcDbEntity
  8
0
 62
7
100
AcDbSpline
 70
8
 71
3
 72
8
 73
4
 74
0
 40
0
 40
0
 40
0
 40
0
 40
1
 40
1
 40
1
 40
1
 10
400.866705
 20
20.977785
 30
0.0
 10
418.764263
 20
16.985528
 30
0.0
 10
435.103058
 20
11.995657
 30
0.0
 10
450.433223
 20
8.586195
 30
0.0
  0
SPLINE
  5
11d
100
AcDbEntity
  8
0
 62
7
100
AcDbSpline
 70
8
 71
3
 72
8
 73
4
 74
0
 40
0
 40
0
 40
0
 40
0
 40
1
 40
1
 40
1
 40
1
 10
450.433223
 20
8.586195
 30
0.0
 10
465.763358
 20
5.176733
 30
0.0
 10
476.654265
 20
1.415235
 30
0.0
 10
492.771233
 20
0.325080
 30
0.0
  0
SPLINE
  5
11e
100
AcDbEntity
  8
0
 62
7
100
AcDbSpline
 70
8
 71
3
 72
8
 73
4
 74
0
 40
0
 40
0
 40
0
 40
0
 40
1
 40
1
 40
1
 40
1
 10
492.771233
 20
0.325080
 30
0.0
 10
508.888200
 20
-0.765067
 30
0.0
 10
530.247068
 20
1.042965
 30
0.0
 10
546.468248
 20
3.423008
 30
0.0
  0
SPLINE
  5
11f
100
AcDbEntity
  8
0
 62
7
100
AcDbSpline
 70
8
 71
3
 72
8
 73
4
 74
0
 40
0
 40
0
 40
0
 40
0
 40
1
 40
1
 40
1
 40
1
 10
546.468248
 20
3.423008
 30
0.0
 10
562.689473
 20
5.803043
 30
0.0
 10
574.618598
 20
8.828145
 30
0.0
 10
589.838948
 20
13.749330
 30
0.0
  0
SPLINE
  5
120
100
AcDbEntity
  8
0
 62
7
100
AcDbSpline
 70
8
 71
3
 72
8
 73
4
 74
0
 40
0
 40
0
 40
0
 40
0
 40
1
 40
1
 40
1
 40
1
 10
589.838948
 20
13.749330
 30
0.0
 10
605.059223
 20
18.670515
 30
0.0
 10
624.773198
 20
28.214138
 30
0.0
 10
637.340198
 20
33.369428
 30
0.0
  0
SPLINE
  5
121
100
AcDbEntity
  8
0
 62
7
100
AcDbSpline
 70
8
 71
3
 72
8
 73
4
 74
0
 40
0
 40
0
 40
0
 40
0
 40
1
 40
1
 40
1
 40
1
 10
637.340198
 20
33.369428
 30
0.0
 10
649.907198
 20
38.524718
 30
0.0
 10
658.422248
 20
40.823917
 30
0.0
 10
665.221373
 20
44.728410
 30
0.0
  0
SPLINE
  5
122
100
AcDbEntity
  8
0
 62
7
100
AcDbSpline
 70
8
 71
3
 72
8
 73
4
 74
0
 40
0
 40
0
 40
0
 40
0
 40
1
 40
1
 40
1
 40
1
 10
665.221373
 20
44.728410
 30
0.0
 10
672.020422
 20
48.632903
 30
0.0
 10
676.918448
 20
50.235968
 30
0.0
 10
678.645623
 20
55.054733
 30
0.0
  0
SPLINE
  5
123
100
AcDbEntity
  8
0
 62
7
100
AcDbSpline
 70
8
 71
3
 72
8
 73
4
 74
0
 40
0
 40
0
 40
0
 40
0
 40
1
 40
1
 40
1
 40
1
 10
678.645623
 20
55.054733
 30
0.0
 10
680.372723
 20
59.873498
 30
0.0
 10
679.430948
 20
64.627155
 30
0.0
 10
675.547673
 20
68.479043
 30
0.0
  0
SPLINE
  5
124
100
AcDbEntity
  8
0
 62
7
100
AcDbSpline
 70
8
 71
3
 72
8
 73
4
 74
0
 40
0
 40
0
 40
0
 40
0
 40
1
 40
1
 40
1
 40
1
 10
675.547673
 20
68.479043
 30
0.0
 10
671.664398
 20
72.330923
 30
0.0
 10
651.323423
 20
67.707300
 30
0.0
 10
635.165273
 20
68.077973
 30
0.0
  0
SPLINE
  5
125
100
AcDbEntity
  8
0
 62
7
100
AcDbSpline
 70
8
 71
3
 72
8
 73
4
 74
0
 40
0
 40
0
 40
0
 40
0
 40
1
 40
1
 40
1
 40
1
 10
635.165273
 20
68.077973
 30
0.0
 10
619.007047
 20
68.448930
 30
0.0
 10
605.641973
 20
73.215600
 30
0.0
 10
593.969498
 20
78.805365
 30
0.0
  0
SPLINE
  5
126
100
AcDbEntity
  8
0
 62
7
100
AcDbSpline
 70
8
 71
3
 72
8
 73
4
 74
0
 40
0
 40
0
 40
0
 40
0
 40
1
 40
1
 40
1
 40
1
 10
593.969498
 20
78.805365
 30
0.0
 10
582.297098
 20
84.395122
 30
0.0
 10
569.598023
 20
96.137678
 30
0.0
 10
558.859898
 20
106.686518
 30
0.0
  0
SPLINE
  5
127
100
AcDbEntity
  8
0
 62
7
100
AcDbSpline
 70
8
 71
3
 72
8
 73
4
 74
0
 40
0
 40
0
 40
0
 40
0
 40
1
 40
1
 40
1
 40
1
 10
558.859898
 20
106.686518
 30
0.0
 10
548.121818
 20
117.235358
 30
0.0
 10
537.273473
 20
128.665350
 30
0.0
 10
529.946093
 20
141.796125
 30
0.0
  0
SPLINE
  5
128
100
AcDbEntity
  8
0
 62
7
100
AcDbSpline
 70
8
 71
3
 72
8
 73
4
 74
0
 40
0
 40
0
 40
0
 40
0
 40
1
 40
1
 40
1
 40
1
 10
529.946093
 20
141.796125
 30
0.0
 10
522.618773
 20
154.926900
 30
0.0
 10
518.091698
 20
168.459142
 30
0.0
 10
515.489265
 20
184.134128
 30
0.0
  0
SPLINE
  5
129
100
AcDbEntity
  8
0
 62
7
100
AcDbSpline
 70
8
 71
3
 72
8
 73
4
 74
0
 40
0
 40
0
 40
0
 40
0
 40
1
 40
1
 40
1
 40
1
 10
515.489265
 20
184.134128
 30
0.0
 10
512.886825
 20
199.809128
 30
0.0
 10
513.125655
 20
217.525403
 30
0.0
 10
515.489265
 20
234.733253
 30
0.0
  0
SPLINE
  5
12a
100
AcDbEntity
  8
0
 62
7
100
AcDbSpline
 70
8
 71
3
 72
8
 73
4
 74
0
 40
0
 40
0
 40
0
 40
0
 40
1
 40
1
 40
1
 40
1
 10
515.489265
 20
234.733253
 30
0.0
 10
517.852868
 20
251.941103
 30
0.0
 10
523.386540
 20
270.976020
 30
0.0
 10
529.946093
 20
286.365038
 30
0.0
  0
SPLINE
  5
12b
100
AcDbEntity
  8
0
 62
7
100
AcDbSpline
 70
8
 71
3
 72
8
 73
4
 74
0
 40
0
 40
0
 40
0
 40
0
 40
1
 40
1
 40
1
 40
1
 10
529.946093
 20
286.365038
 30
0.0
 10
536.505645
 20
301.754055
 30
0.0
 10
545.014643
 20
315.654863
 30
0.0
 10
553.696748
 20
326.637833
 30
0.0
  0
SPLINE
  5
12c
100
AcDbEntity
  8
0
 62
7
100
AcDbSpline
 70
8
 71
3
 72
8
 73
4
 74
0
 40
0
 40
0
 40
0
 40
0
 40
1
 40
1
 40
1
 40
1
 10
553.696748
 20
326.637833
 30
0.0
 10
562.378898
 20
337.620803
 30
0.0
 10
570.183248
 20
345.804210
 30
0.0
 10
580.545173
 20
352.453673
 30
0.0
  0
SPLINE
  5
12d
100
AcDbEntity
  8
0
 62
7
100
AcDbSpline
 70
8
 71
3
 72
8
 73
4
 74
0
 40
0
 40
0
 40
0
 40
0
 40
1
 40
1
 40
1
 40
1
 10
580.545173
 20
352.453673
 30
0.0
 10
590.907248
 20
359.103135
 30
0.0
 10
603.193148
 20
365.221950
 30
0.0
 10
614.622248
 20
365.877975
 30
0.0
  0
SPLINE
  5
12e
100
AcDbEntity
  8
0
 62
7
100
AcDbSpline
 70
8
 71
3
 72
8
 73
4
 74
0
 40
0
 40
0
 40
0
 40
0
 40
1
 40
1
 40
1
 40
1
 10
614.622248
 20
365.877975
 30
0.0
 10
626.051348
 20
366.534000
 30
0.0
 10
635.759723
 20
364.516733
 30
0.0
 10
644.568548
 20
360.714780
 30
0.0
  0
SPLINE
  5
12f
100
AcDbEntity
  8
0
 62
7
100
AcDbSpline
 70
8
 71
3
 72
8
 73
4
 74
0
 40
0
 40
0
 40
0
 40
0
 40
1
 40
1
 40
1
 40
1
 10
644.568548
 20
360.714780
 30
0.0
 10
653.377448
 20
356.912835
 30
0.0
 10
661.941998
 20
349.659270
 30
0.0
 10
667.286573
 20
344.192610
 30
0.0
  0
SPLINE
  5
130
100
AcDbEntity
  8
0
 62
7
100
AcDbSpline
 70
8
 71
3
 72
8
 73
4
 74
0
 40
0
 40
0
 40
0
 40
0
 40
1
 40
1
 40
1
 40
1
 10
667.286573
 20
344.192610
 30
0.0
 10
672.631223
 20
338.725950
 30
0.0
 10
674.871998
 20
332.528513
 30
0.0
 10
677.612948
 20
326.637833
 30
0.0
  0
SPLINE
  5
131
100
AcDbEntity
  8
0
 62
7
100
AcDbSpline
 70
8
 71
3
 72
8
 73
4
 74
0
 40
0
 40
0
 40
0
 40
0
 40
1
 40
1
 40
1
 40
1
 10
677.612948
 20
326.637833
 30
0.0
 10
680.353898
 20
320.747160
 30
0.0
 10
680.800523
 20
313.589265
 30
0.0
 10
683.808773
 20
309.083003
 30
0.0
  0
LINE
  5
132
100
AcDbEntity
  8
0
 62
7
100
AcDbLine
 10
683.808773
 20
309.083003
 30
0.0
 11
683.808773
 21
309.083003
 31
0.0
  0
ENDSEC
  0
SECTION
  2
OBJECTS
  0
DICTIONARY
  5
C
330
0
100
AcDbDictionary
  3
ACAD_GROUP
350
D
  3
ACAD_MLINESTYLE
350
17
  0
DICTIONARY
  5
D
330
C
100
AcDbDictionary
  0
DICTIONARY
  5
1A
330
C
100
AcDbDictionary
  0
DICTIONARY
  5
17
330
C
100
AcDbDictionary
  3
STANDARD
350
18
  0
DICTIONARY
  5
19
330
C
100
AcDbDictionary
  0
ENDSEC
  0
EOF
